<?xml version="1.0" encoding="UTF-8"?><svg xmlns="http://www.w3.org/2000/svg" xmlns:xlink="http://www.w3.org/1999/xlink" fill-opacity="1" color-rendering="auto" color-interpolation="auto" text-rendering="auto" stroke="black" stroke-linecap="square" width="312" stroke-miterlimit="10" shape-rendering="auto" stroke-opacity="1" fill="black" stroke-dasharray="none" font-weight="normal" stroke-width="1" height="529" font-family="'Dialog'" font-style="normal" stroke-linejoin="miter" font-size="12px" stroke-dashoffset="0" image-rendering="auto">
  <!--Generated by ySVG 2.5-->
  <defs id="genericDefs"/>
  <g>
    <defs id="defs1">
      <clipPath clipPathUnits="userSpaceOnUse" id="clipPath1">
        <path d="M0 0 L312 0 L312 529 L0 529 L0 0 Z"/>
      </clipPath>
      <clipPath clipPathUnits="userSpaceOnUse" id="clipPath2">
        <path d="M18 78 L330 78 L330 607 L18 607 L18 78 Z"/>
      </clipPath>
    </defs>
    <g fill="white" text-rendering="geometricPrecision" shape-rendering="geometricPrecision" transform="translate(-18,-78)" stroke="white">
      <rect x="18" width="312" height="529" y="78" clip-path="url(#clipPath2)" stroke="none"/>
    </g>
    <g fill="white" text-rendering="geometricPrecision" shape-rendering="geometricPrecision" transform="matrix(1,0,0,1,-18,-78)" stroke="white">
      <rect x="34.7922" y="93.0451" clip-path="url(#clipPath2)" width="30" rx="4" ry="4" height="30" stroke="none"/>
    </g>
    <g text-rendering="geometricPrecision" stroke-miterlimit="1.45" stroke-width="2" shape-rendering="geometricPrecision" transform="matrix(1,0,0,1,-18,-78)" stroke-linecap="butt">
      <rect x="34.7922" y="93.0451" clip-path="url(#clipPath2)" fill="none" width="30" rx="4" ry="4" height="30"/>
      <text x="46.3602" y="112.7011" clip-path="url(#clipPath2)" font-family="sans-serif" stroke="none" stroke-width="1" xml:space="preserve">1</text>
    </g>
    <g fill="white" text-rendering="geometricPrecision" shape-rendering="geometricPrecision" transform="matrix(1,0,0,1,-18,-78)" stroke="white">
      <rect x="81.474" y="144.3046" clip-path="url(#clipPath2)" width="30" rx="4" ry="4" height="30" stroke="none"/>
    </g>
    <g text-rendering="geometricPrecision" stroke-miterlimit="1.45" stroke-width="2" shape-rendering="geometricPrecision" transform="matrix(1,0,0,1,-18,-78)" stroke-linecap="butt">
      <rect x="81.474" y="144.3046" clip-path="url(#clipPath2)" fill="none" width="30" rx="4" ry="4" height="30"/>
      <text x="93.042" y="163.9606" clip-path="url(#clipPath2)" font-family="sans-serif" stroke="none" stroke-width="1" xml:space="preserve">2</text>
    </g>
    <g fill="white" text-rendering="geometricPrecision" shape-rendering="geometricPrecision" transform="matrix(1,0,0,1,-18,-78)" stroke="white">
      <rect x="128.7942" y="198.6693" clip-path="url(#clipPath2)" width="30" rx="4" ry="4" height="30" stroke="none"/>
    </g>
    <g text-rendering="geometricPrecision" stroke-miterlimit="1.45" stroke-width="2" shape-rendering="geometricPrecision" transform="matrix(1,0,0,1,-18,-78)" stroke-linecap="butt">
      <rect x="128.7942" y="198.6693" clip-path="url(#clipPath2)" fill="none" width="30" rx="4" ry="4" height="30"/>
      <text x="140.3622" y="218.3254" clip-path="url(#clipPath2)" font-family="sans-serif" stroke="none" stroke-width="1" xml:space="preserve">7</text>
    </g>
    <g fill="white" text-rendering="geometricPrecision" shape-rendering="geometricPrecision" transform="matrix(1,0,0,1,-18,-78)" stroke="white">
      <rect x="81.474" y="258.6693" clip-path="url(#clipPath2)" width="30" rx="4" ry="4" height="30" stroke="none"/>
    </g>
    <g text-rendering="geometricPrecision" stroke-miterlimit="1.45" stroke-width="2" shape-rendering="geometricPrecision" transform="matrix(1,0,0,1,-18,-78)" stroke-linecap="butt">
      <rect x="81.474" y="258.6693" clip-path="url(#clipPath2)" fill="none" width="30" rx="4" ry="4" height="30"/>
      <text x="93.042" y="278.3254" clip-path="url(#clipPath2)" font-family="sans-serif" stroke="none" stroke-width="1" xml:space="preserve">4</text>
    </g>
    <g fill="white" text-rendering="geometricPrecision" shape-rendering="geometricPrecision" transform="matrix(1,0,0,1,-18,-78)" stroke="white">
      <rect x="128.7942" y="318.6693" clip-path="url(#clipPath2)" width="30" rx="4" ry="4" height="30" stroke="none"/>
    </g>
    <g text-rendering="geometricPrecision" stroke-miterlimit="1.45" stroke-width="2" shape-rendering="geometricPrecision" transform="matrix(1,0,0,1,-18,-78)" stroke-linecap="butt">
      <rect x="128.7942" y="318.6693" clip-path="url(#clipPath2)" fill="none" width="30" rx="4" ry="4" height="30"/>
      <text x="140.3622" y="338.3254" clip-path="url(#clipPath2)" font-family="sans-serif" stroke="none" stroke-width="1" xml:space="preserve">6</text>
    </g>
    <g fill="white" text-rendering="geometricPrecision" shape-rendering="geometricPrecision" transform="matrix(1,0,0,1,-18,-78)" stroke="white">
      <rect x="33.3676" y="318.6693" clip-path="url(#clipPath2)" width="30" rx="4" ry="4" height="30" stroke="none"/>
    </g>
    <g text-rendering="geometricPrecision" stroke-miterlimit="1.45" stroke-width="2" shape-rendering="geometricPrecision" transform="matrix(1,0,0,1,-18,-78)" stroke-linecap="butt">
      <rect x="33.3676" y="318.6693" clip-path="url(#clipPath2)" fill="none" width="30" rx="4" ry="4" height="30"/>
      <text x="44.9356" y="338.3254" clip-path="url(#clipPath2)" font-family="sans-serif" stroke="none" stroke-width="1" xml:space="preserve">3</text>
    </g>
    <g fill="white" text-rendering="geometricPrecision" shape-rendering="geometricPrecision" transform="matrix(1,0,0,1,-18,-78)" stroke="white">
      <rect x="224.2208" y="318.6693" clip-path="url(#clipPath2)" width="30" rx="4" ry="4" height="30" stroke="none"/>
    </g>
    <g text-rendering="geometricPrecision" stroke-miterlimit="1.45" stroke-width="2" shape-rendering="geometricPrecision" transform="matrix(1,0,0,1,-18,-78)" stroke-linecap="butt">
      <rect x="224.2208" y="318.6693" clip-path="url(#clipPath2)" fill="none" width="30" rx="4" ry="4" height="30"/>
      <text x="232.3568" y="338.3254" clip-path="url(#clipPath2)" font-family="sans-serif" stroke="none" stroke-width="1" xml:space="preserve">19</text>
    </g>
    <g fill="white" text-rendering="geometricPrecision" shape-rendering="geometricPrecision" transform="matrix(1,0,0,1,-18,-78)" stroke="white">
      <rect x="176.5075" y="378.6693" clip-path="url(#clipPath2)" width="30" rx="4" ry="4" height="30" stroke="none"/>
    </g>
    <g text-rendering="geometricPrecision" stroke-miterlimit="1.45" stroke-width="2" shape-rendering="geometricPrecision" transform="matrix(1,0,0,1,-18,-78)" stroke-linecap="butt">
      <rect x="176.5075" y="378.6693" clip-path="url(#clipPath2)" fill="none" width="30" rx="4" ry="4" height="30"/>
      <text x="184.6435" y="398.3254" clip-path="url(#clipPath2)" font-family="sans-serif" stroke="none" stroke-width="1" xml:space="preserve">15</text>
    </g>
    <g fill="white" text-rendering="geometricPrecision" shape-rendering="geometricPrecision" transform="matrix(1,0,0,1,-18,-78)" stroke="white">
      <rect x="284.2208" y="378.6693" clip-path="url(#clipPath2)" width="30" rx="4" ry="4" height="30" stroke="none"/>
    </g>
    <g text-rendering="geometricPrecision" stroke-miterlimit="1.45" stroke-width="2" shape-rendering="geometricPrecision" transform="matrix(1,0,0,1,-18,-78)" stroke-linecap="butt">
      <rect x="284.2208" y="378.6693" clip-path="url(#clipPath2)" fill="none" width="30" rx="4" ry="4" height="30"/>
      <text x="292.3568" y="398.3254" clip-path="url(#clipPath2)" font-family="sans-serif" stroke="none" stroke-width="1" xml:space="preserve">28</text>
    </g>
    <g fill="white" text-rendering="geometricPrecision" shape-rendering="geometricPrecision" transform="matrix(1,0,0,1,-18,-78)" stroke="white">
      <rect x="128.7942" y="438.6693" clip-path="url(#clipPath2)" width="30" rx="4" ry="4" height="30" stroke="none"/>
    </g>
    <g text-rendering="geometricPrecision" stroke-miterlimit="1.45" stroke-width="2" shape-rendering="geometricPrecision" transform="matrix(1,0,0,1,-18,-78)" stroke-linecap="butt">
      <rect x="128.7942" y="438.6693" clip-path="url(#clipPath2)" fill="none" width="30" rx="4" ry="4" height="30"/>
      <text x="140.3622" y="458.3254" clip-path="url(#clipPath2)" font-family="sans-serif" stroke="none" stroke-width="1" xml:space="preserve">8</text>
    </g>
    <g fill="white" text-rendering="geometricPrecision" shape-rendering="geometricPrecision" transform="matrix(1,0,0,1,-18,-78)" stroke="white">
      <rect x="230.3642" y="438.6693" clip-path="url(#clipPath2)" width="30" rx="4" ry="4" height="30" stroke="none"/>
    </g>
    <g text-rendering="geometricPrecision" stroke-miterlimit="1.45" stroke-width="2" shape-rendering="geometricPrecision" transform="matrix(1,0,0,1,-18,-78)" stroke-linecap="butt">
      <rect x="230.3642" y="438.6693" clip-path="url(#clipPath2)" fill="none" width="30" rx="4" ry="4" height="30"/>
      <text x="238.5001" y="458.3254" clip-path="url(#clipPath2)" font-family="sans-serif" stroke="none" stroke-width="1" xml:space="preserve">21</text>
    </g>
    <g fill="white" text-rendering="geometricPrecision" shape-rendering="geometricPrecision" transform="matrix(1,0,0,1,-18,-78)" stroke="white">
      <rect x="176.5075" y="498.6693" clip-path="url(#clipPath2)" width="30" rx="4" ry="4" height="30" stroke="none"/>
    </g>
    <g text-rendering="geometricPrecision" stroke-miterlimit="1.45" stroke-width="2" shape-rendering="geometricPrecision" transform="matrix(1,0,0,1,-18,-78)" stroke-linecap="butt">
      <rect x="176.5075" y="498.6693" clip-path="url(#clipPath2)" fill="none" width="30" rx="4" ry="4" height="30"/>
      <text x="184.6435" y="518.3254" clip-path="url(#clipPath2)" font-family="sans-serif" stroke="none" stroke-width="1" xml:space="preserve">10</text>
    </g>
    <g fill="white" text-rendering="geometricPrecision" shape-rendering="geometricPrecision" transform="matrix(1,0,0,1,-18,-78)" stroke="white">
      <rect x="128.7942" y="558.6693" clip-path="url(#clipPath2)" width="30" rx="4" ry="4" height="30" stroke="none"/>
    </g>
    <g text-rendering="geometricPrecision" stroke-miterlimit="1.45" stroke-width="2" shape-rendering="geometricPrecision" transform="matrix(1,0,0,1,-18,-78)" stroke-linecap="butt">
      <rect x="128.7942" y="558.6693" clip-path="url(#clipPath2)" fill="none" width="30" rx="4" ry="4" height="30"/>
      <text x="140.3622" y="578.3254" clip-path="url(#clipPath2)" font-family="sans-serif" stroke="none" stroke-width="1" xml:space="preserve">9</text>
    </g>
    <g fill="white" text-rendering="geometricPrecision" shape-rendering="geometricPrecision" transform="matrix(1,0,0,1,-18,-78)" stroke="white">
      <rect x="224.2208" y="561.9915" clip-path="url(#clipPath2)" width="30" rx="4" ry="4" height="30" stroke="none"/>
    </g>
    <g text-rendering="geometricPrecision" stroke-miterlimit="1.45" stroke-width="2" shape-rendering="geometricPrecision" transform="matrix(1,0,0,1,-18,-78)" stroke-linecap="butt">
      <rect x="224.2208" y="561.9915" clip-path="url(#clipPath2)" fill="none" width="30" rx="4" ry="4" height="30"/>
      <text x="232.3568" y="581.6475" clip-path="url(#clipPath2)" font-family="sans-serif" stroke="none" stroke-width="1" xml:space="preserve">13</text>
      <path fill="none" d="M62.8987 122.4368 L78.0049 139.0243" stroke-width="1" clip-path="url(#clipPath2)"/>
      <path d="M83.3914 144.9391 L79.0083 132.7003 L77.3315 138.285 L71.6148 139.4335 Z" stroke-width="1" clip-path="url(#clipPath2)" stroke="none"/>
      <path fill="none" d="M109.2052 173.9311 L125.8243 193.0243" stroke-width="1" clip-path="url(#clipPath2)"/>
      <path d="M131.0767 199.0585 L126.9695 186.7244 L125.1678 192.27 L119.4267 193.2899 Z" stroke-width="1" clip-path="url(#clipPath2)" stroke="none"/>
      <path fill="none" d="M132.0335 228.5815 L113.1828 252.4833" stroke-width="1" clip-path="url(#clipPath2)"/>
      <path d="M108.2288 258.7648 L119.5858 252.4388 L113.8021 251.6981 L111.7339 246.2462 Z" stroke-width="1" clip-path="url(#clipPath2)" stroke="none"/>
      <path fill="none" d="M108.2347 288.5815 L127.0854 312.4833" stroke-width="1" clip-path="url(#clipPath2)"/>
      <path d="M132.0395 318.7648 L128.5343 306.2462 L126.4662 311.6981 L120.6824 312.4388 Z" stroke-width="1" clip-path="url(#clipPath2)" stroke="none"/>
      <path fill="none" d="M84.5179 288.5815 L65.322 312.5233" stroke-width="1" clip-path="url(#clipPath2)"/>
      <path d="M60.3177 318.7648 L71.7251 312.5302 L65.9475 311.7431 L63.9232 306.2748 Z" stroke-width="1" clip-path="url(#clipPath2)" stroke="none"/>
      <path fill="none" d="M155.6526 228.5815 L222.3877 312.5016" stroke-width="1" clip-path="url(#clipPath2)"/>
      <path d="M227.367 318.7631 L223.8115 306.2588 L221.7653 311.7189 L215.9846 312.4828 Z" stroke-width="1" clip-path="url(#clipPath2)" stroke="none"/>
      <path fill="none" d="M227.3624 348.5815 L208.3392 372.5033" stroke-width="1" clip-path="url(#clipPath2)"/>
      <path d="M203.3599 378.7648 L214.7423 372.4846 L208.9616 371.7206 L206.9154 366.2605 Z" stroke-width="1" clip-path="url(#clipPath2)" stroke="none"/>
      <path fill="none" d="M253.0782 347.5268 L279.7527 374.2013" stroke-width="1" clip-path="url(#clipPath2)"/>
      <path d="M285.4096 379.8581 L280.4598 367.8373 L279.0456 373.4942 L273.3888 374.9084 Z" stroke-width="1" clip-path="url(#clipPath2)" stroke="none"/>
      <path fill="none" d="M179.6491 408.5815 L160.6259 432.5033" stroke-width="1" clip-path="url(#clipPath2)"/>
      <path d="M155.6466 438.7648 L167.029 432.4846 L161.2484 431.7206 L159.2021 426.2605 Z" stroke-width="1" clip-path="url(#clipPath2)" stroke="none"/>
      <path fill="none" d="M286.2563 408.1127 L263.7064 433.2348" stroke-width="1" clip-path="url(#clipPath2)"/>
      <path d="M258.3626 439.1882 L270.0992 433.598 L264.3744 432.4906 L262.6574 426.9182 Z" stroke-width="1" clip-path="url(#clipPath2)" stroke="none"/>
      <path fill="none" d="M155.6526 468.5815 L174.6758 492.5033" stroke-width="1" clip-path="url(#clipPath2)"/>
      <path d="M179.6551 498.7648 L176.0996 486.2605 L174.0534 491.7206 L168.2727 492.4846 Z" stroke-width="1" clip-path="url(#clipPath2)" stroke="none"/>
      <path fill="none" d="M179.6491 528.5815 L160.6259 552.5033" stroke-width="1" clip-path="url(#clipPath2)"/>
      <path d="M155.6466 558.7648 L167.029 552.4846 L161.2483 551.7206 L159.2021 546.2605 Z" stroke-width="1" clip-path="url(#clipPath2)" stroke="none"/>
      <path fill="none" d="M202.8068 528.665 L223.116 555.6182" stroke-width="1" clip-path="url(#clipPath2)"/>
      <path d="M227.9303 562.0074 L224.7021 549.4146 L222.5142 554.8196 L216.7156 555.4326 Z" stroke-width="1" clip-path="url(#clipPath2)" stroke="none"/>
    </g>
  </g>
</svg>
