<?xml version="1.0" encoding="UTF-8"?><svg xmlns="http://www.w3.org/2000/svg" xmlns:xlink="http://www.w3.org/1999/xlink" fill-opacity="1" color-rendering="auto" color-interpolation="auto" text-rendering="auto" stroke="black" stroke-linecap="square" width="631" stroke-miterlimit="10" shape-rendering="auto" stroke-opacity="1" fill="black" stroke-dasharray="none" font-weight="normal" stroke-width="1" height="294" font-family="'Dialog'" font-style="normal" stroke-linejoin="miter" font-size="12px" stroke-dashoffset="0" image-rendering="auto">
  <!--Generated by ySVG 2.5-->
  <defs id="genericDefs"/>
  <g>
    <defs id="defs1">
      <clipPath clipPathUnits="userSpaceOnUse" id="clipPath1">
        <path d="M0 0 L631 0 L631 294 L0 294 L0 0 Z"/>
      </clipPath>
      <clipPath clipPathUnits="userSpaceOnUse" id="clipPath2">
        <path d="M332 138 L963 138 L963 432 L332 432 L332 138 Z"/>
      </clipPath>
    </defs>
    <g fill="white" text-rendering="geometricPrecision" shape-rendering="geometricPrecision" transform="translate(-332,-138)" stroke="white">
      <rect x="332" width="631" height="294" y="138" clip-path="url(#clipPath2)" stroke="none"/>
    </g>
    <g fill="white" text-rendering="geometricPrecision" shape-rendering="geometricPrecision" transform="matrix(1,0,0,1,-332,-138)" stroke="white">
      <rect x="347.7619" y="266.2745" clip-path="url(#clipPath2)" width="30" rx="4" ry="4" height="30" stroke="none"/>
    </g>
    <g text-rendering="geometricPrecision" stroke-miterlimit="1.45" stroke-width="2" shape-rendering="geometricPrecision" transform="matrix(1,0,0,1,-332,-138)" stroke-linecap="butt">
      <rect x="347.7619" y="266.2745" clip-path="url(#clipPath2)" fill="none" width="30" rx="4" ry="4" height="30"/>
      <text x="359.3298" y="285.9305" clip-path="url(#clipPath2)" font-family="sans-serif" stroke="none" stroke-width="1" xml:space="preserve">1</text>
    </g>
    <g fill="white" text-rendering="geometricPrecision" shape-rendering="geometricPrecision" transform="matrix(1,0,0,1,-332,-138)" stroke="white">
      <rect x="407.7619" y="206.2745" clip-path="url(#clipPath2)" width="30" rx="4" ry="4" height="30" stroke="none"/>
    </g>
    <g text-rendering="geometricPrecision" stroke-miterlimit="1.45" stroke-width="2" shape-rendering="geometricPrecision" transform="matrix(1,0,0,1,-332,-138)" stroke-linecap="butt">
      <rect x="407.7619" y="206.2745" clip-path="url(#clipPath2)" fill="none" width="30" rx="4" ry="4" height="30"/>
      <text x="419.3298" y="225.9305" clip-path="url(#clipPath2)" font-family="sans-serif" stroke="none" stroke-width="1" xml:space="preserve">2</text>
    </g>
    <g fill="white" text-rendering="geometricPrecision" shape-rendering="geometricPrecision" transform="matrix(1,0,0,1,-332,-138)" stroke="white">
      <rect x="595.0585" y="153.9545" clip-path="url(#clipPath2)" width="30" rx="4" ry="4" height="30" stroke="none"/>
    </g>
    <g text-rendering="geometricPrecision" stroke-miterlimit="1.45" stroke-width="2" shape-rendering="geometricPrecision" transform="matrix(1,0,0,1,-332,-138)" stroke-linecap="butt">
      <rect x="595.0585" y="153.9545" clip-path="url(#clipPath2)" fill="none" width="30" rx="4" ry="4" height="30"/>
      <text x="606.6265" y="173.6105" clip-path="url(#clipPath2)" font-family="sans-serif" stroke="none" stroke-width="1" xml:space="preserve">7</text>
    </g>
    <g fill="white" text-rendering="geometricPrecision" shape-rendering="geometricPrecision" transform="matrix(1,0,0,1,-332,-138)" stroke="white">
      <rect x="467.7619" y="266.2745" clip-path="url(#clipPath2)" width="30" rx="4" ry="4" height="30" stroke="none"/>
    </g>
    <g text-rendering="geometricPrecision" stroke-miterlimit="1.45" stroke-width="2" shape-rendering="geometricPrecision" transform="matrix(1,0,0,1,-332,-138)" stroke-linecap="butt">
      <rect x="467.7619" y="266.2745" clip-path="url(#clipPath2)" fill="none" width="30" rx="4" ry="4" height="30"/>
      <text x="479.3298" y="285.9305" clip-path="url(#clipPath2)" font-family="sans-serif" stroke="none" stroke-width="1" xml:space="preserve">4</text>
    </g>
    <g fill="white" text-rendering="geometricPrecision" shape-rendering="geometricPrecision" transform="matrix(1,0,0,1,-332,-138)" stroke="white">
      <rect x="527.7619" y="326.2745" clip-path="url(#clipPath2)" width="30" rx="4" ry="4" height="30" stroke="none"/>
    </g>
    <g text-rendering="geometricPrecision" stroke-miterlimit="1.45" stroke-width="2" shape-rendering="geometricPrecision" transform="matrix(1,0,0,1,-332,-138)" stroke-linecap="butt">
      <rect x="527.7619" y="326.2745" clip-path="url(#clipPath2)" fill="none" width="30" rx="4" ry="4" height="30"/>
      <text x="539.3298" y="345.9305" clip-path="url(#clipPath2)" font-family="sans-serif" stroke="none" stroke-width="1" xml:space="preserve">6</text>
    </g>
    <g fill="white" text-rendering="geometricPrecision" shape-rendering="geometricPrecision" transform="matrix(1,0,0,1,-332,-138)" stroke="white">
      <rect x="407.7619" y="326.2745" clip-path="url(#clipPath2)" width="30" rx="4" ry="4" height="30" stroke="none"/>
    </g>
    <g text-rendering="geometricPrecision" stroke-miterlimit="1.45" stroke-width="2" shape-rendering="geometricPrecision" transform="matrix(1,0,0,1,-332,-138)" stroke-linecap="butt">
      <rect x="407.7619" y="326.2745" clip-path="url(#clipPath2)" fill="none" width="30" rx="4" ry="4" height="30"/>
      <text x="419.3298" y="345.9305" clip-path="url(#clipPath2)" font-family="sans-serif" stroke="none" stroke-width="1" xml:space="preserve">3</text>
    </g>
    <g fill="white" text-rendering="geometricPrecision" shape-rendering="geometricPrecision" transform="matrix(1,0,0,1,-332,-138)" stroke="white">
      <rect x="797.9718" y="326.2745" clip-path="url(#clipPath2)" width="30" rx="4" ry="4" height="30" stroke="none"/>
    </g>
    <g text-rendering="geometricPrecision" stroke-miterlimit="1.45" stroke-width="2" shape-rendering="geometricPrecision" transform="matrix(1,0,0,1,-332,-138)" stroke-linecap="butt">
      <rect x="797.9718" y="326.2745" clip-path="url(#clipPath2)" fill="none" width="30" rx="4" ry="4" height="30"/>
      <text x="806.1077" y="345.9305" clip-path="url(#clipPath2)" font-family="sans-serif" stroke="none" stroke-width="1" xml:space="preserve">19</text>
    </g>
    <g fill="white" text-rendering="geometricPrecision" shape-rendering="geometricPrecision" transform="matrix(1,0,0,1,-332,-138)" stroke="white">
      <rect x="782.3552" y="206.2745" clip-path="url(#clipPath2)" width="30" rx="4" ry="4" height="30" stroke="none"/>
    </g>
    <g text-rendering="geometricPrecision" stroke-miterlimit="1.45" stroke-width="2" shape-rendering="geometricPrecision" transform="matrix(1,0,0,1,-332,-138)" stroke-linecap="butt">
      <rect x="782.3552" y="206.2745" clip-path="url(#clipPath2)" fill="none" width="30" rx="4" ry="4" height="30"/>
      <text x="790.4911" y="225.9305" clip-path="url(#clipPath2)" font-family="sans-serif" stroke="none" stroke-width="1" xml:space="preserve">15</text>
    </g>
    <g fill="white" text-rendering="geometricPrecision" shape-rendering="geometricPrecision" transform="matrix(1,0,0,1,-332,-138)" stroke="white">
      <rect x="917.9718" y="326.2745" clip-path="url(#clipPath2)" width="30" rx="4" ry="4" height="30" stroke="none"/>
    </g>
    <g text-rendering="geometricPrecision" stroke-miterlimit="1.45" stroke-width="2" shape-rendering="geometricPrecision" transform="matrix(1,0,0,1,-332,-138)" stroke-linecap="butt">
      <rect x="917.9718" y="326.2745" clip-path="url(#clipPath2)" fill="none" width="30" rx="4" ry="4" height="30"/>
      <text x="926.1077" y="345.9305" clip-path="url(#clipPath2)" font-family="sans-serif" stroke="none" stroke-width="1" xml:space="preserve">28</text>
    </g>
    <g fill="white" text-rendering="geometricPrecision" shape-rendering="geometricPrecision" transform="matrix(1,0,0,1,-332,-138)" stroke="white">
      <rect x="622.3219" y="326.2745" clip-path="url(#clipPath2)" width="30" rx="4" ry="4" height="30" stroke="none"/>
    </g>
    <g text-rendering="geometricPrecision" stroke-miterlimit="1.45" stroke-width="2" shape-rendering="geometricPrecision" transform="matrix(1,0,0,1,-332,-138)" stroke-linecap="butt">
      <rect x="622.3219" y="326.2745" clip-path="url(#clipPath2)" fill="none" width="30" rx="4" ry="4" height="30"/>
      <text x="633.8898" y="345.9305" clip-path="url(#clipPath2)" font-family="sans-serif" stroke="none" stroke-width="1" xml:space="preserve">8</text>
    </g>
    <g fill="white" text-rendering="geometricPrecision" shape-rendering="geometricPrecision" transform="matrix(1,0,0,1,-332,-138)" stroke="white">
      <rect x="857.9718" y="266.2745" clip-path="url(#clipPath2)" width="30" rx="4" ry="4" height="30" stroke="none"/>
    </g>
    <g text-rendering="geometricPrecision" stroke-miterlimit="1.45" stroke-width="2" shape-rendering="geometricPrecision" transform="matrix(1,0,0,1,-332,-138)" stroke-linecap="butt">
      <rect x="857.9718" y="266.2745" clip-path="url(#clipPath2)" fill="none" width="30" rx="4" ry="4" height="30"/>
      <text x="866.1077" y="285.9305" clip-path="url(#clipPath2)" font-family="sans-serif" stroke="none" stroke-width="1" xml:space="preserve">21</text>
    </g>
    <g fill="white" text-rendering="geometricPrecision" shape-rendering="geometricPrecision" transform="matrix(1,0,0,1,-332,-138)" stroke="white">
      <rect x="733.7152" y="326.2745" clip-path="url(#clipPath2)" width="30" rx="4" ry="4" height="30" stroke="none"/>
    </g>
    <g text-rendering="geometricPrecision" stroke-miterlimit="1.45" stroke-width="2" shape-rendering="geometricPrecision" transform="matrix(1,0,0,1,-332,-138)" stroke-linecap="butt">
      <rect x="733.7152" y="326.2745" clip-path="url(#clipPath2)" fill="none" width="30" rx="4" ry="4" height="30"/>
      <text x="741.8511" y="345.9305" clip-path="url(#clipPath2)" font-family="sans-serif" stroke="none" stroke-width="1" xml:space="preserve">10</text>
    </g>
    <g fill="white" text-rendering="geometricPrecision" shape-rendering="geometricPrecision" transform="matrix(1,0,0,1,-332,-138)" stroke="white">
      <rect x="682.3219" y="266.2745" clip-path="url(#clipPath2)" width="30" rx="4" ry="4" height="30" stroke="none"/>
    </g>
    <g text-rendering="geometricPrecision" stroke-miterlimit="1.45" stroke-width="2" shape-rendering="geometricPrecision" transform="matrix(1,0,0,1,-332,-138)" stroke-linecap="butt">
      <rect x="682.3219" y="266.2745" clip-path="url(#clipPath2)" fill="none" width="30" rx="4" ry="4" height="30"/>
      <text x="693.8898" y="285.9305" clip-path="url(#clipPath2)" font-family="sans-serif" stroke="none" stroke-width="1" xml:space="preserve">9</text>
    </g>
    <g fill="white" text-rendering="geometricPrecision" shape-rendering="geometricPrecision" transform="matrix(1,0,0,1,-332,-138)" stroke="white">
      <rect x="767.9718" y="386.2745" clip-path="url(#clipPath2)" width="30" rx="4" ry="4" height="30" stroke="none"/>
    </g>
    <g text-rendering="geometricPrecision" stroke-miterlimit="1.45" stroke-width="2" shape-rendering="geometricPrecision" transform="matrix(1,0,0,1,-332,-138)" stroke-linecap="butt">
      <rect x="767.9718" y="386.2745" clip-path="url(#clipPath2)" fill="none" width="30" rx="4" ry="4" height="30"/>
      <text x="776.1077" y="405.9305" clip-path="url(#clipPath2)" font-family="sans-serif" stroke="none" stroke-width="1" xml:space="preserve">13</text>
      <path fill="none" d="M408.9044 235.1319 L382.2299 261.8064" stroke-width="1" clip-path="url(#clipPath2)"/>
      <path d="M376.5731 267.4632 L388.5939 262.5135 L382.937 261.0993 L381.5228 255.4424 Z" stroke-width="1" clip-path="url(#clipPath2)" stroke="none"/>
      <path fill="none" d="M595.0144 173.1569 L445.4801 214.9283" stroke-width="1" clip-path="url(#clipPath2)"/>
      <path d="M437.7751 217.0806 L450.6778 218.6677 L446.4432 214.6592 L447.9874 209.0365 Z" stroke-width="1" clip-path="url(#clipPath2)" stroke="none"/>
      <path fill="none" d="M436.6193 235.1319 L463.2938 261.8064" stroke-width="1" clip-path="url(#clipPath2)"/>
      <path d="M468.9506 267.4632 L464.0009 255.4424 L462.5867 261.0992 L456.9298 262.5135 Z" stroke-width="1" clip-path="url(#clipPath2)" stroke="none"/>
      <path fill="none" d="M496.6193 295.1319 L523.2938 321.8064" stroke-width="1" clip-path="url(#clipPath2)"/>
      <path d="M528.9506 327.4632 L524.0009 315.4424 L522.5867 321.0993 L516.9298 322.5135 Z" stroke-width="1" clip-path="url(#clipPath2)" stroke="none"/>
      <path fill="none" d="M468.9044 295.1319 L442.2299 321.8064" stroke-width="1" clip-path="url(#clipPath2)"/>
      <path d="M436.5731 327.4632 L448.5939 322.5135 L442.937 321.0993 L441.5228 315.4424 Z" stroke-width="1" clip-path="url(#clipPath2)" stroke="none"/>
      <path fill="none" d="M625.1026 173.1569 L774.6369 214.9283" stroke-width="1" clip-path="url(#clipPath2)"/>
      <path d="M782.3419 217.0806 L772.1296 209.0365 L773.6738 214.6592 L769.4391 218.6677 Z" stroke-width="1" clip-path="url(#clipPath2)" stroke="none"/>
      <path fill="none" d="M812.2348 233.0811 L851.7876 264.4653" stroke-width="1" clip-path="url(#clipPath2)"/>
      <path d="M858.0544 269.4379 L851.762 258.0622 L851.0043 263.8437 L845.5463 265.8958 Z" stroke-width="1" clip-path="url(#clipPath2)" stroke="none"/>
      <path fill="none" d="M859.1144 295.1319 L832.4399 321.8064" stroke-width="1" clip-path="url(#clipPath2)"/>
      <path d="M826.783 327.4632 L838.8038 322.5135 L833.147 321.0993 L831.7328 315.4424 Z" stroke-width="1" clip-path="url(#clipPath2)" stroke="none"/>
      <path fill="none" d="M886.8292 295.1319 L913.5037 321.8064" stroke-width="1" clip-path="url(#clipPath2)"/>
      <path d="M919.1606 327.4632 L914.2108 315.4424 L912.7966 321.0993 L907.1398 322.5135 Z" stroke-width="1" clip-path="url(#clipPath2)" stroke="none"/>
      <path fill="none" d="M782.3355 230.2832 L719.1677 268.1713" stroke-width="1" clip-path="url(#clipPath2)"/>
      <path d="M712.3072 272.2863 L725.1699 270.4016 L720.0253 267.6569 L720.0261 261.826 Z" stroke-width="1" clip-path="url(#clipPath2)" stroke="none"/>
      <path fill="none" d="M709.8942 295.9522 L730.9434 320.5264" stroke-width="1" clip-path="url(#clipPath2)"/>
      <path d="M736.1476 326.6023 L732.1386 314.2358 L730.2928 319.7669 L724.5438 320.7411 Z" stroke-width="1" clip-path="url(#clipPath2)" stroke="none"/>
      <path fill="none" d="M683.4644 295.1319 L656.79 321.8064" stroke-width="1" clip-path="url(#clipPath2)"/>
      <path d="M651.1331 327.4632 L663.1539 322.5135 L657.4971 321.0993 L656.0829 315.4424 Z" stroke-width="1" clip-path="url(#clipPath2)" stroke="none"/>
      <path fill="none" d="M757.2626 356.2451 L770.4313 379.31" stroke-width="1" clip-path="url(#clipPath2)"/>
      <path d="M774.3979 386.2574 L772.7901 373.3571 L769.9355 378.4416 L764.1059 378.3154 Z" stroke-width="1" clip-path="url(#clipPath2)" stroke="none"/>
    </g>
  </g>
</svg>
