<?xml version="1.0" encoding="UTF-8"?><svg xmlns="http://www.w3.org/2000/svg" xmlns:xlink="http://www.w3.org/1999/xlink" fill-opacity="1" color-rendering="auto" color-interpolation="auto" text-rendering="auto" stroke="black" stroke-linecap="square" width="497" stroke-miterlimit="10" shape-rendering="auto" stroke-opacity="1" fill="black" stroke-dasharray="none" font-weight="normal" stroke-width="1" height="326" font-family="'Dialog'" font-style="normal" stroke-linejoin="miter" font-size="12px" stroke-dashoffset="0" image-rendering="auto">
  <!--Generated by ySVG 2.5-->
  <defs id="genericDefs"/>
  <g>
    <defs id="defs1">
      <clipPath clipPathUnits="userSpaceOnUse" id="clipPath1">
        <path d="M0 0 L497 0 L497 326 L0 326 L0 0 Z"/>
      </clipPath>
      <clipPath clipPathUnits="userSpaceOnUse" id="clipPath2">
        <path d="M-660 99 L-163 99 L-163 425 L-660 425 L-660 99 Z"/>
      </clipPath>
    </defs>
    <g fill="white" text-rendering="geometricPrecision" shape-rendering="geometricPrecision" transform="translate(660,-99)" stroke="white">
      <rect x="-660" width="497" height="326" y="99" clip-path="url(#clipPath2)" stroke="none"/>
    </g>
    <g fill="white" text-rendering="geometricPrecision" shape-rendering="geometricPrecision" transform="matrix(1,0,0,1,660,-99)" stroke="white">
      <rect x="-244.2405" y="161.8706" clip-path="url(#clipPath2)" width="30" rx="4" ry="4" height="30" stroke="none"/>
    </g>
    <g text-rendering="geometricPrecision" stroke-miterlimit="1.45" stroke-width="2" shape-rendering="geometricPrecision" transform="matrix(1,0,0,1,660,-99)" stroke-linecap="butt">
      <rect x="-244.2405" y="161.8706" clip-path="url(#clipPath2)" fill="none" width="30" rx="4" ry="4" height="30"/>
      <text x="-236.1045" y="181.5267" clip-path="url(#clipPath2)" font-family="sans-serif" stroke="none" stroke-width="1" xml:space="preserve">63</text>
    </g>
    <g fill="white" text-rendering="geometricPrecision" shape-rendering="geometricPrecision" transform="matrix(1,0,0,1,660,-99)" stroke="white">
      <rect x="-374.3005" y="213.5506" clip-path="url(#clipPath2)" width="30" rx="4" ry="4" height="30" stroke="none"/>
    </g>
    <g text-rendering="geometricPrecision" stroke-miterlimit="1.45" stroke-width="2" shape-rendering="geometricPrecision" transform="matrix(1,0,0,1,660,-99)" stroke-linecap="butt">
      <rect x="-374.3005" y="213.5506" clip-path="url(#clipPath2)" fill="none" width="30" rx="4" ry="4" height="30"/>
      <text x="-366.1646" y="233.2067" clip-path="url(#clipPath2)" font-family="sans-serif" stroke="none" stroke-width="1" xml:space="preserve">41</text>
    </g>
    <g fill="white" text-rendering="geometricPrecision" shape-rendering="geometricPrecision" transform="matrix(1,0,0,1,660,-99)" stroke="white">
      <rect x="-504.3606" y="168.2706" clip-path="url(#clipPath2)" width="30" rx="4" ry="4" height="30" stroke="none"/>
    </g>
    <g text-rendering="geometricPrecision" stroke-miterlimit="1.45" stroke-width="2" shape-rendering="geometricPrecision" transform="matrix(1,0,0,1,660,-99)" stroke-linecap="butt">
      <rect x="-504.3606" y="168.2706" clip-path="url(#clipPath2)" fill="none" width="30" rx="4" ry="4" height="30"/>
      <text x="-496.2246" y="187.9267" clip-path="url(#clipPath2)" font-family="sans-serif" stroke="none" stroke-width="1" xml:space="preserve">23</text>
    </g>
    <g fill="white" text-rendering="geometricPrecision" shape-rendering="geometricPrecision" transform="matrix(1,0,0,1,660,-99)" stroke="white">
      <rect x="-571.3608" y="213.5506" clip-path="url(#clipPath2)" width="30" rx="4" ry="4" height="30" stroke="none"/>
    </g>
    <g text-rendering="geometricPrecision" stroke-miterlimit="1.45" stroke-width="2" shape-rendering="geometricPrecision" transform="matrix(1,0,0,1,660,-99)" stroke-linecap="butt">
      <rect x="-571.3608" y="213.5506" clip-path="url(#clipPath2)" fill="none" width="30" rx="4" ry="4" height="30"/>
      <text x="-563.2248" y="233.2067" clip-path="url(#clipPath2)" font-family="sans-serif" stroke="none" stroke-width="1" xml:space="preserve">16</text>
    </g>
    <g fill="white" text-rendering="geometricPrecision" shape-rendering="geometricPrecision" transform="matrix(1,0,0,1,660,-99)" stroke="white">
      <rect x="-444.3606" y="213.5506" clip-path="url(#clipPath2)" width="30" rx="4" ry="4" height="30" stroke="none"/>
    </g>
    <g text-rendering="geometricPrecision" stroke-miterlimit="1.45" stroke-width="2" shape-rendering="geometricPrecision" transform="matrix(1,0,0,1,660,-99)" stroke-linecap="butt">
      <rect x="-444.3606" y="213.5506" clip-path="url(#clipPath2)" fill="none" width="30" rx="4" ry="4" height="30"/>
      <text x="-436.2246" y="233.2067" clip-path="url(#clipPath2)" font-family="sans-serif" stroke="none" stroke-width="1" xml:space="preserve">27</text>
    </g>
    <g fill="white" text-rendering="geometricPrecision" shape-rendering="geometricPrecision" transform="matrix(1,0,0,1,660,-99)" stroke="white">
      <rect x="-374.3005" y="114.3915" clip-path="url(#clipPath2)" width="30" rx="4" ry="4" height="30" stroke="none"/>
    </g>
    <g text-rendering="geometricPrecision" stroke-miterlimit="1.45" stroke-width="2" shape-rendering="geometricPrecision" transform="matrix(1,0,0,1,660,-99)" stroke-linecap="butt">
      <rect x="-374.3005" y="114.3915" clip-path="url(#clipPath2)" fill="none" width="30" rx="4" ry="4" height="30"/>
      <text x="-366.1646" y="134.0475" clip-path="url(#clipPath2)" font-family="sans-serif" stroke="none" stroke-width="1" xml:space="preserve">31</text>
    </g>
    <g fill="white" text-rendering="geometricPrecision" shape-rendering="geometricPrecision" transform="matrix(1,0,0,1,660,-99)" stroke="white">
      <rect x="-324.3813" y="271.0723" clip-path="url(#clipPath2)" width="30" rx="4" ry="4" height="30" stroke="none"/>
    </g>
    <g text-rendering="geometricPrecision" stroke-miterlimit="1.45" stroke-width="2" shape-rendering="geometricPrecision" transform="matrix(1,0,0,1,660,-99)" stroke-linecap="butt">
      <rect x="-324.3813" y="271.0723" clip-path="url(#clipPath2)" fill="none" width="30" rx="4" ry="4" height="30"/>
      <text x="-316.2453" y="290.7284" clip-path="url(#clipPath2)" font-family="sans-serif" stroke="none" stroke-width="1" xml:space="preserve">50</text>
    </g>
    <g fill="white" text-rendering="geometricPrecision" shape-rendering="geometricPrecision" transform="matrix(1,0,0,1,660,-99)" stroke="white">
      <rect x="-644.8008" y="271.0723" clip-path="url(#clipPath2)" width="30" rx="4" ry="4" height="30" stroke="none"/>
    </g>
    <g text-rendering="geometricPrecision" stroke-miterlimit="1.45" stroke-width="2" shape-rendering="geometricPrecision" transform="matrix(1,0,0,1,660,-99)" stroke-linecap="butt">
      <rect x="-644.8008" y="271.0723" clip-path="url(#clipPath2)" fill="none" width="30" rx="4" ry="4" height="30"/>
      <text x="-633.2328" y="290.7284" clip-path="url(#clipPath2)" font-family="sans-serif" stroke="none" stroke-width="1" xml:space="preserve">1</text>
    </g>
    <g fill="white" text-rendering="geometricPrecision" shape-rendering="geometricPrecision" transform="matrix(1,0,0,1,660,-99)" stroke="white">
      <rect x="-603.3615" y="322.9123" clip-path="url(#clipPath2)" width="30" rx="4" ry="4" height="30" stroke="none"/>
    </g>
    <g text-rendering="geometricPrecision" stroke-miterlimit="1.45" stroke-width="2" shape-rendering="geometricPrecision" transform="matrix(1,0,0,1,660,-99)" stroke-linecap="butt">
      <rect x="-603.3615" y="322.9123" clip-path="url(#clipPath2)" fill="none" width="30" rx="4" ry="4" height="30"/>
      <text x="-591.7935" y="342.5684" clip-path="url(#clipPath2)" font-family="sans-serif" stroke="none" stroke-width="1" xml:space="preserve">5</text>
    </g>
    <g fill="white" text-rendering="geometricPrecision" shape-rendering="geometricPrecision" transform="matrix(1,0,0,1,660,-99)" stroke="white">
      <rect x="-504.3606" y="271.0723" clip-path="url(#clipPath2)" width="30" rx="4" ry="4" height="30" stroke="none"/>
    </g>
    <g text-rendering="geometricPrecision" stroke-miterlimit="1.45" stroke-width="2" shape-rendering="geometricPrecision" transform="matrix(1,0,0,1,660,-99)" stroke-linecap="butt">
      <rect x="-504.3606" y="271.0723" clip-path="url(#clipPath2)" fill="none" width="30" rx="4" ry="4" height="30"/>
      <text x="-496.2246" y="290.7284" clip-path="url(#clipPath2)" font-family="sans-serif" stroke="none" stroke-width="1" xml:space="preserve">22</text>
    </g>
    <g fill="white" text-rendering="geometricPrecision" shape-rendering="geometricPrecision" transform="matrix(1,0,0,1,660,-99)" stroke="white">
      <rect x="-260.8619" y="325.6026" clip-path="url(#clipPath2)" width="30" rx="4" ry="4" height="30" stroke="none"/>
    </g>
    <g text-rendering="geometricPrecision" stroke-miterlimit="1.45" stroke-width="2" shape-rendering="geometricPrecision" transform="matrix(1,0,0,1,660,-99)" stroke-linecap="butt">
      <rect x="-260.8619" y="325.6026" clip-path="url(#clipPath2)" fill="none" width="30" rx="4" ry="4" height="30"/>
      <text x="-252.7259" y="345.2586" clip-path="url(#clipPath2)" font-family="sans-serif" stroke="none" stroke-width="1" xml:space="preserve">51</text>
    </g>
    <g fill="white" text-rendering="geometricPrecision" shape-rendering="geometricPrecision" transform="matrix(1,0,0,1,660,-99)" stroke="white">
      <rect x="-208.182" y="379.1328" clip-path="url(#clipPath2)" width="30" rx="4" ry="4" height="30" stroke="none"/>
    </g>
    <g text-rendering="geometricPrecision" stroke-miterlimit="1.45" stroke-width="2" shape-rendering="geometricPrecision" transform="matrix(1,0,0,1,660,-99)" stroke-linecap="butt">
      <rect x="-208.182" y="379.1328" clip-path="url(#clipPath2)" fill="none" width="30" rx="4" ry="4" height="30"/>
      <text x="-200.0461" y="398.7888" clip-path="url(#clipPath2)" font-family="sans-serif" stroke="none" stroke-width="1" xml:space="preserve">55</text>
    </g>
    <g fill="white" text-rendering="geometricPrecision" shape-rendering="geometricPrecision" transform="matrix(1,0,0,1,660,-99)" stroke="white">
      <rect x="-550.6397" y="322.9123" clip-path="url(#clipPath2)" width="30" rx="4" ry="4" height="30" stroke="none"/>
    </g>
    <g text-rendering="geometricPrecision" stroke-miterlimit="1.45" stroke-width="2" shape-rendering="geometricPrecision" transform="matrix(1,0,0,1,660,-99)" stroke-linecap="butt">
      <rect x="-550.6397" y="322.9123" clip-path="url(#clipPath2)" fill="none" width="30" rx="4" ry="4" height="30"/>
      <text x="-542.5037" y="342.5684" clip-path="url(#clipPath2)" font-family="sans-serif" stroke="none" stroke-width="1" xml:space="preserve">17</text>
    </g>
    <g fill="white" text-rendering="geometricPrecision" shape-rendering="geometricPrecision" transform="matrix(1,0,0,1,660,-99)" stroke="white">
      <rect x="-504.3606" y="374.9132" clip-path="url(#clipPath2)" width="30" rx="4" ry="4" height="30" stroke="none"/>
    </g>
    <g text-rendering="geometricPrecision" stroke-miterlimit="1.45" stroke-width="2" shape-rendering="geometricPrecision" transform="matrix(1,0,0,1,660,-99)" stroke-linecap="butt">
      <rect x="-504.3606" y="374.9132" clip-path="url(#clipPath2)" fill="none" width="30" rx="4" ry="4" height="30"/>
      <text x="-496.2246" y="394.5692" clip-path="url(#clipPath2)" font-family="sans-serif" stroke="none" stroke-width="1" xml:space="preserve">20</text>
      <path fill="none" d="M-244.2596 182.8386 L-336.8398 219.6258" stroke-width="1" clip-path="url(#clipPath2)"/>
      <path d="M-344.2744 222.5799 L-331.2762 222.7953 L-335.9105 219.2565 L-334.9689 213.5021 Z" stroke-width="1" clip-path="url(#clipPath2)" stroke="none"/>
      <path fill="none" d="M-504.3767 193.4188 L-534.7313 213.933" stroke-width="1" clip-path="url(#clipPath2)"/>
      <path d="M-541.3595 218.4125 L-528.6174 215.8359 L-533.9027 213.3731 L-534.2168 207.5506 Z" stroke-width="1" clip-path="url(#clipPath2)" stroke="none"/>
      <path fill="none" d="M-474.3899 194.5685 L-450.7194 212.4319" stroke-width="1" clip-path="url(#clipPath2)"/>
      <path d="M-444.3337 217.2509 L-450.9003 206.0313 L-451.5176 211.8295 L-456.9241 214.0134 Z" stroke-width="1" clip-path="url(#clipPath2)" stroke="none"/>
      <path fill="none" d="M-374.3197 135.6134 L-466.9436 173.9841" stroke-width="1" clip-path="url(#clipPath2)"/>
      <path d="M-474.3345 177.0459 L-461.3345 177.0725 L-466.0197 173.6014 L-465.1618 167.8339 Z" stroke-width="1" clip-path="url(#clipPath2)" stroke="none"/>
      <path fill="none" d="M-344.2814 134.8743 L-251.7815 168.6419" stroke-width="1" clip-path="url(#clipPath2)"/>
      <path d="M-244.2666 171.3853 L-253.8243 162.5734 L-252.7208 168.299 L-257.2535 171.9671 Z" stroke-width="1" clip-path="url(#clipPath2)" stroke="none"/>
      <path fill="none" d="M-346.6013 243.1839 L-327.3283 265.3921" stroke-width="1" clip-path="url(#clipPath2)"/>
      <path d="M-322.0848 271.4341 L-326.1737 259.0939 L-327.9837 264.6369 L-333.7263 265.6483 Z" stroke-width="1" clip-path="url(#clipPath2)" stroke="none"/>
      <path fill="none" d="M-571.3141 240.2628 L-608.5669 269.4409" stroke-width="1" clip-path="url(#clipPath2)"/>
      <path d="M-614.865 274.3739 L-602.3348 270.9108 L-607.7797 268.8243 L-608.501 263.0382 Z" stroke-width="1" clip-path="url(#clipPath2)" stroke="none"/>
      <path fill="none" d="M-617.8829 300.9814 L-605.2632 316.7685" stroke-width="1" clip-path="url(#clipPath2)"/>
      <path d="M-600.2681 323.0173 L-603.8553 310.5221 L-605.8876 315.9874 L-611.6664 316.766 Z" stroke-width="1" clip-path="url(#clipPath2)" stroke="none"/>
      <path fill="none" d="M-541.6718 241.1616 L-510.1175 268.252" stroke-width="1" clip-path="url(#clipPath2)"/>
      <path d="M-504.0476 273.4631 L-509.8954 261.8527 L-510.8762 267.6006 L-516.4094 269.44 Z" stroke-width="1" clip-path="url(#clipPath2)" stroke="none"/>
      <path fill="none" d="M-294.711 298.6665 L-266.601 322.7984" stroke-width="1" clip-path="url(#clipPath2)"/>
      <path d="M-260.5309 328.0095 L-266.3791 316.3992 L-267.3597 322.1471 L-272.8929 323.9867 Z" stroke-width="1" clip-path="url(#clipPath2)" stroke="none"/>
      <path fill="none" d="M-232.1517 354.534 L-212.5127 374.49" stroke-width="1" clip-path="url(#clipPath2)"/>
      <path d="M-206.9014 380.192 L-211.7547 368.1319 L-213.2142 373.7773 L-218.8821 375.1461 Z" stroke-width="1" clip-path="url(#clipPath2)" stroke="none"/>
      <path fill="none" d="M-502.3088 300.5764 L-517.3898 317.4695" stroke-width="1" clip-path="url(#clipPath2)"/>
      <path d="M-522.7175 323.4374 L-510.996 317.8153 L-516.7238 316.7235 L-518.4559 311.1557 Z" stroke-width="1" clip-path="url(#clipPath2)" stroke="none"/>
      <path fill="none" d="M-522.7367 352.4106 L-507.6189 369.3976" stroke-width="1" clip-path="url(#clipPath2)"/>
      <path d="M-502.3004 375.3736 L-506.5431 363.0854 L-508.2837 368.6505 L-514.0132 369.7336 Z" stroke-width="1" clip-path="url(#clipPath2)" stroke="none"/>
    </g>
  </g>
</svg>
