<?xml version="1.0" encoding="UTF-8"?><svg xmlns="http://www.w3.org/2000/svg" xmlns:xlink="http://www.w3.org/1999/xlink" fill-opacity="1" color-rendering="auto" color-interpolation="auto" text-rendering="auto" stroke="black" stroke-linecap="square" width="564" stroke-miterlimit="10" shape-rendering="auto" stroke-opacity="1" fill="black" stroke-dasharray="none" font-weight="normal" stroke-width="1" height="199" font-family="'Dialog'" font-style="normal" stroke-linejoin="miter" font-size="12px" stroke-dashoffset="0" image-rendering="auto">
  <!--Generated by ySVG 2.5-->
  <defs id="genericDefs"/>
  <g>
    <defs id="defs1">
      <clipPath clipPathUnits="userSpaceOnUse" id="clipPath1">
        <path d="M0 0 L564 0 L564 199 L0 199 L0 0 Z"/>
      </clipPath>
      <clipPath clipPathUnits="userSpaceOnUse" id="clipPath2">
        <path d="M700 432 L1264 432 L1264 631 L700 631 L700 432 Z"/>
      </clipPath>
    </defs>
    <g fill="white" text-rendering="geometricPrecision" shape-rendering="geometricPrecision" transform="translate(-700,-432)" stroke="white">
      <rect x="700" width="564" height="199" y="432" clip-path="url(#clipPath2)" stroke="none"/>
    </g>
    <g fill="white" text-rendering="geometricPrecision" shape-rendering="geometricPrecision" transform="matrix(1,0,0,1,-700,-432)" stroke="white">
      <rect x="1218.5195" y="585.2666" clip-path="url(#clipPath2)" width="30" rx="4" ry="4" height="30" stroke="none"/>
    </g>
    <g text-rendering="geometricPrecision" stroke-miterlimit="1.45" stroke-width="2" shape-rendering="geometricPrecision" transform="matrix(1,0,0,1,-700,-432)" stroke-linecap="butt">
      <rect x="1218.5195" y="585.2666" clip-path="url(#clipPath2)" fill="none" width="30" rx="4" ry="4" height="30"/>
      <text x="1226.6555" y="604.9227" clip-path="url(#clipPath2)" font-family="sans-serif" stroke="none" stroke-width="1" xml:space="preserve">63</text>
    </g>
    <g fill="white" text-rendering="geometricPrecision" shape-rendering="geometricPrecision" transform="matrix(1,0,0,1,-700,-432)" stroke="white">
      <rect x="1078.4524" y="585.2666" clip-path="url(#clipPath2)" width="30" rx="4" ry="4" height="30" stroke="none"/>
    </g>
    <g text-rendering="geometricPrecision" stroke-miterlimit="1.45" stroke-width="2" shape-rendering="geometricPrecision" transform="matrix(1,0,0,1,-700,-432)" stroke-linecap="butt">
      <rect x="1078.4524" y="585.2666" clip-path="url(#clipPath2)" fill="none" width="30" rx="4" ry="4" height="30"/>
      <text x="1086.5884" y="604.9227" clip-path="url(#clipPath2)" font-family="sans-serif" stroke="none" stroke-width="1" xml:space="preserve">41</text>
    </g>
    <g fill="white" text-rendering="geometricPrecision" shape-rendering="geometricPrecision" transform="matrix(1,0,0,1,-700,-432)" stroke="white">
      <rect x="1003.6954" y="447.2826" clip-path="url(#clipPath2)" width="30" rx="4" ry="4" height="30" stroke="none"/>
    </g>
    <g text-rendering="geometricPrecision" stroke-miterlimit="1.45" stroke-width="2" shape-rendering="geometricPrecision" transform="matrix(1,0,0,1,-700,-432)" stroke-linecap="butt">
      <rect x="1003.6954" y="447.2826" clip-path="url(#clipPath2)" fill="none" width="30" rx="4" ry="4" height="30"/>
      <text x="1011.8314" y="466.9387" clip-path="url(#clipPath2)" font-family="sans-serif" stroke="none" stroke-width="1" xml:space="preserve">23</text>
    </g>
    <g fill="white" text-rendering="geometricPrecision" shape-rendering="geometricPrecision" transform="matrix(1,0,0,1,-700,-432)" stroke="white">
      <rect x="814.6785" y="582.1626" clip-path="url(#clipPath2)" width="30" rx="4" ry="4" height="30" stroke="none"/>
    </g>
    <g text-rendering="geometricPrecision" stroke-miterlimit="1.45" stroke-width="2" shape-rendering="geometricPrecision" transform="matrix(1,0,0,1,-700,-432)" stroke-linecap="butt">
      <rect x="814.6785" y="582.1626" clip-path="url(#clipPath2)" fill="none" width="30" rx="4" ry="4" height="30"/>
      <text x="822.8145" y="601.8187" clip-path="url(#clipPath2)" font-family="sans-serif" stroke="none" stroke-width="1" xml:space="preserve">16</text>
    </g>
    <g fill="white" text-rendering="geometricPrecision" shape-rendering="geometricPrecision" transform="matrix(1,0,0,1,-700,-432)" stroke="white">
      <rect x="1006.9765" y="585.2666" clip-path="url(#clipPath2)" width="30" rx="4" ry="4" height="30" stroke="none"/>
    </g>
    <g text-rendering="geometricPrecision" stroke-miterlimit="1.45" stroke-width="2" shape-rendering="geometricPrecision" transform="matrix(1,0,0,1,-700,-432)" stroke-linecap="butt">
      <rect x="1006.9765" y="585.2666" clip-path="url(#clipPath2)" fill="none" width="30" rx="4" ry="4" height="30"/>
      <text x="1015.1125" y="604.9227" clip-path="url(#clipPath2)" font-family="sans-serif" stroke="none" stroke-width="1" xml:space="preserve">27</text>
    </g>
    <g fill="white" text-rendering="geometricPrecision" shape-rendering="geometricPrecision" transform="matrix(1,0,0,1,-700,-432)" stroke="white">
      <rect x="1043.8414" y="536.9003" clip-path="url(#clipPath2)" width="30" rx="4" ry="4" height="30" stroke="none"/>
    </g>
    <g text-rendering="geometricPrecision" stroke-miterlimit="1.45" stroke-width="2" shape-rendering="geometricPrecision" transform="matrix(1,0,0,1,-700,-432)" stroke-linecap="butt">
      <rect x="1043.8414" y="536.9003" clip-path="url(#clipPath2)" fill="none" width="30" rx="4" ry="4" height="30"/>
      <text x="1051.9773" y="556.5564" clip-path="url(#clipPath2)" font-family="sans-serif" stroke="none" stroke-width="1" xml:space="preserve">31</text>
    </g>
    <g fill="white" text-rendering="geometricPrecision" shape-rendering="geometricPrecision" transform="matrix(1,0,0,1,-700,-432)" stroke="white">
      <rect x="1103.8414" y="490.1803" clip-path="url(#clipPath2)" width="30" rx="4" ry="4" height="30" stroke="none"/>
    </g>
    <g text-rendering="geometricPrecision" stroke-miterlimit="1.45" stroke-width="2" shape-rendering="geometricPrecision" transform="matrix(1,0,0,1,-700,-432)" stroke-linecap="butt">
      <rect x="1103.8414" y="490.1803" clip-path="url(#clipPath2)" fill="none" width="30" rx="4" ry="4" height="30"/>
      <text x="1111.9773" y="509.8364" clip-path="url(#clipPath2)" font-family="sans-serif" stroke="none" stroke-width="1" xml:space="preserve">50</text>
    </g>
    <g fill="white" text-rendering="geometricPrecision" shape-rendering="geometricPrecision" transform="matrix(1,0,0,1,-700,-432)" stroke="white">
      <rect x="715.1585" y="582.1626" clip-path="url(#clipPath2)" width="30" rx="4" ry="4" height="30" stroke="none"/>
    </g>
    <g text-rendering="geometricPrecision" stroke-miterlimit="1.45" stroke-width="2" shape-rendering="geometricPrecision" transform="matrix(1,0,0,1,-700,-432)" stroke-linecap="butt">
      <rect x="715.1585" y="582.1626" clip-path="url(#clipPath2)" fill="none" width="30" rx="4" ry="4" height="30"/>
      <text x="726.7265" y="601.8187" clip-path="url(#clipPath2)" font-family="sans-serif" stroke="none" stroke-width="1" xml:space="preserve">1</text>
    </g>
    <g fill="white" text-rendering="geometricPrecision" shape-rendering="geometricPrecision" transform="matrix(1,0,0,1,-700,-432)" stroke="white">
      <rect x="764.9185" y="536.9003" clip-path="url(#clipPath2)" width="30" rx="4" ry="4" height="30" stroke="none"/>
    </g>
    <g text-rendering="geometricPrecision" stroke-miterlimit="1.45" stroke-width="2" shape-rendering="geometricPrecision" transform="matrix(1,0,0,1,-700,-432)" stroke-linecap="butt">
      <rect x="764.9185" y="536.9003" clip-path="url(#clipPath2)" fill="none" width="30" rx="4" ry="4" height="30"/>
      <text x="776.4865" y="556.5564" clip-path="url(#clipPath2)" font-family="sans-serif" stroke="none" stroke-width="1" xml:space="preserve">5</text>
    </g>
    <g fill="white" text-rendering="geometricPrecision" shape-rendering="geometricPrecision" transform="matrix(1,0,0,1,-700,-432)" stroke="white">
      <rect x="922.7994" y="536.9003" clip-path="url(#clipPath2)" width="30" rx="4" ry="4" height="30" stroke="none"/>
    </g>
    <g text-rendering="geometricPrecision" stroke-miterlimit="1.45" stroke-width="2" shape-rendering="geometricPrecision" transform="matrix(1,0,0,1,-700,-432)" stroke-linecap="butt">
      <rect x="922.7994" y="536.9003" clip-path="url(#clipPath2)" fill="none" width="30" rx="4" ry="4" height="30"/>
      <text x="930.9354" y="556.5564" clip-path="url(#clipPath2)" font-family="sans-serif" stroke="none" stroke-width="1" xml:space="preserve">22</text>
    </g>
    <g fill="white" text-rendering="geometricPrecision" shape-rendering="geometricPrecision" transform="matrix(1,0,0,1,-700,-432)" stroke="white">
      <rect x="1148.486" y="585.2666" clip-path="url(#clipPath2)" width="30" rx="4" ry="4" height="30" stroke="none"/>
    </g>
    <g text-rendering="geometricPrecision" stroke-miterlimit="1.45" stroke-width="2" shape-rendering="geometricPrecision" transform="matrix(1,0,0,1,-700,-432)" stroke-linecap="butt">
      <rect x="1148.486" y="585.2666" clip-path="url(#clipPath2)" fill="none" width="30" rx="4" ry="4" height="30"/>
      <text x="1156.6219" y="604.9227" clip-path="url(#clipPath2)" font-family="sans-serif" stroke="none" stroke-width="1" xml:space="preserve">51</text>
    </g>
    <g fill="white" text-rendering="geometricPrecision" shape-rendering="geometricPrecision" transform="matrix(1,0,0,1,-700,-432)" stroke="white">
      <rect x="1184.2239" y="537.7235" clip-path="url(#clipPath2)" width="30" rx="4" ry="4" height="30" stroke="none"/>
    </g>
    <g text-rendering="geometricPrecision" stroke-miterlimit="1.45" stroke-width="2" shape-rendering="geometricPrecision" transform="matrix(1,0,0,1,-700,-432)" stroke-linecap="butt">
      <rect x="1184.2239" y="537.7235" clip-path="url(#clipPath2)" fill="none" width="30" rx="4" ry="4" height="30"/>
      <text x="1192.3599" y="557.3795" clip-path="url(#clipPath2)" font-family="sans-serif" stroke="none" stroke-width="1" xml:space="preserve">55</text>
    </g>
    <g fill="white" text-rendering="geometricPrecision" shape-rendering="geometricPrecision" transform="matrix(1,0,0,1,-700,-432)" stroke="white">
      <rect x="868.9434" y="493.8923" clip-path="url(#clipPath2)" width="30" rx="4" ry="4" height="30" stroke="none"/>
    </g>
    <g text-rendering="geometricPrecision" stroke-miterlimit="1.45" stroke-width="2" shape-rendering="geometricPrecision" transform="matrix(1,0,0,1,-700,-432)" stroke-linecap="butt">
      <rect x="868.9434" y="493.8923" clip-path="url(#clipPath2)" fill="none" width="30" rx="4" ry="4" height="30"/>
      <text x="877.0793" y="513.5484" clip-path="url(#clipPath2)" font-family="sans-serif" stroke="none" stroke-width="1" xml:space="preserve">17</text>
    </g>
    <g fill="white" text-rendering="geometricPrecision" shape-rendering="geometricPrecision" transform="matrix(1,0,0,1,-700,-432)" stroke="white">
      <rect x="879.7914" y="585.2666" clip-path="url(#clipPath2)" width="30" rx="4" ry="4" height="30" stroke="none"/>
    </g>
    <g text-rendering="geometricPrecision" stroke-miterlimit="1.45" stroke-width="2" shape-rendering="geometricPrecision" transform="matrix(1,0,0,1,-700,-432)" stroke-linecap="butt">
      <rect x="879.7914" y="585.2666" clip-path="url(#clipPath2)" fill="none" width="30" rx="4" ry="4" height="30"/>
      <text x="887.9274" y="604.9227" clip-path="url(#clipPath2)" font-family="sans-serif" stroke="none" stroke-width="1" xml:space="preserve">20</text>
      <path fill="none" d="M1047.4111 566.8967 L1038.2269 578.9463" stroke-width="1" clip-path="url(#clipPath2)"/>
      <path d="M1033.3773 585.3088 L1044.6283 578.796 L1038.8331 578.1509 L1036.6752 572.734 Z" stroke-width="1" clip-path="url(#clipPath2)" stroke="none"/>
      <path fill="none" d="M1069.5728 566.8967 L1078.0464 578.7379" stroke-width="1" clip-path="url(#clipPath2)"/>
      <path d="M1082.7019 585.2437 L1079.7848 572.5753 L1077.4645 577.9246 L1071.6525 578.3947 Z" stroke-width="1" clip-path="url(#clipPath2)" stroke="none"/>
      <path fill="none" d="M1033.6831 468.7026 L1096.4768 495.6004" stroke-width="1" clip-path="url(#clipPath2)"/>
      <path d="M1103.8306 498.7504 L1094.7687 489.4294 L1095.5576 495.2067 L1090.8312 498.6216 Z" stroke-width="1" clip-path="url(#clipPath2)" stroke="none"/>
      <path fill="none" d="M1103.8706 516.8375 L1080.0826 535.3605" stroke-width="1" clip-path="url(#clipPath2)"/>
      <path d="M1073.7705 540.2755 L1086.3105 536.8481 L1080.8716 534.7461 L1080.1667 528.9579 Z" stroke-width="1" clip-path="url(#clipPath2)" stroke="none"/>
      <path fill="none" d="M765.5104 565.0061 L750.4727 578.6846" stroke-width="1" clip-path="url(#clipPath2)"/>
      <path d="M744.5547 584.0676 L756.7961 579.6918 L751.2125 578.0117 L750.0673 572.2943 Z" stroke-width="1" clip-path="url(#clipPath2)" stroke="none"/>
      <path fill="none" d="M794.3265 565.0061 L809.3643 578.6846" stroke-width="1" clip-path="url(#clipPath2)"/>
      <path d="M815.2822 584.0676 L809.7697 572.2943 L808.6245 578.0117 L803.0408 579.6918 Z" stroke-width="1" clip-path="url(#clipPath2)" stroke="none"/>
      <path fill="none" d="M1133.8738 514.0715 L1177.309 539.7617" stroke-width="1" clip-path="url(#clipPath2)"/>
      <path d="M1184.1947 543.8343 L1176.4115 533.4218 L1176.4482 539.2526 L1171.3207 542.0289 Z" stroke-width="1" clip-path="url(#clipPath2)" stroke="none"/>
      <path fill="none" d="M1187.9685 567.6968 L1179.554 578.891" stroke-width="1" clip-path="url(#clipPath2)"/>
      <path d="M1174.7469 585.2858 L1185.9541 578.698 L1180.1548 578.0917 L1177.9607 572.6893 Z" stroke-width="1" clip-path="url(#clipPath2)" stroke="none"/>
      <path fill="none" d="M1210.0585 567.7432 L1218.0023 578.7555" stroke-width="1" clip-path="url(#clipPath2)"/>
      <path d="M1222.6826 585.2435 L1219.7173 572.5862 L1217.4174 577.9445 L1211.6072 578.4366 Z" stroke-width="1" clip-path="url(#clipPath2)" stroke="none"/>
      <path fill="none" d="M1003.7266 467.4602 L906.506 501.0881" stroke-width="1" clip-path="url(#clipPath2)"/>
      <path d="M898.9456 503.7032 L911.9208 504.5059 L907.4511 500.7612 L908.6519 495.0552 Z" stroke-width="1" clip-path="url(#clipPath2)" stroke="none"/>
      <path fill="none" d="M898.8537 520.7993 L916.6772 535.0327" stroke-width="1" clip-path="url(#clipPath2)"/>
      <path d="M922.9285 540.0248 L916.6717 528.6296 L915.8958 534.4087 L910.4315 536.4437 Z" stroke-width="1" clip-path="url(#clipPath2)" stroke="none"/>
      <path fill="none" d="M868.934 515.0978 L802.3068 542.6441" stroke-width="1" clip-path="url(#clipPath2)"/>
      <path d="M794.9138 545.7007 L807.9137 545.7365 L803.231 542.262 L804.093 536.4952 Z" stroke-width="1" clip-path="url(#clipPath2)" stroke="none"/>
      <path fill="none" d="M924.8844 566.4244 L913.0086 579.7798" stroke-width="1" clip-path="url(#clipPath2)"/>
      <path d="M907.6926 585.7581 L919.403 580.1131 L913.6731 579.0325 L911.9301 573.4681 Z" stroke-width="1" clip-path="url(#clipPath2)" stroke="none"/>
    </g>
  </g>
</svg>
