<?xml version="1.0" encoding="UTF-8"?><svg xmlns="http://www.w3.org/2000/svg" xmlns:xlink="http://www.w3.org/1999/xlink" fill-opacity="1" color-rendering="auto" color-interpolation="auto" text-rendering="auto" stroke="black" stroke-linecap="square" width="445" stroke-miterlimit="10" shape-rendering="auto" stroke-opacity="1" fill="black" stroke-dasharray="none" font-weight="normal" stroke-width="1" height="358" font-family="'Dialog'" font-style="normal" stroke-linejoin="miter" font-size="12px" stroke-dashoffset="0" image-rendering="auto">
  <!--Generated by ySVG 2.5-->
  <defs id="genericDefs"/>
  <g>
    <defs id="defs1">
      <clipPath clipPathUnits="userSpaceOnUse" id="clipPath1">
        <path d="M0 0 L445 0 L445 358 L0 358 L0 0 Z"/>
      </clipPath>
      <clipPath clipPathUnits="userSpaceOnUse" id="clipPath2">
        <path d="M182 537 L627 537 L627 895 L182 895 L182 537 Z"/>
      </clipPath>
    </defs>
    <g fill="white" text-rendering="geometricPrecision" shape-rendering="geometricPrecision" transform="translate(-182,-537)" stroke="white">
      <rect x="182" width="445" height="358" y="537" clip-path="url(#clipPath2)" stroke="none"/>
    </g>
    <g fill="white" text-rendering="geometricPrecision" shape-rendering="geometricPrecision" transform="matrix(1,0,0,1,-182,-537)" stroke="white">
      <rect x="270.6163" y="552.2404" clip-path="url(#clipPath2)" width="30" rx="4" ry="4" height="30" stroke="none"/>
    </g>
    <g text-rendering="geometricPrecision" stroke-miterlimit="1.45" stroke-width="2" shape-rendering="geometricPrecision" transform="matrix(1,0,0,1,-182,-537)" stroke-linecap="butt">
      <rect x="270.6163" y="552.2404" clip-path="url(#clipPath2)" fill="none" width="30" rx="4" ry="4" height="30"/>
      <text x="278.7523" y="571.8965" clip-path="url(#clipPath2)" font-family="sans-serif" stroke="none" stroke-width="1" xml:space="preserve">10</text>
    </g>
    <g fill="white" text-rendering="geometricPrecision" shape-rendering="geometricPrecision" transform="matrix(1,0,0,1,-182,-537)" stroke="white">
      <rect x="341.8163" y="599.4404" clip-path="url(#clipPath2)" width="30" rx="4" ry="4" height="30" stroke="none"/>
    </g>
    <g text-rendering="geometricPrecision" stroke-miterlimit="1.45" stroke-width="2" shape-rendering="geometricPrecision" transform="matrix(1,0,0,1,-182,-537)" stroke-linecap="butt">
      <rect x="341.8163" y="599.4404" clip-path="url(#clipPath2)" fill="none" width="30" rx="4" ry="4" height="30"/>
      <text x="349.9523" y="619.0965" clip-path="url(#clipPath2)" font-family="sans-serif" stroke="none" stroke-width="1" xml:space="preserve">15</text>
    </g>
    <g fill="white" text-rendering="geometricPrecision" shape-rendering="geometricPrecision" transform="matrix(1,0,0,1,-182,-537)" stroke="white">
      <rect x="341.8163" y="724.9264" clip-path="url(#clipPath2)" width="30" rx="4" ry="4" height="30" stroke="none"/>
    </g>
    <g text-rendering="geometricPrecision" stroke-miterlimit="1.45" stroke-width="2" shape-rendering="geometricPrecision" transform="matrix(1,0,0,1,-182,-537)" stroke-linecap="butt">
      <rect x="341.8163" y="724.9264" clip-path="url(#clipPath2)" fill="none" width="30" rx="4" ry="4" height="30"/>
      <text x="349.9523" y="744.5825" clip-path="url(#clipPath2)" font-family="sans-serif" stroke="none" stroke-width="1" xml:space="preserve">18</text>
    </g>
    <g fill="white" text-rendering="geometricPrecision" shape-rendering="geometricPrecision" transform="matrix(1,0,0,1,-182,-537)" stroke="white">
      <rect x="521.8163" y="784.9264" clip-path="url(#clipPath2)" width="30" rx="4" ry="4" height="30" stroke="none"/>
    </g>
    <g text-rendering="geometricPrecision" stroke-miterlimit="1.45" stroke-width="2" shape-rendering="geometricPrecision" transform="matrix(1,0,0,1,-182,-537)" stroke-linecap="butt">
      <rect x="521.8163" y="784.9264" clip-path="url(#clipPath2)" fill="none" width="30" rx="4" ry="4" height="30"/>
      <text x="529.9523" y="804.5825" clip-path="url(#clipPath2)" font-family="sans-serif" stroke="none" stroke-width="1" xml:space="preserve">68</text>
    </g>
    <g fill="white" text-rendering="geometricPrecision" shape-rendering="geometricPrecision" transform="matrix(1,0,0,1,-182,-537)" stroke="white">
      <rect x="197.4963" y="612.2404" clip-path="url(#clipPath2)" width="30" rx="4" ry="4" height="30" stroke="none"/>
    </g>
    <g text-rendering="geometricPrecision" stroke-miterlimit="1.45" stroke-width="2" shape-rendering="geometricPrecision" transform="matrix(1,0,0,1,-182,-537)" stroke-linecap="butt">
      <rect x="197.4963" y="612.2404" clip-path="url(#clipPath2)" fill="none" width="30" rx="4" ry="4" height="30"/>
      <text x="209.0643" y="631.8965" clip-path="url(#clipPath2)" font-family="sans-serif" stroke="none" stroke-width="1" xml:space="preserve">1</text>
    </g>
    <g fill="white" text-rendering="geometricPrecision" shape-rendering="geometricPrecision" transform="matrix(1,0,0,1,-182,-537)" stroke="white">
      <rect x="245.2838" y="668.4119" clip-path="url(#clipPath2)" width="30" rx="4" ry="4" height="30" stroke="none"/>
    </g>
    <g text-rendering="geometricPrecision" stroke-miterlimit="1.45" stroke-width="2" shape-rendering="geometricPrecision" transform="matrix(1,0,0,1,-182,-537)" stroke-linecap="butt">
      <rect x="245.2838" y="668.4119" clip-path="url(#clipPath2)" fill="none" width="30" rx="4" ry="4" height="30"/>
      <text x="256.8518" y="688.0679" clip-path="url(#clipPath2)" font-family="sans-serif" stroke="none" stroke-width="1" xml:space="preserve">9</text>
    </g>
    <g fill="white" text-rendering="geometricPrecision" shape-rendering="geometricPrecision" transform="matrix(1,0,0,1,-182,-537)" stroke="white">
      <rect x="581.8163" y="849.9839" clip-path="url(#clipPath2)" width="30" rx="4" ry="4" height="30" stroke="none"/>
    </g>
    <g text-rendering="geometricPrecision" stroke-miterlimit="1.45" stroke-width="2" shape-rendering="geometricPrecision" transform="matrix(1,0,0,1,-182,-537)" stroke-linecap="butt">
      <rect x="581.8163" y="849.9839" clip-path="url(#clipPath2)" fill="none" width="30" rx="4" ry="4" height="30"/>
      <text x="589.9523" y="869.6399" clip-path="url(#clipPath2)" font-family="sans-serif" stroke="none" stroke-width="1" xml:space="preserve">94</text>
    </g>
    <g fill="white" text-rendering="geometricPrecision" shape-rendering="geometricPrecision" transform="matrix(1,0,0,1,-182,-537)" stroke="white">
      <rect x="401.8163" y="668.4119" clip-path="url(#clipPath2)" width="30" rx="4" ry="4" height="30" stroke="none"/>
    </g>
    <g text-rendering="geometricPrecision" stroke-miterlimit="1.45" stroke-width="2" shape-rendering="geometricPrecision" transform="matrix(1,0,0,1,-182,-537)" stroke-linecap="butt">
      <rect x="401.8163" y="668.4119" clip-path="url(#clipPath2)" fill="none" width="30" rx="4" ry="4" height="30"/>
      <text x="409.9523" y="688.0679" clip-path="url(#clipPath2)" font-family="sans-serif" stroke="none" stroke-width="1" xml:space="preserve">19</text>
    </g>
    <g fill="white" text-rendering="geometricPrecision" shape-rendering="geometricPrecision" transform="matrix(1,0,0,1,-182,-537)" stroke="white">
      <rect x="197.4963" y="724.9264" clip-path="url(#clipPath2)" width="30" rx="4" ry="4" height="30" stroke="none"/>
    </g>
    <g text-rendering="geometricPrecision" stroke-miterlimit="1.45" stroke-width="2" shape-rendering="geometricPrecision" transform="matrix(1,0,0,1,-182,-537)" stroke-linecap="butt">
      <rect x="197.4963" y="724.9264" clip-path="url(#clipPath2)" fill="none" width="30" rx="4" ry="4" height="30"/>
      <text x="209.0643" y="744.5825" clip-path="url(#clipPath2)" font-family="sans-serif" stroke="none" stroke-width="1" xml:space="preserve">3</text>
    </g>
    <g fill="white" text-rendering="geometricPrecision" shape-rendering="geometricPrecision" transform="matrix(1,0,0,1,-182,-537)" stroke="white">
      <rect x="461.8163" y="724.9264" clip-path="url(#clipPath2)" width="30" rx="4" ry="4" height="30" stroke="none"/>
    </g>
    <g text-rendering="geometricPrecision" stroke-miterlimit="1.45" stroke-width="2" shape-rendering="geometricPrecision" transform="matrix(1,0,0,1,-182,-537)" stroke-linecap="butt">
      <rect x="461.8163" y="724.9264" clip-path="url(#clipPath2)" fill="none" width="30" rx="4" ry="4" height="30"/>
      <text x="469.9523" y="744.5825" clip-path="url(#clipPath2)" font-family="sans-serif" stroke="none" stroke-width="1" xml:space="preserve">49</text>
    </g>
    <g fill="white" text-rendering="geometricPrecision" shape-rendering="geometricPrecision" transform="matrix(1,0,0,1,-182,-537)" stroke="white">
      <rect x="405.1126" y="784.9264" clip-path="url(#clipPath2)" width="30" rx="4" ry="4" height="30" stroke="none"/>
    </g>
    <g text-rendering="geometricPrecision" stroke-miterlimit="1.45" stroke-width="2" shape-rendering="geometricPrecision" transform="matrix(1,0,0,1,-182,-537)" stroke-linecap="butt">
      <rect x="405.1126" y="784.9264" clip-path="url(#clipPath2)" fill="none" width="30" rx="4" ry="4" height="30"/>
      <text x="413.2486" y="804.5825" clip-path="url(#clipPath2)" font-family="sans-serif" stroke="none" stroke-width="1" xml:space="preserve">21</text>
    </g>
    <g fill="white" text-rendering="geometricPrecision" shape-rendering="geometricPrecision" transform="matrix(1,0,0,1,-182,-537)" stroke="white">
      <rect x="281.8163" y="784.9264" clip-path="url(#clipPath2)" width="30" rx="4" ry="4" height="30" stroke="none"/>
    </g>
    <g text-rendering="geometricPrecision" stroke-miterlimit="1.45" stroke-width="2" shape-rendering="geometricPrecision" transform="matrix(1,0,0,1,-182,-537)" stroke-linecap="butt">
      <rect x="281.8163" y="784.9264" clip-path="url(#clipPath2)" fill="none" width="30" rx="4" ry="4" height="30"/>
      <text x="289.9523" y="804.5825" clip-path="url(#clipPath2)" font-family="sans-serif" stroke="none" stroke-width="1" xml:space="preserve">17</text>
    </g>
    <g fill="white" text-rendering="geometricPrecision" shape-rendering="geometricPrecision" transform="matrix(1,0,0,1,-182,-537)" stroke="white">
      <rect x="477.2797" y="849.9839" clip-path="url(#clipPath2)" width="30" rx="4" ry="4" height="30" stroke="none"/>
    </g>
    <g text-rendering="geometricPrecision" stroke-miterlimit="1.45" stroke-width="2" shape-rendering="geometricPrecision" transform="matrix(1,0,0,1,-182,-537)" stroke-linecap="butt">
      <rect x="477.2797" y="849.9839" clip-path="url(#clipPath2)" fill="none" width="30" rx="4" ry="4" height="30"/>
      <text x="485.4156" y="869.6399" clip-path="url(#clipPath2)" font-family="sans-serif" stroke="none" stroke-width="1" xml:space="preserve">50</text>
      <path fill="none" d="M300.6003 577.1736 L335.1337 600.0665" stroke-width="1" clip-path="url(#clipPath2)"/>
      <path d="M341.8016 604.4869 L334.5625 593.689 L334.3002 599.514 L329.037 602.0238 Z" stroke-width="1" clip-path="url(#clipPath2)" stroke="none"/>
      <path fill="none" d="M270.7995 579.3986 L233.5128 609.995" stroke-width="1" clip-path="url(#clipPath2)"/>
      <path d="M227.3284 615.0698 L239.7767 611.3229 L234.2858 609.3607 L233.4332 603.5923 Z" stroke-width="1" clip-path="url(#clipPath2)" stroke="none"/>
      <path fill="none" d="M225.0265 641.969 L242.5843 662.6072" stroke-width="1" clip-path="url(#clipPath2)"/>
      <path d="M247.7682 668.7005 L243.8007 656.3207 L241.9364 661.8456 L236.1841 662.8005 Z" stroke-width="1" clip-path="url(#clipPath2)" stroke="none"/>
      <path fill="none" d="M550.0292 814.253 L578.1653 844.7607" stroke-width="1" clip-path="url(#clipPath2)"/>
      <path d="M583.5889 850.6415 L579.129 838.4305 L577.4873 844.0256 L571.778 845.21 Z" stroke-width="1" clip-path="url(#clipPath2)" stroke="none"/>
      <path fill="none" d="M369.5019 629.0228 L398.836 662.7432" stroke-width="1" clip-path="url(#clipPath2)"/>
      <path d="M404.0867 668.7789 L399.9831 656.4436 L398.1797 661.9887 L392.4384 663.007 Z" stroke-width="1" clip-path="url(#clipPath2)" stroke="none"/>
      <path fill="none" d="M402.6073 696.7955 L376.8377 721.0681" stroke-width="1" clip-path="url(#clipPath2)"/>
      <path d="M371.0142 726.5533 L383.1777 721.9652 L377.5656 720.3824 L376.3212 714.6859 Z" stroke-width="1" clip-path="url(#clipPath2)" stroke="none"/>
      <path fill="none" d="M247.8469 698.1201 L230.107 719.0996" stroke-width="1" clip-path="url(#clipPath2)"/>
      <path d="M224.9415 725.2084 L236.5078 719.2736 L230.7527 718.336 L228.8717 712.8168 Z" stroke-width="1" clip-path="url(#clipPath2)" stroke="none"/>
      <path fill="none" d="M431.0253 696.7955 L456.795 721.0681" stroke-width="1" clip-path="url(#clipPath2)"/>
      <path d="M462.6184 726.5533 L457.3114 714.6859 L456.067 720.3824 L450.455 721.9652 Z" stroke-width="1" clip-path="url(#clipPath2)" stroke="none"/>
      <path fill="none" d="M490.6737 753.7838 L517.3482 780.4583" stroke-width="1" clip-path="url(#clipPath2)"/>
      <path d="M523.0051 786.1152 L518.0553 774.0944 L516.6411 779.7512 L510.9843 781.1654 Z" stroke-width="1" clip-path="url(#clipPath2)" stroke="none"/>
      <path fill="none" d="M463.3879 754.1354 L439.0254 779.9142" stroke-width="1" clip-path="url(#clipPath2)"/>
      <path d="M433.5305 785.7285 L445.4068 780.4413 L439.7122 779.1874 L438.1389 773.5728 Z" stroke-width="1" clip-path="url(#clipPath2)" stroke="none"/>
      <path fill="none" d="M342.9589 753.7838 L316.2844 780.4583" stroke-width="1" clip-path="url(#clipPath2)"/>
      <path d="M310.6275 786.1152 L322.6483 781.1654 L316.9915 779.7512 L315.5773 774.0944 Z" stroke-width="1" clip-path="url(#clipPath2)" stroke="none"/>
      <path fill="none" d="M526.5303 814.9519 L507.084 843.3583" stroke-width="1" clip-path="url(#clipPath2)"/>
      <path d="M502.5649 849.9596 L513.4694 842.882 L507.6489 842.5331 L505.2177 837.2332 Z" stroke-width="1" clip-path="url(#clipPath2)" stroke="none"/>
    </g>
  </g>
</svg>
