<?xml version="1.0" encoding="UTF-8"?><svg xmlns="http://www.w3.org/2000/svg" xmlns:xlink="http://www.w3.org/1999/xlink" fill-opacity="1" color-rendering="auto" color-interpolation="auto" text-rendering="auto" stroke="black" stroke-linecap="square" width="457" stroke-miterlimit="10" shape-rendering="auto" stroke-opacity="1" fill="black" stroke-dasharray="none" font-weight="normal" stroke-width="1" height="293" font-family="'Dialog'" font-style="normal" stroke-linejoin="miter" font-size="12px" stroke-dashoffset="0" image-rendering="auto">
  <!--Generated by ySVG 2.5-->
  <defs id="genericDefs"/>
  <g>
    <defs id="defs1">
      <clipPath clipPathUnits="userSpaceOnUse" id="clipPath1">
        <path d="M0 0 L457 0 L457 293 L0 293 L0 0 Z"/>
      </clipPath>
      <clipPath clipPathUnits="userSpaceOnUse" id="clipPath2">
        <path d="M442 558 L899 558 L899 851 L442 851 L442 558 Z"/>
      </clipPath>
    </defs>
    <g fill="white" text-rendering="geometricPrecision" shape-rendering="geometricPrecision" transform="translate(-442,-558)" stroke="white">
      <rect x="442" width="457" height="293" y="558" clip-path="url(#clipPath2)" stroke="none"/>
    </g>
    <g fill="white" text-rendering="geometricPrecision" shape-rendering="geometricPrecision" transform="matrix(1,0,0,1,-442,-558)" stroke="white">
      <rect x="577.2326" y="689.4924" clip-path="url(#clipPath2)" width="30" rx="4" ry="4" height="30" stroke="none"/>
    </g>
    <g text-rendering="geometricPrecision" stroke-miterlimit="1.45" stroke-width="2" shape-rendering="geometricPrecision" transform="matrix(1,0,0,1,-442,-558)" stroke-linecap="butt">
      <rect x="577.2326" y="689.4924" clip-path="url(#clipPath2)" fill="none" width="30" rx="4" ry="4" height="30"/>
      <text x="585.3686" y="709.1484" clip-path="url(#clipPath2)" font-family="sans-serif" stroke="none" stroke-width="1" xml:space="preserve">10</text>
    </g>
    <g fill="white" text-rendering="geometricPrecision" shape-rendering="geometricPrecision" transform="matrix(1,0,0,1,-442,-558)" stroke="white">
      <rect x="584.2726" y="573.4809" clip-path="url(#clipPath2)" width="30" rx="4" ry="4" height="30" stroke="none"/>
    </g>
    <g text-rendering="geometricPrecision" stroke-miterlimit="1.45" stroke-width="2" shape-rendering="geometricPrecision" transform="matrix(1,0,0,1,-442,-558)" stroke-linecap="butt">
      <rect x="584.2726" y="573.4809" clip-path="url(#clipPath2)" fill="none" width="30" rx="4" ry="4" height="30"/>
      <text x="592.4086" y="593.1369" clip-path="url(#clipPath2)" font-family="sans-serif" stroke="none" stroke-width="1" xml:space="preserve">15</text>
    </g>
    <g fill="white" text-rendering="geometricPrecision" shape-rendering="geometricPrecision" transform="matrix(1,0,0,1,-442,-558)" stroke="white">
      <rect x="607.766" y="753.3983" clip-path="url(#clipPath2)" width="30" rx="4" ry="4" height="30" stroke="none"/>
    </g>
    <g text-rendering="geometricPrecision" stroke-miterlimit="1.45" stroke-width="2" shape-rendering="geometricPrecision" transform="matrix(1,0,0,1,-442,-558)" stroke-linecap="butt">
      <rect x="607.766" y="753.3983" clip-path="url(#clipPath2)" fill="none" width="30" rx="4" ry="4" height="30"/>
      <text x="615.9019" y="773.0544" clip-path="url(#clipPath2)" font-family="sans-serif" stroke="none" stroke-width="1" xml:space="preserve">18</text>
    </g>
    <g fill="white" text-rendering="geometricPrecision" shape-rendering="geometricPrecision" transform="matrix(1,0,0,1,-442,-558)" stroke="white">
      <rect x="808.2968" y="689.4924" clip-path="url(#clipPath2)" width="30" rx="4" ry="4" height="30" stroke="none"/>
    </g>
    <g text-rendering="geometricPrecision" stroke-miterlimit="1.45" stroke-width="2" shape-rendering="geometricPrecision" transform="matrix(1,0,0,1,-442,-558)" stroke-linecap="butt">
      <rect x="808.2968" y="689.4924" clip-path="url(#clipPath2)" fill="none" width="30" rx="4" ry="4" height="30"/>
      <text x="816.4327" y="709.1484" clip-path="url(#clipPath2)" font-family="sans-serif" stroke="none" stroke-width="1" xml:space="preserve">68</text>
    </g>
    <g fill="white" text-rendering="geometricPrecision" shape-rendering="geometricPrecision" transform="matrix(1,0,0,1,-442,-558)" stroke="white">
      <rect x="457.2326" y="689.4924" clip-path="url(#clipPath2)" width="30" rx="4" ry="4" height="30" stroke="none"/>
    </g>
    <g text-rendering="geometricPrecision" stroke-miterlimit="1.45" stroke-width="2" shape-rendering="geometricPrecision" transform="matrix(1,0,0,1,-442,-558)" stroke-linecap="butt">
      <rect x="457.2326" y="689.4924" clip-path="url(#clipPath2)" fill="none" width="30" rx="4" ry="4" height="30"/>
      <text x="468.8006" y="709.1484" clip-path="url(#clipPath2)" font-family="sans-serif" stroke="none" stroke-width="1" xml:space="preserve">1</text>
    </g>
    <g fill="white" text-rendering="geometricPrecision" shape-rendering="geometricPrecision" transform="matrix(1,0,0,1,-442,-558)" stroke="white">
      <rect x="517.2326" y="629.4924" clip-path="url(#clipPath2)" width="30" rx="4" ry="4" height="30" stroke="none"/>
    </g>
    <g text-rendering="geometricPrecision" stroke-miterlimit="1.45" stroke-width="2" shape-rendering="geometricPrecision" transform="matrix(1,0,0,1,-442,-558)" stroke-linecap="butt">
      <rect x="517.2326" y="629.4924" clip-path="url(#clipPath2)" fill="none" width="30" rx="4" ry="4" height="30"/>
      <text x="528.8006" y="649.1484" clip-path="url(#clipPath2)" font-family="sans-serif" stroke="none" stroke-width="1" xml:space="preserve">9</text>
    </g>
    <g fill="white" text-rendering="geometricPrecision" shape-rendering="geometricPrecision" transform="matrix(1,0,0,1,-442,-558)" stroke="white">
      <rect x="853.926" y="749.4924" clip-path="url(#clipPath2)" width="30" rx="4" ry="4" height="30" stroke="none"/>
    </g>
    <g text-rendering="geometricPrecision" stroke-miterlimit="1.45" stroke-width="2" shape-rendering="geometricPrecision" transform="matrix(1,0,0,1,-442,-558)" stroke-linecap="butt">
      <rect x="853.926" y="749.4924" clip-path="url(#clipPath2)" fill="none" width="30" rx="4" ry="4" height="30"/>
      <text x="862.062" y="769.1484" clip-path="url(#clipPath2)" font-family="sans-serif" stroke="none" stroke-width="1" xml:space="preserve">94</text>
    </g>
    <g fill="white" text-rendering="geometricPrecision" shape-rendering="geometricPrecision" transform="matrix(1,0,0,1,-442,-558)" stroke="white">
      <rect x="672.006" y="689.4924" clip-path="url(#clipPath2)" width="30" rx="4" ry="4" height="30" stroke="none"/>
    </g>
    <g text-rendering="geometricPrecision" stroke-miterlimit="1.45" stroke-width="2" shape-rendering="geometricPrecision" transform="matrix(1,0,0,1,-442,-558)" stroke-linecap="butt">
      <rect x="672.006" y="689.4924" clip-path="url(#clipPath2)" fill="none" width="30" rx="4" ry="4" height="30"/>
      <text x="680.1419" y="709.1484" clip-path="url(#clipPath2)" font-family="sans-serif" stroke="none" stroke-width="1" xml:space="preserve">19</text>
    </g>
    <g fill="white" text-rendering="geometricPrecision" shape-rendering="geometricPrecision" transform="matrix(1,0,0,1,-442,-558)" stroke="white">
      <rect x="498.406" y="740.4068" clip-path="url(#clipPath2)" width="30" rx="4" ry="4" height="30" stroke="none"/>
    </g>
    <g text-rendering="geometricPrecision" stroke-miterlimit="1.45" stroke-width="2" shape-rendering="geometricPrecision" transform="matrix(1,0,0,1,-442,-558)" stroke-linecap="butt">
      <rect x="498.406" y="740.4068" clip-path="url(#clipPath2)" fill="none" width="30" rx="4" ry="4" height="30"/>
      <text x="509.9739" y="760.0629" clip-path="url(#clipPath2)" font-family="sans-serif" stroke="none" stroke-width="1" xml:space="preserve">3</text>
    </g>
    <g fill="white" text-rendering="geometricPrecision" shape-rendering="geometricPrecision" transform="matrix(1,0,0,1,-442,-558)" stroke="white">
      <rect x="727.526" y="629.4924" clip-path="url(#clipPath2)" width="30" rx="4" ry="4" height="30" stroke="none"/>
    </g>
    <g text-rendering="geometricPrecision" stroke-miterlimit="1.45" stroke-width="2" shape-rendering="geometricPrecision" transform="matrix(1,0,0,1,-442,-558)" stroke-linecap="butt">
      <rect x="727.526" y="629.4924" clip-path="url(#clipPath2)" fill="none" width="30" rx="4" ry="4" height="30"/>
      <text x="735.6619" y="649.1484" clip-path="url(#clipPath2)" font-family="sans-serif" stroke="none" stroke-width="1" xml:space="preserve">49</text>
    </g>
    <g fill="white" text-rendering="geometricPrecision" shape-rendering="geometricPrecision" transform="matrix(1,0,0,1,-442,-558)" stroke="white">
      <rect x="722.0568" y="749.4924" clip-path="url(#clipPath2)" width="30" rx="4" ry="4" height="30" stroke="none"/>
    </g>
    <g text-rendering="geometricPrecision" stroke-miterlimit="1.45" stroke-width="2" shape-rendering="geometricPrecision" transform="matrix(1,0,0,1,-442,-558)" stroke-linecap="butt">
      <rect x="722.0568" y="749.4924" clip-path="url(#clipPath2)" fill="none" width="30" rx="4" ry="4" height="30"/>
      <text x="730.1927" y="769.1484" clip-path="url(#clipPath2)" font-family="sans-serif" stroke="none" stroke-width="1" xml:space="preserve">21</text>
    </g>
    <g fill="white" text-rendering="geometricPrecision" shape-rendering="geometricPrecision" transform="matrix(1,0,0,1,-442,-558)" stroke="white">
      <rect x="647.046" y="805.5039" clip-path="url(#clipPath2)" width="30" rx="4" ry="4" height="30" stroke="none"/>
    </g>
    <g text-rendering="geometricPrecision" stroke-miterlimit="1.45" stroke-width="2" shape-rendering="geometricPrecision" transform="matrix(1,0,0,1,-442,-558)" stroke-linecap="butt">
      <rect x="647.046" y="805.5039" clip-path="url(#clipPath2)" fill="none" width="30" rx="4" ry="4" height="30"/>
      <text x="655.1819" y="825.1599" clip-path="url(#clipPath2)" font-family="sans-serif" stroke="none" stroke-width="1" xml:space="preserve">17</text>
    </g>
    <g fill="white" text-rendering="geometricPrecision" shape-rendering="geometricPrecision" transform="matrix(1,0,0,1,-442,-558)" stroke="white">
      <rect x="767.361" y="749.4924" clip-path="url(#clipPath2)" width="30" rx="4" ry="4" height="30" stroke="none"/>
    </g>
    <g text-rendering="geometricPrecision" stroke-miterlimit="1.45" stroke-width="2" shape-rendering="geometricPrecision" transform="matrix(1,0,0,1,-442,-558)" stroke-linecap="butt">
      <rect x="767.361" y="749.4924" clip-path="url(#clipPath2)" fill="none" width="30" rx="4" ry="4" height="30"/>
      <text x="775.4969" y="769.1484" clip-path="url(#clipPath2)" font-family="sans-serif" stroke="none" stroke-width="1" xml:space="preserve">50</text>
      <path fill="none" d="M584.5095 600.8154 L553.1513 627.015" stroke-width="1" clip-path="url(#clipPath2)"/>
      <path d="M547.0121 632.1442 L559.4268 628.2873 L553.9188 626.3738 L553.0151 620.6133 Z" stroke-width="1" clip-path="url(#clipPath2)" stroke="none"/>
      <path fill="none" d="M518.3752 658.3498 L491.7007 685.0243" stroke-width="1" clip-path="url(#clipPath2)"/>
      <path d="M486.0439 690.6812 L498.0647 685.7314 L492.4078 684.3172 L490.9936 678.6603 Z" stroke-width="1" clip-path="url(#clipPath2)" stroke="none"/>
      <path fill="none" d="M546.09 658.3498 L572.7645 685.0243" stroke-width="1" clip-path="url(#clipPath2)"/>
      <path d="M578.4214 690.6812 L573.4716 678.6603 L572.0574 684.3172 L566.4006 685.7314 Z" stroke-width="1" clip-path="url(#clipPath2)" stroke="none"/>
      <path fill="none" d="M834.6818 719.4631 L852.6965 743.1514" stroke-width="1" clip-path="url(#clipPath2)"/>
      <path d="M857.5391 749.5192 L854.255 736.9409 L852.0911 742.3555 L846.2953 742.9942 Z" stroke-width="1" clip-path="url(#clipPath2)" stroke="none"/>
      <path fill="none" d="M673.173 718.2534 L642.2946 748.9713" stroke-width="1" clip-path="url(#clipPath2)"/>
      <path d="M636.623 754.6133 L648.6567 749.6949 L643.0035 748.266 L641.6041 742.6055 Z" stroke-width="1" clip-path="url(#clipPath2)" stroke="none"/>
      <path fill="none" d="M484.275 719.3839 L496.342 734.3057" stroke-width="1" clip-path="url(#clipPath2)"/>
      <path d="M501.3724 740.5262 L497.7146 728.0515 L495.7132 733.5281 L489.9389 734.3395 Z" stroke-width="1" clip-path="url(#clipPath2)" stroke="none"/>
      <path fill="none" d="M614.2765 594.3473 L720.0773 635.715" stroke-width="1" clip-path="url(#clipPath2)"/>
      <path d="M727.5281 638.6282 L718.1728 629.6017 L719.146 635.3509 L714.5312 638.9151 Z" stroke-width="1" clip-path="url(#clipPath2)" stroke="none"/>
      <path fill="none" d="M757.5522 655.6545 L801.8832 688.5854" stroke-width="1" clip-path="url(#clipPath2)"/>
      <path d="M808.3052 693.356 L801.6538 682.1865 L801.0804 687.9891 L795.6906 690.2139 Z" stroke-width="1" clip-path="url(#clipPath2)" stroke="none"/>
      <path fill="none" d="M729.2695 658.8185 L705.6674 684.3252" stroke-width="1" clip-path="url(#clipPath2)"/>
      <path d="M700.2339 690.197 L712.054 684.7852 L706.3466 683.5912 L704.7142 677.9934 Z" stroke-width="1" clip-path="url(#clipPath2)" stroke="none"/>
      <path fill="none" d="M699.3476 719.2873 L719.6141 743.5825" stroke-width="1" clip-path="url(#clipPath2)"/>
      <path d="M724.7386 749.7256 L720.8914 737.308 L718.9736 742.8145 L713.2123 743.7137 Z" stroke-width="1" clip-path="url(#clipPath2)" stroke="none"/>
      <path fill="none" d="M634.0628 783.3837 L645.944 799.1444" stroke-width="1" clip-path="url(#clipPath2)"/>
      <path d="M650.7598 805.5326 L647.5288 792.9405 L645.3421 798.3459 L639.5436 798.9601 Z" stroke-width="1" clip-path="url(#clipPath2)" stroke="none"/>
      <path fill="none" d="M813.0828 719.4631 L797.1153 742.8668" stroke-width="1" clip-path="url(#clipPath2)"/>
      <path d="M792.6066 749.4753 L803.4999 742.3805 L797.6789 742.0408 L795.2393 736.7446 Z" stroke-width="1" clip-path="url(#clipPath2)" stroke="none"/>
    </g>
  </g>
</svg>
