<?xml version="1.0" encoding="UTF-8"?><svg xmlns="http://www.w3.org/2000/svg" xmlns:xlink="http://www.w3.org/1999/xlink" fill-opacity="1" color-rendering="auto" color-interpolation="auto" text-rendering="auto" stroke="black" stroke-linecap="square" width="541" stroke-miterlimit="10" shape-rendering="auto" stroke-opacity="1" fill="black" stroke-dasharray="none" font-weight="normal" stroke-width="1" height="428" font-family="'Dialog'" font-style="normal" stroke-linejoin="miter" font-size="12px" stroke-dashoffset="0" image-rendering="auto">
  <!--Generated by ySVG 2.5-->
  <defs id="genericDefs"/>
  <g>
    <defs id="defs1">
      <clipPath clipPathUnits="userSpaceOnUse" id="clipPath1">
        <path d="M0 0 L541 0 L541 428 L0 428 L0 0 Z"/>
      </clipPath>
      <clipPath clipPathUnits="userSpaceOnUse" id="clipPath2">
        <path d="M188 470 L729 470 L729 898 L188 898 L188 470 Z"/>
      </clipPath>
    </defs>
    <g fill="white" text-rendering="geometricPrecision" shape-rendering="geometricPrecision" transform="translate(-188,-470)" stroke="white">
      <rect x="188" width="541" height="428" y="470" clip-path="url(#clipPath2)" stroke="none"/>
    </g>
    <g fill="white" text-rendering="geometricPrecision" shape-rendering="geometricPrecision" transform="matrix(1,0,0,1,-188,-470)" stroke="white">
      <rect x="575.9693" y="485.0417" clip-path="url(#clipPath2)" width="30" rx="4" ry="4" height="30" stroke="none"/>
    </g>
    <g text-rendering="geometricPrecision" stroke-miterlimit="1.45" stroke-width="2" shape-rendering="geometricPrecision" transform="matrix(1,0,0,1,-188,-470)" stroke-linecap="butt">
      <rect x="575.9693" y="485.0417" clip-path="url(#clipPath2)" fill="none" width="30" rx="4" ry="4" height="30"/>
      <text x="584.1052" y="504.6978" clip-path="url(#clipPath2)" font-family="sans-serif" stroke="none" stroke-width="1" xml:space="preserve">88</text>
    </g>
    <g fill="white" text-rendering="geometricPrecision" shape-rendering="geometricPrecision" transform="matrix(1,0,0,1,-188,-470)" stroke="white">
      <rect x="495.0581" y="547.9225" clip-path="url(#clipPath2)" width="30" rx="4" ry="4" height="30" stroke="none"/>
    </g>
    <g text-rendering="geometricPrecision" stroke-miterlimit="1.45" stroke-width="2" shape-rendering="geometricPrecision" transform="matrix(1,0,0,1,-188,-470)" stroke-linecap="butt">
      <rect x="495.0581" y="547.9225" clip-path="url(#clipPath2)" fill="none" width="30" rx="4" ry="4" height="30"/>
      <text x="503.1941" y="567.5785" clip-path="url(#clipPath2)" font-family="sans-serif" stroke="none" stroke-width="1" xml:space="preserve">50</text>
    </g>
    <g fill="white" text-rendering="geometricPrecision" shape-rendering="geometricPrecision" transform="matrix(1,0,0,1,-188,-470)" stroke="white">
      <rect x="307.3827" y="685.1065" clip-path="url(#clipPath2)" width="30" rx="4" ry="4" height="30" stroke="none"/>
    </g>
    <g text-rendering="geometricPrecision" stroke-miterlimit="1.45" stroke-width="2" shape-rendering="geometricPrecision" transform="matrix(1,0,0,1,-188,-470)" stroke-linecap="butt">
      <rect x="307.3827" y="685.1065" clip-path="url(#clipPath2)" fill="none" width="30" rx="4" ry="4" height="30"/>
      <text x="315.5187" y="704.7625" clip-path="url(#clipPath2)" font-family="sans-serif" stroke="none" stroke-width="1" xml:space="preserve">12</text>
    </g>
    <g fill="white" text-rendering="geometricPrecision" shape-rendering="geometricPrecision" transform="matrix(1,0,0,1,-188,-470)" stroke="white">
      <rect x="459.5091" y="685.1065" clip-path="url(#clipPath2)" width="30" rx="4" ry="4" height="30" stroke="none"/>
    </g>
    <g text-rendering="geometricPrecision" stroke-miterlimit="1.45" stroke-width="2" shape-rendering="geometricPrecision" transform="matrix(1,0,0,1,-188,-470)" stroke-linecap="butt">
      <rect x="459.5091" y="685.1065" clip-path="url(#clipPath2)" fill="none" width="30" rx="4" ry="4" height="30"/>
      <text x="467.645" y="704.7625" clip-path="url(#clipPath2)" font-family="sans-serif" stroke="none" stroke-width="1" xml:space="preserve">30</text>
    </g>
    <g fill="white" text-rendering="geometricPrecision" shape-rendering="geometricPrecision" transform="matrix(1,0,0,1,-188,-470)" stroke="white">
      <rect x="247.3827" y="745.1065" clip-path="url(#clipPath2)" width="30" rx="4" ry="4" height="30" stroke="none"/>
    </g>
    <g text-rendering="geometricPrecision" stroke-miterlimit="1.45" stroke-width="2" shape-rendering="geometricPrecision" transform="matrix(1,0,0,1,-188,-470)" stroke-linecap="butt">
      <rect x="247.3827" y="745.1065" clip-path="url(#clipPath2)" fill="none" width="30" rx="4" ry="4" height="30"/>
      <text x="255.5187" y="764.7625" clip-path="url(#clipPath2)" font-family="sans-serif" stroke="none" stroke-width="1" xml:space="preserve">10</text>
    </g>
    <g fill="white" text-rendering="geometricPrecision" shape-rendering="geometricPrecision" transform="matrix(1,0,0,1,-188,-470)" stroke="white">
      <rect x="506.9609" y="745.1065" clip-path="url(#clipPath2)" width="30" rx="4" ry="4" height="30" stroke="none"/>
    </g>
    <g text-rendering="geometricPrecision" stroke-miterlimit="1.45" stroke-width="2" shape-rendering="geometricPrecision" transform="matrix(1,0,0,1,-188,-470)" stroke-linecap="butt">
      <rect x="506.9609" y="745.1065" clip-path="url(#clipPath2)" fill="none" width="30" rx="4" ry="4" height="30"/>
      <text x="515.0968" y="764.7625" clip-path="url(#clipPath2)" font-family="sans-serif" stroke="none" stroke-width="1" xml:space="preserve">35</text>
    </g>
    <g fill="white" text-rendering="geometricPrecision" shape-rendering="geometricPrecision" transform="matrix(1,0,0,1,-188,-470)" stroke="white">
      <rect x="553.9609" y="805.1065" clip-path="url(#clipPath2)" width="30" rx="4" ry="4" height="30" stroke="none"/>
    </g>
    <g text-rendering="geometricPrecision" stroke-miterlimit="1.45" stroke-width="2" shape-rendering="geometricPrecision" transform="matrix(1,0,0,1,-188,-470)" stroke-linecap="butt">
      <rect x="553.9609" y="805.1065" clip-path="url(#clipPath2)" fill="none" width="30" rx="4" ry="4" height="30"/>
      <text x="562.0968" y="824.7625" clip-path="url(#clipPath2)" font-family="sans-serif" stroke="none" stroke-width="1" xml:space="preserve">36</text>
    </g>
    <g fill="white" text-rendering="geometricPrecision" shape-rendering="geometricPrecision" transform="matrix(1,0,0,1,-188,-470)" stroke="white">
      <rect x="553.9609" y="629.5865" clip-path="url(#clipPath2)" width="30" rx="4" ry="4" height="30" stroke="none"/>
    </g>
    <g text-rendering="geometricPrecision" stroke-miterlimit="1.45" stroke-width="2" shape-rendering="geometricPrecision" transform="matrix(1,0,0,1,-188,-470)" stroke-linecap="butt">
      <rect x="553.9609" y="629.5865" clip-path="url(#clipPath2)" fill="none" width="30" rx="4" ry="4" height="30"/>
      <text x="562.0968" y="649.2425" clip-path="url(#clipPath2)" font-family="sans-serif" stroke="none" stroke-width="1" xml:space="preserve">56</text>
    </g>
    <g fill="white" text-rendering="geometricPrecision" shape-rendering="geometricPrecision" transform="matrix(1,0,0,1,-188,-470)" stroke="white">
      <rect x="367.3827" y="635.3465" clip-path="url(#clipPath2)" width="30" rx="4" ry="4" height="30" stroke="none"/>
    </g>
    <g text-rendering="geometricPrecision" stroke-miterlimit="1.45" stroke-width="2" shape-rendering="geometricPrecision" transform="matrix(1,0,0,1,-188,-470)" stroke-linecap="butt">
      <rect x="367.3827" y="635.3465" clip-path="url(#clipPath2)" fill="none" width="30" rx="4" ry="4" height="30"/>
      <text x="375.5187" y="655.0025" clip-path="url(#clipPath2)" font-family="sans-serif" stroke="none" stroke-width="1" xml:space="preserve">22</text>
    </g>
    <g fill="white" text-rendering="geometricPrecision" shape-rendering="geometricPrecision" transform="matrix(1,0,0,1,-188,-470)" stroke="white">
      <rect x="343.8409" y="745.1065" clip-path="url(#clipPath2)" width="30" rx="4" ry="4" height="30" stroke="none"/>
    </g>
    <g text-rendering="geometricPrecision" stroke-miterlimit="1.45" stroke-width="2" shape-rendering="geometricPrecision" transform="matrix(1,0,0,1,-188,-470)" stroke-linecap="butt">
      <rect x="343.8409" y="745.1065" clip-path="url(#clipPath2)" fill="none" width="30" rx="4" ry="4" height="30"/>
      <text x="351.9768" y="764.7625" clip-path="url(#clipPath2)" font-family="sans-serif" stroke="none" stroke-width="1" xml:space="preserve">21</text>
    </g>
    <g fill="white" text-rendering="geometricPrecision" shape-rendering="geometricPrecision" transform="matrix(1,0,0,1,-188,-470)" stroke="white">
      <rect x="425.4009" y="745.1065" clip-path="url(#clipPath2)" width="30" rx="4" ry="4" height="30" stroke="none"/>
    </g>
    <g text-rendering="geometricPrecision" stroke-miterlimit="1.45" stroke-width="2" shape-rendering="geometricPrecision" transform="matrix(1,0,0,1,-188,-470)" stroke-linecap="butt">
      <rect x="425.4009" y="745.1065" clip-path="url(#clipPath2)" fill="none" width="30" rx="4" ry="4" height="30"/>
      <text x="433.5368" y="764.7625" clip-path="url(#clipPath2)" font-family="sans-serif" stroke="none" stroke-width="1" xml:space="preserve">29</text>
    </g>
    <g fill="white" text-rendering="geometricPrecision" shape-rendering="geometricPrecision" transform="matrix(1,0,0,1,-188,-470)" stroke="white">
      <rect x="519.5091" y="685.1065" clip-path="url(#clipPath2)" width="30" rx="4" ry="4" height="30" stroke="none"/>
    </g>
    <g text-rendering="geometricPrecision" stroke-miterlimit="1.45" stroke-width="2" shape-rendering="geometricPrecision" transform="matrix(1,0,0,1,-188,-470)" stroke-linecap="butt">
      <rect x="519.5091" y="685.1065" clip-path="url(#clipPath2)" fill="none" width="30" rx="4" ry="4" height="30"/>
      <text x="527.645" y="704.7625" clip-path="url(#clipPath2)" font-family="sans-serif" stroke="none" stroke-width="1" xml:space="preserve">52</text>
    </g>
    <g fill="white" text-rendering="geometricPrecision" shape-rendering="geometricPrecision" transform="matrix(1,0,0,1,-188,-470)" stroke="white">
      <rect x="596.2009" y="852.9865" clip-path="url(#clipPath2)" width="30" rx="4" ry="4" height="30" stroke="none"/>
    </g>
    <g text-rendering="geometricPrecision" stroke-miterlimit="1.45" stroke-width="2" shape-rendering="geometricPrecision" transform="matrix(1,0,0,1,-188,-470)" stroke-linecap="butt">
      <rect x="596.2009" y="852.9865" clip-path="url(#clipPath2)" fill="none" width="30" rx="4" ry="4" height="30"/>
      <text x="604.3369" y="872.6425" clip-path="url(#clipPath2)" font-family="sans-serif" stroke="none" stroke-width="1" xml:space="preserve">45</text>
    </g>
    <g fill="white" text-rendering="geometricPrecision" shape-rendering="geometricPrecision" transform="matrix(1,0,0,1,-188,-470)" stroke="white">
      <rect x="300.2518" y="805.1065" clip-path="url(#clipPath2)" width="30" rx="4" ry="4" height="30" stroke="none"/>
    </g>
    <g text-rendering="geometricPrecision" stroke-miterlimit="1.45" stroke-width="2" shape-rendering="geometricPrecision" transform="matrix(1,0,0,1,-188,-470)" stroke-linecap="butt">
      <rect x="300.2518" y="805.1065" clip-path="url(#clipPath2)" fill="none" width="30" rx="4" ry="4" height="30"/>
      <text x="308.3878" y="824.7625" clip-path="url(#clipPath2)" font-family="sans-serif" stroke="none" stroke-width="1" xml:space="preserve">14</text>
    </g>
    <g fill="white" text-rendering="geometricPrecision" shape-rendering="geometricPrecision" transform="matrix(1,0,0,1,-188,-470)" stroke="white">
      <rect x="203.0173" y="805.1065" clip-path="url(#clipPath2)" width="30" rx="4" ry="4" height="30" stroke="none"/>
    </g>
    <g text-rendering="geometricPrecision" stroke-miterlimit="1.45" stroke-width="2" shape-rendering="geometricPrecision" transform="matrix(1,0,0,1,-188,-470)" stroke-linecap="butt">
      <rect x="203.0173" y="805.1065" clip-path="url(#clipPath2)" fill="none" width="30" rx="4" ry="4" height="30"/>
      <text x="214.5853" y="824.7625" clip-path="url(#clipPath2)" font-family="sans-serif" stroke="none" stroke-width="1" xml:space="preserve">3</text>
    </g>
    <g fill="white" text-rendering="geometricPrecision" shape-rendering="geometricPrecision" transform="matrix(1,0,0,1,-188,-470)" stroke="white">
      <rect x="384.6209" y="805.1065" clip-path="url(#clipPath2)" width="30" rx="4" ry="4" height="30" stroke="none"/>
    </g>
    <g text-rendering="geometricPrecision" stroke-miterlimit="1.45" stroke-width="2" shape-rendering="geometricPrecision" transform="matrix(1,0,0,1,-188,-470)" stroke-linecap="butt">
      <rect x="384.6209" y="805.1065" clip-path="url(#clipPath2)" fill="none" width="30" rx="4" ry="4" height="30"/>
      <text x="392.7568" y="824.7625" clip-path="url(#clipPath2)" font-family="sans-serif" stroke="none" stroke-width="1" xml:space="preserve">26</text>
    </g>
    <g fill="white" text-rendering="geometricPrecision" shape-rendering="geometricPrecision" transform="matrix(1,0,0,1,-188,-470)" stroke="white">
      <rect x="683.9693" y="547.9225" clip-path="url(#clipPath2)" width="30" rx="4" ry="4" height="30" stroke="none"/>
    </g>
    <g text-rendering="geometricPrecision" stroke-miterlimit="1.45" stroke-width="2" shape-rendering="geometricPrecision" transform="matrix(1,0,0,1,-188,-470)" stroke-linecap="butt">
      <rect x="683.9693" y="547.9225" clip-path="url(#clipPath2)" fill="none" width="30" rx="4" ry="4" height="30"/>
      <text x="692.1052" y="567.5785" clip-path="url(#clipPath2)" font-family="sans-serif" stroke="none" stroke-width="1" xml:space="preserve">96</text>
      <path fill="none" d="M576.0157 511.663 L531.3506 546.3749" stroke-width="1" clip-path="url(#clipPath2)"/>
      <path d="M525.0339 551.2839 L537.5771 547.8683 L532.1402 545.7612 L531.4408 539.9724 Z" stroke-width="1" clip-path="url(#clipPath2)" stroke="none"/>
      <path fill="none" d="M308.5253 713.9639 L281.8508 740.6384" stroke-width="1" clip-path="url(#clipPath2)"/>
      <path d="M276.194 746.2952 L288.2148 741.3455 L282.5579 739.9313 L281.1437 734.2744 Z" stroke-width="1" clip-path="url(#clipPath2)" stroke="none"/>
      <path fill="none" d="M486.3025 715.0186 L505.2109 738.9271" stroke-width="1" clip-path="url(#clipPath2)"/>
      <path d="M510.1734 745.2019 L506.6514 732.6881 L504.5906 738.1428 L498.8079 738.8913 Z" stroke-width="1" clip-path="url(#clipPath2)" stroke="none"/>
      <path fill="none" d="M533.642 775.0186 L552.3179 798.86" stroke-width="1" clip-path="url(#clipPath2)"/>
      <path d="M557.2512 805.1579 L553.7874 792.6279 L551.7012 798.0728 L545.9151 798.7944 Z" stroke-width="1" clip-path="url(#clipPath2)" stroke="none"/>
      <path fill="none" d="M520.9011 577.9553 L553.4628 623.0996" stroke-width="1" clip-path="url(#clipPath2)"/>
      <path d="M558.1427 629.588 L555.1781 616.9305 L552.8778 622.2886 L547.0677 622.7803 Z" stroke-width="1" clip-path="url(#clipPath2)" stroke="none"/>
      <path fill="none" d="M495.065 573.1888 L403.9767 635.5603" stroke-width="1" clip-path="url(#clipPath2)"/>
      <path d="M397.3759 640.0801 L410.102 637.4259 L404.8018 634.9953 L404.4522 629.1749 Z" stroke-width="1" clip-path="url(#clipPath2)" stroke="none"/>
      <path fill="none" d="M397.3848 658.4495 L452.4445 688.1888" stroke-width="1" clip-path="url(#clipPath2)"/>
      <path d="M459.4834 691.9907 L451.3013 681.8885 L451.5647 687.7136 L446.5489 690.6871 Z" stroke-width="1" clip-path="url(#clipPath2)" stroke="none"/>
      <path fill="none" d="M367.5878 662.6164 L343.3514 682.7164" stroke-width="1" clip-path="url(#clipPath2)"/>
      <path d="M337.1935 687.8233 L349.6222 684.0117 L344.1212 682.0781 L343.2386 676.3143 Z" stroke-width="1" clip-path="url(#clipPath2)" stroke="none"/>
      <path fill="none" d="M331.4795 715.0771 L345.5617 738.2526" stroke-width="1" clip-path="url(#clipPath2)"/>
      <path d="M349.7159 745.0894 L347.7575 732.2377 L345.0424 737.3979 L339.2115 737.4305 Z" stroke-width="1" clip-path="url(#clipPath2)" stroke="none"/>
      <path fill="none" d="M465.9987 715.0771 L452.8912 738.1346" stroke-width="1" clip-path="url(#clipPath2)"/>
      <path d="M448.9376 745.0894 L459.2148 737.1282 L453.3854 737.2653 L450.5213 732.1862 Z" stroke-width="1" clip-path="url(#clipPath2)" stroke="none"/>
      <path fill="none" d="M559.6582 659.5779 L548.0353 678.3085" stroke-width="1" clip-path="url(#clipPath2)"/>
      <path d="M543.8172 685.1061 L554.3929 677.5461 L548.5626 677.4589 L545.8959 672.2734 Z" stroke-width="1" clip-path="url(#clipPath2)" stroke="none"/>
      <path fill="none" d="M581.8102 834.6715 L593.0787 847.4446" stroke-width="1" clip-path="url(#clipPath2)"/>
      <path d="M598.3712 853.4437 L594.1819 841.1372 L592.4171 846.6947 L586.683 847.7528 Z" stroke-width="1" clip-path="url(#clipPath2)" stroke="none"/>
      <path fill="none" d="M347.9649 775.0771 L330.8635 798.6171" stroke-width="1" clip-path="url(#clipPath2)"/>
      <path d="M326.1615 805.0894 L337.2598 798.3196 L331.4513 797.808 L329.1694 792.4421 Z" stroke-width="1" clip-path="url(#clipPath2)" stroke="none"/>
      <path fill="none" d="M251.313 775.0771 L233.8776 798.6569" stroke-width="1" clip-path="url(#clipPath2)"/>
      <path d="M229.1213 805.0894 L240.2761 798.4133 L234.4722 797.8528 L232.2355 792.4679 Z" stroke-width="1" clip-path="url(#clipPath2)" stroke="none"/>
      <path fill="none" d="M430.2258 775.0771 L414.3245 798.4729" stroke-width="1" clip-path="url(#clipPath2)"/>
      <path d="M409.8275 805.0894 L420.7082 797.9753 L414.8866 797.6459 L412.4377 792.3541 Z" stroke-width="1" clip-path="url(#clipPath2)" stroke="none"/>
      <path fill="none" d="M605.9722 508.7769 L677.0482 550.1594" stroke-width="1" clip-path="url(#clipPath2)"/>
      <path d="M683.9617 554.1846 L676.1072 543.8257 L676.184 549.6562 L671.0756 552.4677 Z" stroke-width="1" clip-path="url(#clipPath2)" stroke="none"/>
    </g>
  </g>
</svg>
