<?xml version="1.0" encoding="UTF-8"?><svg xmlns="http://www.w3.org/2000/svg" xmlns:xlink="http://www.w3.org/1999/xlink" fill-opacity="1" color-rendering="auto" color-interpolation="auto" text-rendering="auto" stroke="black" stroke-linecap="square" width="602" stroke-miterlimit="10" shape-rendering="auto" stroke-opacity="1" fill="black" stroke-dasharray="none" font-weight="normal" stroke-width="1" height="260" font-family="'Dialog'" font-style="normal" stroke-linejoin="miter" font-size="12px" stroke-dashoffset="0" image-rendering="auto">
  <!--Generated by ySVG 2.5-->
  <defs id="genericDefs"/>
  <g>
    <defs id="defs1">
      <clipPath clipPathUnits="userSpaceOnUse" id="clipPath1">
        <path d="M0 0 L602 0 L602 260 L0 260 L0 0 Z"/>
      </clipPath>
      <clipPath clipPathUnits="userSpaceOnUse" id="clipPath2">
        <path d="M137 528 L739 528 L739 788 L137 788 L137 528 Z"/>
      </clipPath>
    </defs>
    <g fill="white" text-rendering="geometricPrecision" shape-rendering="geometricPrecision" transform="translate(-137,-528)" stroke="white">
      <rect x="137" width="602" height="260" y="528" clip-path="url(#clipPath2)" stroke="none"/>
    </g>
    <g fill="white" text-rendering="geometricPrecision" shape-rendering="geometricPrecision" transform="matrix(1,0,0,1,-137,-528)" stroke="white">
      <rect x="648.0905" y="676.3562" clip-path="url(#clipPath2)" width="30" rx="4" ry="4" height="30" stroke="none"/>
    </g>
    <g text-rendering="geometricPrecision" stroke-miterlimit="1.45" stroke-width="2" shape-rendering="geometricPrecision" transform="matrix(1,0,0,1,-137,-528)" stroke-linecap="butt">
      <rect x="648.0905" y="676.3562" clip-path="url(#clipPath2)" fill="none" width="30" rx="4" ry="4" height="30"/>
      <text x="656.2265" y="696.0122" clip-path="url(#clipPath2)" font-family="sans-serif" stroke="none" stroke-width="1" xml:space="preserve">88</text>
    </g>
    <g fill="white" text-rendering="geometricPrecision" shape-rendering="geometricPrecision" transform="matrix(1,0,0,1,-137,-528)" stroke="white">
      <rect x="496.8301" y="572.3242" clip-path="url(#clipPath2)" width="30" rx="4" ry="4" height="30" stroke="none"/>
    </g>
    <g text-rendering="geometricPrecision" stroke-miterlimit="1.45" stroke-width="2" shape-rendering="geometricPrecision" transform="matrix(1,0,0,1,-137,-528)" stroke-linecap="butt">
      <rect x="496.8301" y="572.3242" clip-path="url(#clipPath2)" fill="none" width="30" rx="4" ry="4" height="30"/>
      <text x="504.9661" y="591.9802" clip-path="url(#clipPath2)" font-family="sans-serif" stroke="none" stroke-width="1" xml:space="preserve">50</text>
    </g>
    <g fill="white" text-rendering="geometricPrecision" shape-rendering="geometricPrecision" transform="matrix(1,0,0,1,-137,-528)" stroke="white">
      <rect x="256.824" y="622.0842" clip-path="url(#clipPath2)" width="30" rx="4" ry="4" height="30" stroke="none"/>
    </g>
    <g text-rendering="geometricPrecision" stroke-miterlimit="1.45" stroke-width="2" shape-rendering="geometricPrecision" transform="matrix(1,0,0,1,-137,-528)" stroke-linecap="butt">
      <rect x="256.824" y="622.0842" clip-path="url(#clipPath2)" fill="none" width="30" rx="4" ry="4" height="30"/>
      <text x="264.96" y="641.7402" clip-path="url(#clipPath2)" font-family="sans-serif" stroke="none" stroke-width="1" xml:space="preserve">12</text>
    </g>
    <g fill="white" text-rendering="geometricPrecision" shape-rendering="geometricPrecision" transform="matrix(1,0,0,1,-137,-528)" stroke="white">
      <rect x="415.6221" y="742.0842" clip-path="url(#clipPath2)" width="30" rx="4" ry="4" height="30" stroke="none"/>
    </g>
    <g text-rendering="geometricPrecision" stroke-miterlimit="1.45" stroke-width="2" shape-rendering="geometricPrecision" transform="matrix(1,0,0,1,-137,-528)" stroke-linecap="butt">
      <rect x="415.6221" y="742.0842" clip-path="url(#clipPath2)" fill="none" width="30" rx="4" ry="4" height="30"/>
      <text x="423.7581" y="761.7402" clip-path="url(#clipPath2)" font-family="sans-serif" stroke="none" stroke-width="1" xml:space="preserve">30</text>
    </g>
    <g fill="white" text-rendering="geometricPrecision" shape-rendering="geometricPrecision" transform="matrix(1,0,0,1,-137,-528)" stroke="white">
      <rect x="196.824" y="682.0842" clip-path="url(#clipPath2)" width="30" rx="4" ry="4" height="30" stroke="none"/>
    </g>
    <g text-rendering="geometricPrecision" stroke-miterlimit="1.45" stroke-width="2" shape-rendering="geometricPrecision" transform="matrix(1,0,0,1,-137,-528)" stroke-linecap="butt">
      <rect x="196.824" y="682.0842" clip-path="url(#clipPath2)" fill="none" width="30" rx="4" ry="4" height="30"/>
      <text x="204.96" y="701.7402" clip-path="url(#clipPath2)" font-family="sans-serif" stroke="none" stroke-width="1" xml:space="preserve">10</text>
    </g>
    <g fill="white" text-rendering="geometricPrecision" shape-rendering="geometricPrecision" transform="matrix(1,0,0,1,-137,-528)" stroke="white">
      <rect x="409.6381" y="543.5029" clip-path="url(#clipPath2)" width="30" rx="4" ry="4" height="30" stroke="none"/>
    </g>
    <g text-rendering="geometricPrecision" stroke-miterlimit="1.45" stroke-width="2" shape-rendering="geometricPrecision" transform="matrix(1,0,0,1,-137,-528)" stroke-linecap="butt">
      <rect x="409.6381" y="543.5029" clip-path="url(#clipPath2)" fill="none" width="30" rx="4" ry="4" height="30"/>
      <text x="417.7741" y="563.1589" clip-path="url(#clipPath2)" font-family="sans-serif" stroke="none" stroke-width="1" xml:space="preserve">35</text>
    </g>
    <g fill="white" text-rendering="geometricPrecision" shape-rendering="geometricPrecision" transform="matrix(1,0,0,1,-137,-528)" stroke="white">
      <rect x="443.8101" y="622.0842" clip-path="url(#clipPath2)" width="30" rx="4" ry="4" height="30" stroke="none"/>
    </g>
    <g text-rendering="geometricPrecision" stroke-miterlimit="1.45" stroke-width="2" shape-rendering="geometricPrecision" transform="matrix(1,0,0,1,-137,-528)" stroke-linecap="butt">
      <rect x="443.8101" y="622.0842" clip-path="url(#clipPath2)" fill="none" width="30" rx="4" ry="4" height="30"/>
      <text x="451.9461" y="641.7402" clip-path="url(#clipPath2)" font-family="sans-serif" stroke="none" stroke-width="1" xml:space="preserve">36</text>
    </g>
    <g fill="white" text-rendering="geometricPrecision" shape-rendering="geometricPrecision" transform="matrix(1,0,0,1,-137,-528)" stroke="white">
      <rect x="594.3381" y="622.0842" clip-path="url(#clipPath2)" width="30" rx="4" ry="4" height="30" stroke="none"/>
    </g>
    <g text-rendering="geometricPrecision" stroke-miterlimit="1.45" stroke-width="2" shape-rendering="geometricPrecision" transform="matrix(1,0,0,1,-137,-528)" stroke-linecap="butt">
      <rect x="594.3381" y="622.0842" clip-path="url(#clipPath2)" fill="none" width="30" rx="4" ry="4" height="30"/>
      <text x="602.4741" y="641.7402" clip-path="url(#clipPath2)" font-family="sans-serif" stroke="none" stroke-width="1" xml:space="preserve">56</text>
    </g>
    <g fill="white" text-rendering="geometricPrecision" shape-rendering="geometricPrecision" transform="matrix(1,0,0,1,-137,-528)" stroke="white">
      <rect x="316.824" y="572.3242" clip-path="url(#clipPath2)" width="30" rx="4" ry="4" height="30" stroke="none"/>
    </g>
    <g text-rendering="geometricPrecision" stroke-miterlimit="1.45" stroke-width="2" shape-rendering="geometricPrecision" transform="matrix(1,0,0,1,-137,-528)" stroke-linecap="butt">
      <rect x="316.824" y="572.3242" clip-path="url(#clipPath2)" fill="none" width="30" rx="4" ry="4" height="30"/>
      <text x="324.96" y="591.9802" clip-path="url(#clipPath2)" font-family="sans-serif" stroke="none" stroke-width="1" xml:space="preserve">22</text>
    </g>
    <g fill="white" text-rendering="geometricPrecision" shape-rendering="geometricPrecision" transform="matrix(1,0,0,1,-137,-528)" stroke="white">
      <rect x="293.2821" y="682.0842" clip-path="url(#clipPath2)" width="30" rx="4" ry="4" height="30" stroke="none"/>
    </g>
    <g text-rendering="geometricPrecision" stroke-miterlimit="1.45" stroke-width="2" shape-rendering="geometricPrecision" transform="matrix(1,0,0,1,-137,-528)" stroke-linecap="butt">
      <rect x="293.2821" y="682.0842" clip-path="url(#clipPath2)" fill="none" width="30" rx="4" ry="4" height="30"/>
      <text x="301.4181" y="701.7402" clip-path="url(#clipPath2)" font-family="sans-serif" stroke="none" stroke-width="1" xml:space="preserve">21</text>
    </g>
    <g fill="white" text-rendering="geometricPrecision" shape-rendering="geometricPrecision" transform="matrix(1,0,0,1,-137,-528)" stroke="white">
      <rect x="374.8421" y="682.0842" clip-path="url(#clipPath2)" width="30" rx="4" ry="4" height="30" stroke="none"/>
    </g>
    <g text-rendering="geometricPrecision" stroke-miterlimit="1.45" stroke-width="2" shape-rendering="geometricPrecision" transform="matrix(1,0,0,1,-137,-528)" stroke-linecap="butt">
      <rect x="374.8421" y="682.0842" clip-path="url(#clipPath2)" fill="none" width="30" rx="4" ry="4" height="30"/>
      <text x="382.9781" y="701.7402" clip-path="url(#clipPath2)" font-family="sans-serif" stroke="none" stroke-width="1" xml:space="preserve">29</text>
    </g>
    <g fill="white" text-rendering="geometricPrecision" shape-rendering="geometricPrecision" transform="matrix(1,0,0,1,-137,-528)" stroke="white">
      <rect x="544.5263" y="676.3562" clip-path="url(#clipPath2)" width="30" rx="4" ry="4" height="30" stroke="none"/>
    </g>
    <g text-rendering="geometricPrecision" stroke-miterlimit="1.45" stroke-width="2" shape-rendering="geometricPrecision" transform="matrix(1,0,0,1,-137,-528)" stroke-linecap="butt">
      <rect x="544.5263" y="676.3562" clip-path="url(#clipPath2)" fill="none" width="30" rx="4" ry="4" height="30"/>
      <text x="552.6623" y="696.0122" clip-path="url(#clipPath2)" font-family="sans-serif" stroke="none" stroke-width="1" xml:space="preserve">52</text>
    </g>
    <g fill="white" text-rendering="geometricPrecision" shape-rendering="geometricPrecision" transform="matrix(1,0,0,1,-137,-528)" stroke="white">
      <rect x="484.5263" y="676.3562" clip-path="url(#clipPath2)" width="30" rx="4" ry="4" height="30" stroke="none"/>
    </g>
    <g text-rendering="geometricPrecision" stroke-miterlimit="1.45" stroke-width="2" shape-rendering="geometricPrecision" transform="matrix(1,0,0,1,-137,-528)" stroke-linecap="butt">
      <rect x="484.5263" y="676.3562" clip-path="url(#clipPath2)" fill="none" width="30" rx="4" ry="4" height="30"/>
      <text x="492.6623" y="696.0122" clip-path="url(#clipPath2)" font-family="sans-serif" stroke="none" stroke-width="1" xml:space="preserve">45</text>
    </g>
    <g fill="white" text-rendering="geometricPrecision" shape-rendering="geometricPrecision" transform="matrix(1,0,0,1,-137,-528)" stroke="white">
      <rect x="249.6931" y="742.0842" clip-path="url(#clipPath2)" width="30" rx="4" ry="4" height="30" stroke="none"/>
    </g>
    <g text-rendering="geometricPrecision" stroke-miterlimit="1.45" stroke-width="2" shape-rendering="geometricPrecision" transform="matrix(1,0,0,1,-137,-528)" stroke-linecap="butt">
      <rect x="249.6931" y="742.0842" clip-path="url(#clipPath2)" fill="none" width="30" rx="4" ry="4" height="30"/>
      <text x="257.829" y="761.7402" clip-path="url(#clipPath2)" font-family="sans-serif" stroke="none" stroke-width="1" xml:space="preserve">14</text>
    </g>
    <g fill="white" text-rendering="geometricPrecision" shape-rendering="geometricPrecision" transform="matrix(1,0,0,1,-137,-528)" stroke="white">
      <rect x="152.4585" y="742.0842" clip-path="url(#clipPath2)" width="30" rx="4" ry="4" height="30" stroke="none"/>
    </g>
    <g text-rendering="geometricPrecision" stroke-miterlimit="1.45" stroke-width="2" shape-rendering="geometricPrecision" transform="matrix(1,0,0,1,-137,-528)" stroke-linecap="butt">
      <rect x="152.4585" y="742.0842" clip-path="url(#clipPath2)" fill="none" width="30" rx="4" ry="4" height="30"/>
      <text x="164.0265" y="761.7402" clip-path="url(#clipPath2)" font-family="sans-serif" stroke="none" stroke-width="1" xml:space="preserve">3</text>
    </g>
    <g fill="white" text-rendering="geometricPrecision" shape-rendering="geometricPrecision" transform="matrix(1,0,0,1,-137,-528)" stroke="white">
      <rect x="334.0621" y="742.0842" clip-path="url(#clipPath2)" width="30" rx="4" ry="4" height="30" stroke="none"/>
    </g>
    <g text-rendering="geometricPrecision" stroke-miterlimit="1.45" stroke-width="2" shape-rendering="geometricPrecision" transform="matrix(1,0,0,1,-137,-528)" stroke-linecap="butt">
      <rect x="334.0621" y="742.0842" clip-path="url(#clipPath2)" fill="none" width="30" rx="4" ry="4" height="30"/>
      <text x="342.1981" y="761.7402" clip-path="url(#clipPath2)" font-family="sans-serif" stroke="none" stroke-width="1" xml:space="preserve">26</text>
    </g>
    <g fill="white" text-rendering="geometricPrecision" shape-rendering="geometricPrecision" transform="matrix(1,0,0,1,-137,-528)" stroke="white">
      <rect x="693.6265" y="732.1962" clip-path="url(#clipPath2)" width="30" rx="4" ry="4" height="30" stroke="none"/>
    </g>
    <g text-rendering="geometricPrecision" stroke-miterlimit="1.45" stroke-width="2" shape-rendering="geometricPrecision" transform="matrix(1,0,0,1,-137,-528)" stroke-linecap="butt">
      <rect x="693.6265" y="732.1962" clip-path="url(#clipPath2)" fill="none" width="30" rx="4" ry="4" height="30"/>
      <text x="701.7625" y="751.8522" clip-path="url(#clipPath2)" font-family="sans-serif" stroke="none" stroke-width="1" xml:space="preserve">96</text>
      <path fill="none" d="M257.9666 650.9417 L231.2921 677.6161" stroke-width="1" clip-path="url(#clipPath2)"/>
      <path d="M225.6352 683.2729 L237.656 678.3232 L231.9992 676.909 L230.585 671.2521 Z" stroke-width="1" clip-path="url(#clipPath2)" stroke="none"/>
      <path fill="none" d="M439.6668 563.4706 L489.2591 579.8633" stroke-width="1" clip-path="url(#clipPath2)"/>
      <path d="M496.8549 582.3741 L487.0304 573.8606 L488.3096 579.5495 L483.8919 583.3553 Z" stroke-width="1" clip-path="url(#clipPath2)" stroke="none"/>
      <path fill="none" d="M497.6172 600.6632 L478.874 618.254" stroke-width="1" clip-path="url(#clipPath2)"/>
      <path d="M473.0407 623.7286 L485.2124 619.1625 L479.6032 617.5696 L478.369 611.8708 Z" stroke-width="1" clip-path="url(#clipPath2)" stroke="none"/>
      <path fill="none" d="M526.8515 594.9899 L587.1891 625.7812" stroke-width="1" clip-path="url(#clipPath2)"/>
      <path d="M594.3149 629.4176 L585.899 619.5094 L586.2985 625.3267 L581.3535 628.4166 Z" stroke-width="1" clip-path="url(#clipPath2)" stroke="none"/>
      <path fill="none" d="M623.1174 650.9967 L643.7007 671.7789" stroke-width="1" clip-path="url(#clipPath2)"/>
      <path d="M649.3303 677.4629 L644.4384 665.4184 L642.9969 671.0684 L637.3334 672.4554 Z" stroke-width="1" clip-path="url(#clipPath2)" stroke="none"/>
      <path fill="none" d="M409.6374 563.161 L354.4721 580.2913" stroke-width="1" clip-path="url(#clipPath2)"/>
      <path d="M346.832 582.6638 L359.7749 583.8801 L355.4271 579.9948 L356.8093 574.33 Z" stroke-width="1" clip-path="url(#clipPath2)" stroke="none"/>
      <path fill="none" d="M317.0291 599.5941 L292.7927 619.6942" stroke-width="1" clip-path="url(#clipPath2)"/>
      <path d="M286.6349 624.8011 L299.0635 620.9894 L293.5624 619.0558 L292.6798 613.2921 Z" stroke-width="1" clip-path="url(#clipPath2)" stroke="none"/>
      <path fill="none" d="M280.9207 652.0549 L295.0029 675.2303" stroke-width="1" clip-path="url(#clipPath2)"/>
      <path d="M299.1572 682.0671 L297.1988 669.2155 L294.4836 674.3757 L288.6528 674.4083 Z" stroke-width="1" clip-path="url(#clipPath2)" stroke="none"/>
      <path fill="none" d="M339.742 602.3036 L378.1653 674.9938" stroke-width="1" clip-path="url(#clipPath2)"/>
      <path d="M381.9039 682.0665 L380.7165 669.1208 L377.698 674.1097 L371.8756 673.794 Z" stroke-width="1" clip-path="url(#clipPath2)" stroke="none"/>
      <path fill="none" d="M400.0172 712.0549 L415.9185 735.4507" stroke-width="1" clip-path="url(#clipPath2)"/>
      <path d="M420.4156 742.0671 L417.8053 729.3318 L415.3564 734.6236 L409.5348 734.9531 Z" stroke-width="1" clip-path="url(#clipPath2)" stroke="none"/>
      <path fill="none" d="M596.1799 651.4207 L578.1261 671.091" stroke-width="1" clip-path="url(#clipPath2)"/>
      <path d="M572.7166 676.9849 L584.5145 671.525 L578.8023 670.3542 L577.1472 664.7632 Z" stroke-width="1" clip-path="url(#clipPath2)" stroke="none"/>
      <path fill="none" d="M470.0429 652.0567 L483.4676 669.9509" stroke-width="1" clip-path="url(#clipPath2)"/>
      <path d="M488.2685 676.3502 L485.0667 663.7507 L482.8674 669.151 L477.0675 669.7518 Z" stroke-width="1" clip-path="url(#clipPath2)" stroke="none"/>
      <path fill="none" d="M297.4062 712.0549 L280.3048 735.5948" stroke-width="1" clip-path="url(#clipPath2)"/>
      <path d="M275.6028 742.0671 L286.701 735.2974 L280.8925 734.7857 L278.6106 729.4199 Z" stroke-width="1" clip-path="url(#clipPath2)" stroke="none"/>
      <path fill="none" d="M200.7543 712.0549 L183.3189 735.6346" stroke-width="1" clip-path="url(#clipPath2)"/>
      <path d="M178.5625 742.0671 L189.7174 735.3911 L183.9134 734.8305 L181.6768 729.4456 Z" stroke-width="1" clip-path="url(#clipPath2)" stroke="none"/>
      <path fill="none" d="M379.6671 712.0549 L363.7657 735.4507" stroke-width="1" clip-path="url(#clipPath2)"/>
      <path d="M359.2687 742.0671 L370.1495 734.9531 L364.3279 734.6237 L361.8789 729.3318 Z" stroke-width="1" clip-path="url(#clipPath2)" stroke="none"/>
      <path fill="none" d="M675.2083 706.2159 L691.4794 726.169" stroke-width="1" clip-path="url(#clipPath2)"/>
      <path d="M696.5353 732.3689 L692.8264 719.9092 L690.8475 725.394 L685.0766 726.229 Z" stroke-width="1" clip-path="url(#clipPath2)" stroke="none"/>
    </g>
  </g>
</svg>
