<?xml version="1.0" encoding="UTF-8"?><svg xmlns="http://www.w3.org/2000/svg" xmlns:xlink="http://www.w3.org/1999/xlink" fill-opacity="1" color-rendering="auto" color-interpolation="auto" text-rendering="auto" stroke="black" stroke-linecap="square" width="452" stroke-miterlimit="10" shape-rendering="auto" stroke-opacity="1" fill="black" stroke-dasharray="none" font-weight="normal" stroke-width="1" height="336" font-family="'Dialog'" font-style="normal" stroke-linejoin="miter" font-size="12px" stroke-dashoffset="0" image-rendering="auto">
  <!--Generated by ySVG 2.5-->
  <defs id="genericDefs"/>
  <g>
    <defs id="defs1">
      <clipPath clipPathUnits="userSpaceOnUse" id="clipPath1">
        <path d="M0 0 L452 0 L452 336 L0 336 L0 0 Z"/>
      </clipPath>
      <clipPath clipPathUnits="userSpaceOnUse" id="clipPath2">
        <path d="M-189 447 L263 447 L263 783 L-189 783 L-189 447 Z"/>
      </clipPath>
    </defs>
    <g fill="white" text-rendering="geometricPrecision" shape-rendering="geometricPrecision" transform="translate(189,-447)" stroke="white">
      <rect x="-189" width="452" height="336" y="447" clip-path="url(#clipPath2)" stroke="none"/>
    </g>
    <g fill="white" text-rendering="geometricPrecision" shape-rendering="geometricPrecision" transform="matrix(1,0,0,1,189,-447)" stroke="white">
      <rect x="56.872" y="462.3459" clip-path="url(#clipPath2)" width="62.4403" rx="4" ry="4" height="30" stroke="none"/>
    </g>
    <g text-rendering="geometricPrecision" stroke-miterlimit="1.45" stroke-width="2" shape-rendering="geometricPrecision" transform="matrix(1,0,0,1,189,-447)" stroke-linecap="butt">
      <rect x="56.872" y="462.3459" clip-path="url(#clipPath2)" fill="none" width="62.4403" rx="4" ry="4" height="30"/>
      <text x="71.8921" y="482.0019" clip-path="url(#clipPath2)" font-family="sans-serif" stroke="none" stroke-width="1" xml:space="preserve">Maria</text>
    </g>
    <g fill="white" text-rendering="geometricPrecision" shape-rendering="geometricPrecision" transform="matrix(1,0,0,1,189,-447)" stroke="white">
      <rect x="-22.6095" y="513.1686" clip-path="url(#clipPath2)" width="62.4403" rx="4" ry="4" height="30" stroke="none"/>
    </g>
    <g text-rendering="geometricPrecision" stroke-miterlimit="1.45" stroke-width="2" shape-rendering="geometricPrecision" transform="matrix(1,0,0,1,189,-447)" stroke-linecap="butt">
      <rect x="-22.6095" y="513.1686" clip-path="url(#clipPath2)" fill="none" width="62.4403" rx="4" ry="4" height="30"/>
      <text x="-2.9155" y="532.8246" clip-path="url(#clipPath2)" font-family="sans-serif" stroke="none" stroke-width="1" xml:space="preserve">Jose</text>
    </g>
    <g fill="white" text-rendering="geometricPrecision" shape-rendering="geometricPrecision" transform="matrix(1,0,0,1,189,-447)" stroke="white">
      <rect x="-97.8943" y="563.9129" clip-path="url(#clipPath2)" width="62.4403" rx="4" ry="4" height="30" stroke="none"/>
    </g>
    <g text-rendering="geometricPrecision" stroke-miterlimit="1.45" stroke-width="2" shape-rendering="geometricPrecision" transform="matrix(1,0,0,1,189,-447)" stroke-linecap="butt">
      <rect x="-97.8943" y="563.9129" clip-path="url(#clipPath2)" fill="none" width="62.4403" rx="4" ry="4" height="30"/>
      <text x="-78.9382" y="583.5689" clip-path="url(#clipPath2)" font-family="sans-serif" stroke="none" stroke-width="1" xml:space="preserve">João</text>
    </g>
    <g fill="white" text-rendering="geometricPrecision" shape-rendering="geometricPrecision" transform="matrix(1,0,0,1,189,-447)" stroke="white">
      <rect x="-149.7343" y="627.8172" clip-path="url(#clipPath2)" width="62.4403" rx="4" ry="4" height="30" stroke="none"/>
    </g>
    <g text-rendering="geometricPrecision" stroke-miterlimit="1.45" stroke-width="2" shape-rendering="geometricPrecision" transform="matrix(1,0,0,1,189,-447)" stroke-linecap="butt">
      <rect x="-149.7343" y="627.8172" clip-path="url(#clipPath2)" fill="none" width="62.4403" rx="4" ry="4" height="30"/>
      <text x="-129.4222" y="647.4732" clip-path="url(#clipPath2)" font-family="sans-serif" stroke="none" stroke-width="1" xml:space="preserve">Ana</text>
    </g>
    <g fill="white" text-rendering="geometricPrecision" shape-rendering="geometricPrecision" transform="matrix(1,0,0,1,189,-447)" stroke="white">
      <rect x="-87.294" y="687.8172" clip-path="url(#clipPath2)" width="62.4403" rx="4" ry="4" height="30" stroke="none"/>
    </g>
    <g text-rendering="geometricPrecision" stroke-miterlimit="1.45" stroke-width="2" shape-rendering="geometricPrecision" transform="matrix(1,0,0,1,189,-447)" stroke-linecap="butt">
      <rect x="-87.294" y="687.8172" clip-path="url(#clipPath2)" fill="none" width="62.4403" rx="4" ry="4" height="30"/>
      <text x="-68.4159" y="707.4732" clip-path="url(#clipPath2)" font-family="sans-serif" stroke="none" stroke-width="1" xml:space="preserve">Davi</text>
    </g>
    <g fill="white" text-rendering="geometricPrecision" shape-rendering="geometricPrecision" transform="matrix(1,0,0,1,189,-447)" stroke="white">
      <rect x="141.0447" y="513.1686" clip-path="url(#clipPath2)" width="62.4403" rx="4" ry="4" height="30" stroke="none"/>
    </g>
    <g text-rendering="geometricPrecision" stroke-miterlimit="1.45" stroke-width="2" shape-rendering="geometricPrecision" transform="matrix(1,0,0,1,189,-447)" stroke-linecap="butt">
      <rect x="141.0447" y="513.1686" clip-path="url(#clipPath2)" fill="none" width="62.4403" rx="4" ry="4" height="30"/>
      <text x="156.6947" y="532.8246" clip-path="url(#clipPath2)" font-family="sans-serif" stroke="none" stroke-width="1" xml:space="preserve">Tiago</text>
    </g>
    <g fill="white" text-rendering="geometricPrecision" shape-rendering="geometricPrecision" transform="matrix(1,0,0,1,189,-447)" stroke="white">
      <rect x="135.2685" y="620.3606" clip-path="url(#clipPath2)" width="62.4403" rx="4" ry="4" height="30" stroke="none"/>
    </g>
    <g text-rendering="geometricPrecision" stroke-miterlimit="1.45" stroke-width="2" shape-rendering="geometricPrecision" transform="matrix(1,0,0,1,189,-447)" stroke-linecap="butt">
      <rect x="135.2685" y="620.3606" clip-path="url(#clipPath2)" fill="none" width="62.4403" rx="4" ry="4" height="30"/>
      <text x="155.3646" y="640.0167" clip-path="url(#clipPath2)" font-family="sans-serif" stroke="none" stroke-width="1" xml:space="preserve">Tais</text>
    </g>
    <g fill="white" text-rendering="geometricPrecision" shape-rendering="geometricPrecision" transform="matrix(1,0,0,1,189,-447)" stroke="white">
      <rect x="92.4682" y="667.5526" clip-path="url(#clipPath2)" width="62.4403" rx="4" ry="4" height="30" stroke="none"/>
    </g>
    <g text-rendering="geometricPrecision" stroke-miterlimit="1.45" stroke-width="2" shape-rendering="geometricPrecision" transform="matrix(1,0,0,1,189,-447)" stroke-linecap="butt">
      <rect x="92.4682" y="667.5526" clip-path="url(#clipPath2)" fill="none" width="62.4403" rx="4" ry="4" height="30"/>
      <text x="108.8022" y="687.2087" clip-path="url(#clipPath2)" font-family="sans-serif" stroke="none" stroke-width="1" xml:space="preserve">Savio</text>
    </g>
    <g fill="white" text-rendering="geometricPrecision" shape-rendering="geometricPrecision" transform="matrix(1,0,0,1,189,-447)" stroke="white">
      <rect x="-173.8249" y="737.2486" clip-path="url(#clipPath2)" width="62.4403" rx="4" ry="4" height="30" stroke="none"/>
    </g>
    <g text-rendering="geometricPrecision" stroke-miterlimit="1.45" stroke-width="2" shape-rendering="geometricPrecision" transform="matrix(1,0,0,1,189,-447)" stroke-linecap="butt">
      <rect x="-173.8249" y="737.2486" clip-path="url(#clipPath2)" fill="none" width="62.4403" rx="4" ry="4" height="30"/>
      <text x="-159.6989" y="756.9046" clip-path="url(#clipPath2)" font-family="sans-serif" stroke="none" stroke-width="1" xml:space="preserve">André</text>
    </g>
    <g fill="white" text-rendering="geometricPrecision" shape-rendering="geometricPrecision" transform="matrix(1,0,0,1,189,-447)" stroke="white">
      <rect x="92.4682" y="560.3606" clip-path="url(#clipPath2)" width="62.4403" rx="4" ry="4" height="30" stroke="none"/>
    </g>
    <g text-rendering="geometricPrecision" stroke-miterlimit="1.45" stroke-width="2" shape-rendering="geometricPrecision" transform="matrix(1,0,0,1,189,-447)" stroke-linecap="butt">
      <rect x="92.4682" y="560.3606" clip-path="url(#clipPath2)" fill="none" width="62.4403" rx="4" ry="4" height="30"/>
      <text x="111.0703" y="580.0167" clip-path="url(#clipPath2)" font-family="sans-serif" stroke="none" stroke-width="1" xml:space="preserve">Nico</text>
    </g>
    <g fill="white" text-rendering="geometricPrecision" shape-rendering="geometricPrecision" transform="matrix(1,0,0,1,189,-447)" stroke="white">
      <rect x="184.9085" y="560.3606" clip-path="url(#clipPath2)" width="62.4403" rx="4" ry="4" height="30" stroke="none"/>
    </g>
    <g text-rendering="geometricPrecision" stroke-miterlimit="1.45" stroke-width="2" shape-rendering="geometricPrecision" transform="matrix(1,0,0,1,189,-447)" stroke-linecap="butt">
      <rect x="184.9085" y="560.3606" clip-path="url(#clipPath2)" fill="none" width="62.4403" rx="4" ry="4" height="30"/>
      <text x="204.2486" y="580.0167" clip-path="url(#clipPath2)" font-family="sans-serif" stroke="none" stroke-width="1" xml:space="preserve">Tião</text>
      <path fill="none" d="M64.6125 492.3594 L38.7849 508.8743" stroke-width="1" clip-path="url(#clipPath2)"/>
      <path d="M32.045 513.184 L44.8485 510.9319 L39.6274 508.3356 L39.4613 502.507 Z" stroke-width="1" clip-path="url(#clipPath2)" stroke="none"/>
      <path fill="none" d="M-13.6293 543.1589 L-37.7916 559.4451" stroke-width="1" clip-path="url(#clipPath2)"/>
      <path d="M-44.4253 563.9165 L-31.6801 561.3555 L-36.9624 558.8862 L-37.2693 553.0634 Z" stroke-width="1" clip-path="url(#clipPath2)" stroke="none"/>
      <path fill="none" d="M-78.8495 593.9216 L-101.2921 621.5871" stroke-width="1" clip-path="url(#clipPath2)"/>
      <path d="M-106.332 627.7999 L-94.8891 621.6306 L-100.6621 620.8105 L-102.6551 615.3307 Z" stroke-width="1" clip-path="url(#clipPath2)" stroke="none"/>
      <path fill="none" d="M-102.9346 657.7878 L-77.4702 682.2571" stroke-width="1" clip-path="url(#clipPath2)"/>
      <path d="M-71.7017 687.8 L-76.89 675.8802 L-78.1912 681.5642 L-83.8188 683.0909 Z" stroke-width="1" clip-path="url(#clipPath2)" stroke="none"/>
      <path fill="none" d="M112.9576 492.3594 L140.5989 509.049" stroke-width="1" clip-path="url(#clipPath2)"/>
      <path d="M147.4473 513.184 L139.7591 502.7011 L139.7428 508.5321 L134.5902 511.2617 Z" stroke-width="1" clip-path="url(#clipPath2)" stroke="none"/>
      <path fill="none" d="M152.8837 650.3616 L142.6625 661.6315" stroke-width="1" clip-path="url(#clipPath2)"/>
      <path d="M137.2881 667.5574 L149.0534 662.0276 L143.3343 660.8908 L141.646 655.3096 Z" stroke-width="1" clip-path="url(#clipPath2)" stroke="none"/>
      <path fill="none" d="M-82.312 717.8059 L-109.4274 733.2958" stroke-width="1" clip-path="url(#clipPath2)"/>
      <path d="M-116.3739 737.264 L-103.4741 735.6532 L-108.5591 732.7997 L-108.4343 726.9702 Z" stroke-width="1" clip-path="url(#clipPath2)" stroke="none"/>
      <path fill="none" d="M156.8238 543.1696 L144.8615 554.7909" stroke-width="1" clip-path="url(#clipPath2)"/>
      <path d="M139.1235 560.3654 L151.2146 555.5899 L145.5788 554.0941 L144.2465 548.4174 Z" stroke-width="1" clip-path="url(#clipPath2)" stroke="none"/>
      <path fill="none" d="M134.3675 590.3313 L151.1306 613.8307" stroke-width="1" clip-path="url(#clipPath2)"/>
      <path d="M155.7764 620.3435 L152.8781 607.6707 L150.5498 613.0166 L144.7372 613.478 Z" stroke-width="1" clip-path="url(#clipPath2)" stroke="none"/>
      <path fill="none" d="M186.2079 543.1696 L196.7445 554.5057" stroke-width="1" clip-path="url(#clipPath2)"/>
      <path d="M202.191 560.3654 L197.6836 548.1718 L196.0637 553.7732 L190.359 554.9799 Z" stroke-width="1" clip-path="url(#clipPath2)" stroke="none"/>
    </g>
  </g>
</svg>
