<?xml version="1.0" encoding="UTF-8"?><svg xmlns="http://www.w3.org/2000/svg" xmlns:xlink="http://www.w3.org/1999/xlink" fill-opacity="1" color-rendering="auto" color-interpolation="auto" text-rendering="auto" stroke="black" stroke-linecap="square" width="570" stroke-miterlimit="10" shape-rendering="auto" stroke-opacity="1" fill="black" stroke-dasharray="none" font-weight="normal" stroke-width="1" height="271" font-family="'Dialog'" font-style="normal" stroke-linejoin="miter" font-size="12px" stroke-dashoffset="0" image-rendering="auto">
  <!--Generated by ySVG 2.5-->
  <defs id="genericDefs"/>
  <g>
    <defs id="defs1">
      <clipPath clipPathUnits="userSpaceOnUse" id="clipPath1">
        <path d="M0 0 L570 0 L570 271 L0 271 L0 0 Z"/>
      </clipPath>
      <clipPath clipPathUnits="userSpaceOnUse" id="clipPath2">
        <path d="M667 492 L1237 492 L1237 763 L667 763 L667 492 Z"/>
      </clipPath>
    </defs>
    <g fill="white" text-rendering="geometricPrecision" shape-rendering="geometricPrecision" transform="translate(-667,-492)" stroke="white">
      <rect x="667" width="570" height="271" y="492" clip-path="url(#clipPath2)" stroke="none"/>
    </g>
    <g fill="white" text-rendering="geometricPrecision" shape-rendering="geometricPrecision" transform="matrix(1,0,0,1,-667,-492)" stroke="white">
      <rect x="921.8839" y="717.7611" clip-path="url(#clipPath2)" width="62.4403" rx="4" ry="4" height="30" stroke="none"/>
    </g>
    <g text-rendering="geometricPrecision" stroke-miterlimit="1.45" stroke-width="2" shape-rendering="geometricPrecision" transform="matrix(1,0,0,1,-667,-492)" stroke-linecap="butt">
      <rect x="921.8839" y="717.7611" clip-path="url(#clipPath2)" fill="none" width="62.4403" rx="4" ry="4" height="30"/>
      <text x="936.9039" y="737.4171" clip-path="url(#clipPath2)" font-family="sans-serif" stroke="none" stroke-width="1" xml:space="preserve">Maria</text>
    </g>
    <g fill="white" text-rendering="geometricPrecision" shape-rendering="geometricPrecision" transform="matrix(1,0,0,1,-667,-492)" stroke="white">
      <rect x="905.3905" y="507.6686" clip-path="url(#clipPath2)" width="62.4403" rx="4" ry="4" height="30" stroke="none"/>
    </g>
    <g text-rendering="geometricPrecision" stroke-miterlimit="1.45" stroke-width="2" shape-rendering="geometricPrecision" transform="matrix(1,0,0,1,-667,-492)" stroke-linecap="butt">
      <rect x="905.3905" y="507.6686" clip-path="url(#clipPath2)" fill="none" width="62.4403" rx="4" ry="4" height="30"/>
      <text x="925.0845" y="527.3246" clip-path="url(#clipPath2)" font-family="sans-serif" stroke="none" stroke-width="1" xml:space="preserve">Jose</text>
    </g>
    <g fill="white" text-rendering="geometricPrecision" shape-rendering="geometricPrecision" transform="matrix(1,0,0,1,-667,-492)" stroke="white">
      <rect x="870.6561" y="654.803" clip-path="url(#clipPath2)" width="62.4403" rx="4" ry="4" height="30" stroke="none"/>
    </g>
    <g text-rendering="geometricPrecision" stroke-miterlimit="1.45" stroke-width="2" shape-rendering="geometricPrecision" transform="matrix(1,0,0,1,-667,-492)" stroke-linecap="butt">
      <rect x="870.6561" y="654.803" clip-path="url(#clipPath2)" fill="none" width="62.4403" rx="4" ry="4" height="30"/>
      <text x="889.6122" y="674.459" clip-path="url(#clipPath2)" font-family="sans-serif" stroke="none" stroke-width="1" xml:space="preserve">João</text>
    </g>
    <g fill="white" text-rendering="geometricPrecision" shape-rendering="geometricPrecision" transform="matrix(1,0,0,1,-667,-492)" stroke="white">
      <rect x="682.4193" y="654.803" clip-path="url(#clipPath2)" width="62.4403" rx="4" ry="4" height="30" stroke="none"/>
    </g>
    <g text-rendering="geometricPrecision" stroke-miterlimit="1.45" stroke-width="2" shape-rendering="geometricPrecision" transform="matrix(1,0,0,1,-667,-492)" stroke-linecap="butt">
      <rect x="682.4193" y="654.803" clip-path="url(#clipPath2)" fill="none" width="62.4403" rx="4" ry="4" height="30"/>
      <text x="702.7314" y="674.459" clip-path="url(#clipPath2)" font-family="sans-serif" stroke="none" stroke-width="1" xml:space="preserve">Ana</text>
    </g>
    <g fill="white" text-rendering="geometricPrecision" shape-rendering="geometricPrecision" transform="matrix(1,0,0,1,-667,-492)" stroke="white">
      <rect x="781.314" y="573.0814" clip-path="url(#clipPath2)" width="62.4403" rx="4" ry="4" height="30" stroke="none"/>
    </g>
    <g text-rendering="geometricPrecision" stroke-miterlimit="1.45" stroke-width="2" shape-rendering="geometricPrecision" transform="matrix(1,0,0,1,-667,-492)" stroke-linecap="butt">
      <rect x="781.314" y="573.0814" clip-path="url(#clipPath2)" fill="none" width="62.4403" rx="4" ry="4" height="30"/>
      <text x="800.1921" y="592.7374" clip-path="url(#clipPath2)" font-family="sans-serif" stroke="none" stroke-width="1" xml:space="preserve">Davi</text>
    </g>
    <g fill="white" text-rendering="geometricPrecision" shape-rendering="geometricPrecision" transform="matrix(1,0,0,1,-667,-492)" stroke="white">
      <rect x="1102.9789" y="654.803" clip-path="url(#clipPath2)" width="62.4403" rx="4" ry="4" height="30" stroke="none"/>
    </g>
    <g text-rendering="geometricPrecision" stroke-miterlimit="1.45" stroke-width="2" shape-rendering="geometricPrecision" transform="matrix(1,0,0,1,-667,-492)" stroke-linecap="butt">
      <rect x="1102.9789" y="654.803" clip-path="url(#clipPath2)" fill="none" width="62.4403" rx="4" ry="4" height="30"/>
      <text x="1118.6289" y="674.459" clip-path="url(#clipPath2)" font-family="sans-serif" stroke="none" stroke-width="1" xml:space="preserve">Tiago</text>
    </g>
    <g fill="white" text-rendering="geometricPrecision" shape-rendering="geometricPrecision" transform="matrix(1,0,0,1,-667,-492)" stroke="white">
      <rect x="1022.4068" y="573.0814" clip-path="url(#clipPath2)" width="62.4403" rx="4" ry="4" height="30" stroke="none"/>
    </g>
    <g text-rendering="geometricPrecision" stroke-miterlimit="1.45" stroke-width="2" shape-rendering="geometricPrecision" transform="matrix(1,0,0,1,-667,-492)" stroke-linecap="butt">
      <rect x="1022.4068" y="573.0814" clip-path="url(#clipPath2)" fill="none" width="62.4403" rx="4" ry="4" height="30"/>
      <text x="1042.5028" y="592.7374" clip-path="url(#clipPath2)" font-family="sans-serif" stroke="none" stroke-width="1" xml:space="preserve">Tais</text>
    </g>
    <g fill="white" text-rendering="geometricPrecision" shape-rendering="geometricPrecision" transform="matrix(1,0,0,1,-667,-492)" stroke="white">
      <rect x="1040.5386" y="717.7611" clip-path="url(#clipPath2)" width="62.4403" rx="4" ry="4" height="30" stroke="none"/>
    </g>
    <g text-rendering="geometricPrecision" stroke-miterlimit="1.45" stroke-width="2" shape-rendering="geometricPrecision" transform="matrix(1,0,0,1,-667,-492)" stroke-linecap="butt">
      <rect x="1040.5386" y="717.7611" clip-path="url(#clipPath2)" fill="none" width="62.4403" rx="4" ry="4" height="30"/>
      <text x="1056.8727" y="737.4171" clip-path="url(#clipPath2)" font-family="sans-serif" stroke="none" stroke-width="1" xml:space="preserve">Savio</text>
    </g>
    <g fill="white" text-rendering="geometricPrecision" shape-rendering="geometricPrecision" transform="matrix(1,0,0,1,-667,-492)" stroke="white">
      <rect x="748.5772" y="717.7611" clip-path="url(#clipPath2)" width="62.4403" rx="4" ry="4" height="30" stroke="none"/>
    </g>
    <g text-rendering="geometricPrecision" stroke-miterlimit="1.45" stroke-width="2" shape-rendering="geometricPrecision" transform="matrix(1,0,0,1,-667,-492)" stroke-linecap="butt">
      <rect x="748.5772" y="717.7611" clip-path="url(#clipPath2)" fill="none" width="62.4403" rx="4" ry="4" height="30"/>
      <text x="762.7032" y="737.4171" clip-path="url(#clipPath2)" font-family="sans-serif" stroke="none" stroke-width="1" xml:space="preserve">André</text>
    </g>
    <g fill="white" text-rendering="geometricPrecision" shape-rendering="geometricPrecision" transform="matrix(1,0,0,1,-667,-492)" stroke="white">
      <rect x="977.6803" y="654.803" clip-path="url(#clipPath2)" width="62.4403" rx="4" ry="4" height="30" stroke="none"/>
    </g>
    <g text-rendering="geometricPrecision" stroke-miterlimit="1.45" stroke-width="2" shape-rendering="geometricPrecision" transform="matrix(1,0,0,1,-667,-492)" stroke-linecap="butt">
      <rect x="977.6803" y="654.803" clip-path="url(#clipPath2)" fill="none" width="62.4403" rx="4" ry="4" height="30"/>
      <text x="996.2824" y="674.459" clip-path="url(#clipPath2)" font-family="sans-serif" stroke="none" stroke-width="1" xml:space="preserve">Nico</text>
    </g>
    <g fill="white" text-rendering="geometricPrecision" shape-rendering="geometricPrecision" transform="matrix(1,0,0,1,-667,-492)" stroke="white">
      <rect x="1159.1933" y="714.803" clip-path="url(#clipPath2)" width="62.4403" rx="4" ry="4" height="30" stroke="none"/>
    </g>
    <g text-rendering="geometricPrecision" stroke-miterlimit="1.45" stroke-width="2" shape-rendering="geometricPrecision" transform="matrix(1,0,0,1,-667,-492)" stroke-linecap="butt">
      <rect x="1159.1933" y="714.803" clip-path="url(#clipPath2)" fill="none" width="62.4403" rx="4" ry="4" height="30"/>
      <text x="1178.5333" y="734.459" clip-path="url(#clipPath2)" font-family="sans-serif" stroke="none" stroke-width="1" xml:space="preserve">Tião</text>
      <path fill="none" d="M908.4087 537.5366 L847.8162 569.4808" stroke-width="1" clip-path="url(#clipPath2)"/>
      <path d="M840.7394 573.2117 L853.6864 572.0383 L848.7008 569.0144 L849.0228 563.1924 Z" stroke-width="1" clip-path="url(#clipPath2)" stroke="none"/>
      <path fill="none" d="M794.4019 603.0651 L737.9661 649.7007" stroke-width="1" clip-path="url(#clipPath2)"/>
      <path d="M731.7991 654.7968 L744.2345 651.0071 L738.7369 649.0638 L737.8645 643.2985 Z" stroke-width="1" clip-path="url(#clipPath2)" stroke="none"/>
      <path fill="none" d="M828.915 603.0651 L879.5499 649.381" stroke-width="1" clip-path="url(#clipPath2)"/>
      <path d="M885.4529 654.7805 L879.9731 642.9919 L878.812 648.7061 L873.2237 650.3706 Z" stroke-width="1" clip-path="url(#clipPath2)" stroke="none"/>
      <path fill="none" d="M963.4364 537.6644 L1019.8026 569.1734" stroke-width="1" clip-path="url(#clipPath2)"/>
      <path d="M1026.7855 573.0769 L1018.7507 562.8572 L1018.9296 568.6854 L1013.8713 571.586 Z" stroke-width="1" clip-path="url(#clipPath2)" stroke="none"/>
      <path fill="none" d="M1068.3998 603.0651 L1113.7711 649.0837" stroke-width="1" clip-path="url(#clipPath2)"/>
      <path d="M1119.3878 654.7805 L1114.5233 642.7249 L1113.0691 648.3716 L1107.4023 649.7457 Z" stroke-width="1" clip-path="url(#clipPath2)" stroke="none"/>
      <path fill="none" d="M729.3713 684.774 L758.2194 712.2267" stroke-width="1" clip-path="url(#clipPath2)"/>
      <path d="M764.0146 717.7417 L758.7686 705.8472 L757.4949 711.5374 L751.8748 713.0912 Z" stroke-width="1" clip-path="url(#clipPath2)" stroke="none"/>
      <path fill="none" d="M1045.4373 603.0451 L1020.9656 647.7582" stroke-width="1" clip-path="url(#clipPath2)"/>
      <path d="M1017.1249 654.7759 L1027.2721 646.6498 L1021.4457 646.881 L1018.4999 641.8489 Z" stroke-width="1" clip-path="url(#clipPath2)" stroke="none"/>
      <path fill="none" d="M995.6325 684.774 L971.721 711.7546" stroke-width="1" clip-path="url(#clipPath2)"/>
      <path d="M966.4149 717.7417 L978.116 712.0773 L972.3843 711.0062 L970.6321 705.4447 Z" stroke-width="1" clip-path="url(#clipPath2)" stroke="none"/>
      <path fill="none" d="M1023.8478 684.774 L1051.1108 712.0804" stroke-width="1" clip-path="url(#clipPath2)"/>
      <path d="M1056.7632 717.7417 L1051.823 705.717 L1050.4043 711.3727 L1044.7463 712.7824 Z" stroke-width="1" clip-path="url(#clipPath2)" stroke="none"/>
      <path fill="none" d="M1148.2252 684.7737 L1170.8741 708.9479" stroke-width="1" clip-path="url(#clipPath2)"/>
      <path d="M1176.3439 714.7859 L1171.7881 702.6103 L1170.1904 708.2181 L1164.4906 709.4474 Z" stroke-width="1" clip-path="url(#clipPath2)" stroke="none"/>
    </g>
  </g>
</svg>
