<?xml version="1.0" encoding="UTF-8"?><svg xmlns="http://www.w3.org/2000/svg" xmlns:xlink="http://www.w3.org/1999/xlink" fill-opacity="1" color-rendering="auto" color-interpolation="auto" text-rendering="auto" stroke="black" stroke-linecap="square" width="931" stroke-miterlimit="10" shape-rendering="auto" stroke-opacity="1" fill="black" stroke-dasharray="none" font-weight="normal" stroke-width="1" height="320" font-family="'Dialog'" font-style="normal" stroke-linejoin="miter" font-size="12px" stroke-dashoffset="0" image-rendering="auto">
  <!--Generated by ySVG 2.5-->
  <defs id="genericDefs"/>
  <g>
    <defs id="defs1">
      <clipPath clipPathUnits="userSpaceOnUse" id="clipPath1">
        <path d="M0 0 L931 0 L931 320 L0 320 L0 0 Z"/>
      </clipPath>
      <clipPath clipPathUnits="userSpaceOnUse" id="clipPath2">
        <path d="M480 915 L1411 915 L1411 1235 L480 1235 L480 915 Z"/>
      </clipPath>
    </defs>
    <g fill="white" text-rendering="geometricPrecision" shape-rendering="geometricPrecision" transform="translate(-480,-915)" stroke="white">
      <rect x="480" width="931" height="320" y="915" clip-path="url(#clipPath2)" stroke="none"/>
    </g>
    <g fill="white" text-rendering="geometricPrecision" shape-rendering="geometricPrecision" transform="matrix(1,0,0,1,-480,-915)" stroke="white">
      <rect x="904.12" y="930.7552" clip-path="url(#clipPath2)" width="30" rx="4" ry="4" height="30" stroke="none"/>
    </g>
    <g text-rendering="geometricPrecision" stroke-miterlimit="1.45" stroke-width="3" shape-rendering="geometricPrecision" transform="matrix(1,0,0,1,-480,-915)" stroke-linecap="butt">
      <rect x="904.12" y="930.7552" clip-path="url(#clipPath2)" fill="none" width="30" rx="4" ry="4" height="30"/>
      <text x="911.72" y="949.4422" clip-path="url(#clipPath2)" font-family="sans-serif" stroke="none" stroke-width="1" xml:space="preserve">63</text>
    </g>
    <g fill="white" text-rendering="geometricPrecision" shape-rendering="geometricPrecision" transform="matrix(1,0,0,1,-480,-915)" stroke="white">
      <rect x="719.68" y="998.6328" clip-path="url(#clipPath2)" width="30" rx="4" ry="4" height="30" stroke="none"/>
    </g>
    <g text-rendering="geometricPrecision" stroke-miterlimit="1.45" stroke-width="3" shape-rendering="geometricPrecision" transform="matrix(1,0,0,1,-480,-915)" stroke-linecap="butt">
      <rect x="719.68" y="998.6328" clip-path="url(#clipPath2)" fill="none" width="30" rx="4" ry="4" height="30"/>
      <text x="727.2801" y="1017.3198" clip-path="url(#clipPath2)" font-family="sans-serif" stroke="none" stroke-width="1" xml:space="preserve">24</text>
    </g>
    <g fill="white" text-rendering="geometricPrecision" shape-rendering="geometricPrecision" transform="matrix(1,0,0,1,-480,-915)" stroke="white">
      <rect x="1216.92" y="998.6328" clip-path="url(#clipPath2)" width="30" rx="4" ry="4" height="30" stroke="none"/>
    </g>
    <g text-rendering="geometricPrecision" stroke-miterlimit="1.45" stroke-width="3" shape-rendering="geometricPrecision" transform="matrix(1,0,0,1,-480,-915)" stroke-linecap="butt">
      <rect x="1216.92" y="998.6328" clip-path="url(#clipPath2)" fill="none" width="30" rx="4" ry="4" height="30"/>
      <text x="1224.52" y="1017.3198" clip-path="url(#clipPath2)" font-family="sans-serif" stroke="none" stroke-width="1" xml:space="preserve">89</text>
    </g>
    <g fill="white" text-rendering="geometricPrecision" shape-rendering="geometricPrecision" transform="matrix(1,0,0,1,-480,-915)" stroke="white">
      <rect x="574.4" y="1092.388" clip-path="url(#clipPath2)" width="79.28" rx="4" ry="4" height="30" stroke="none"/>
    </g>
    <g text-rendering="geometricPrecision" stroke-miterlimit="1.45" stroke-width="3" shape-rendering="geometricPrecision" transform="matrix(1,0,0,1,-480,-915)" stroke-linecap="butt">
      <rect x="574.4" y="1092.388" clip-path="url(#clipPath2)" fill="none" width="79.28" rx="4" ry="4" height="30"/>
      <text x="584.8556" y="1111.075" clip-path="url(#clipPath2)" font-family="sans-serif" stroke="none" stroke-width="1" xml:space="preserve">15         20</text>
    </g>
    <g fill="white" text-rendering="geometricPrecision" shape-rendering="geometricPrecision" transform="matrix(1,0,0,1,-480,-915)" stroke="white">
      <rect x="495.52" y="1189.0952" clip-path="url(#clipPath2)" width="73.52" rx="4" ry="4" height="30" stroke="none"/>
    </g>
    <g text-rendering="geometricPrecision" stroke-miterlimit="1.45" stroke-width="3" shape-rendering="geometricPrecision" transform="matrix(1,0,0,1,-480,-915)" stroke-linecap="butt">
      <rect x="495.52" y="1189.0952" clip-path="url(#clipPath2)" fill="none" width="73.52" rx="4" ry="4" height="30"/>
      <text x="508.5025" y="1207.7822" clip-path="url(#clipPath2)" font-family="sans-serif" stroke="none" stroke-width="1" xml:space="preserve">2          4</text>
    </g>
    <g fill="white" text-rendering="geometricPrecision" shape-rendering="geometricPrecision" transform="matrix(1,0,0,1,-480,-915)" stroke="white">
      <rect x="599.04" y="1189.0952" clip-path="url(#clipPath2)" width="30" rx="4" ry="4" height="30" stroke="none"/>
    </g>
    <g text-rendering="geometricPrecision" stroke-miterlimit="1.45" stroke-width="3" shape-rendering="geometricPrecision" transform="matrix(1,0,0,1,-480,-915)" stroke-linecap="butt">
      <rect x="599.04" y="1189.0952" clip-path="url(#clipPath2)" fill="none" width="30" rx="4" ry="4" height="30"/>
      <text x="606.6401" y="1207.7822" clip-path="url(#clipPath2)" font-family="sans-serif" stroke="none" stroke-width="1" xml:space="preserve">18</text>
    </g>
    <g fill="white" text-rendering="geometricPrecision" shape-rendering="geometricPrecision" transform="matrix(1,0,0,1,-480,-915)" stroke="white">
      <rect x="727.72" y="1189.0952" clip-path="url(#clipPath2)" width="129.2" rx="4" ry="4" height="30" stroke="none"/>
    </g>
    <g text-rendering="geometricPrecision" stroke-miterlimit="1.45" stroke-width="3" shape-rendering="geometricPrecision" transform="matrix(1,0,0,1,-480,-915)" stroke-linecap="butt">
      <rect x="727.72" y="1189.0952" clip-path="url(#clipPath2)" fill="none" width="129.2" rx="4" ry="4" height="30"/>
      <text x="738.2197" y="1207.7822" clip-path="url(#clipPath2)" font-family="sans-serif" stroke="none" stroke-width="1" xml:space="preserve">25          27          46</text>
    </g>
    <g fill="white" text-rendering="geometricPrecision" shape-rendering="geometricPrecision" transform="matrix(1,0,0,1,-480,-915)" stroke="white">
      <rect x="886.92" y="1189.0952" clip-path="url(#clipPath2)" width="140.72" rx="4" ry="4" height="30" stroke="none"/>
    </g>
    <g text-rendering="geometricPrecision" stroke-miterlimit="1.45" stroke-width="3" shape-rendering="geometricPrecision" transform="matrix(1,0,0,1,-480,-915)" stroke-linecap="butt">
      <rect x="886.92" y="1189.0952" clip-path="url(#clipPath2)" fill="none" width="140.72" rx="4" ry="4" height="30"/>
      <text x="902.9739" y="1207.7822" clip-path="url(#clipPath2)" font-family="sans-serif" stroke="none" stroke-width="1" xml:space="preserve">57          58          61</text>
    </g>
    <g fill="white" text-rendering="geometricPrecision" shape-rendering="geometricPrecision" transform="matrix(1,0,0,1,-480,-915)" stroke="white">
      <rect x="1138.6" y="1092.388" clip-path="url(#clipPath2)" width="30" rx="4" ry="4" height="30" stroke="none"/>
    </g>
    <g text-rendering="geometricPrecision" stroke-miterlimit="1.45" stroke-width="3" shape-rendering="geometricPrecision" transform="matrix(1,0,0,1,-480,-915)" stroke-linecap="butt">
      <rect x="1138.6" y="1092.388" clip-path="url(#clipPath2)" fill="none" width="30" rx="4" ry="4" height="30"/>
      <text x="1146.2001" y="1111.075" clip-path="url(#clipPath2)" font-family="sans-serif" stroke="none" stroke-width="1" xml:space="preserve">80</text>
    </g>
    <g fill="white" text-rendering="geometricPrecision" shape-rendering="geometricPrecision" transform="matrix(1,0,0,1,-480,-915)" stroke="white">
      <rect x="1333.64" y="1092.388" clip-path="url(#clipPath2)" width="30" rx="4" ry="4" height="30" stroke="none"/>
    </g>
    <g text-rendering="geometricPrecision" stroke-miterlimit="1.45" stroke-width="3" shape-rendering="geometricPrecision" transform="matrix(1,0,0,1,-480,-915)" stroke-linecap="butt">
      <rect x="1333.64" y="1092.388" clip-path="url(#clipPath2)" fill="none" width="30" rx="4" ry="4" height="30"/>
      <text x="1341.2401" y="1111.075" clip-path="url(#clipPath2)" font-family="sans-serif" stroke="none" stroke-width="1" xml:space="preserve">96</text>
    </g>
    <g fill="white" text-rendering="geometricPrecision" shape-rendering="geometricPrecision" transform="matrix(1,0,0,1,-480,-915)" stroke="white">
      <rect x="1057.64" y="1189.0952" clip-path="url(#clipPath2)" width="90.8" rx="4" ry="4" height="30" stroke="none"/>
    </g>
    <g text-rendering="geometricPrecision" stroke-miterlimit="1.45" stroke-width="3" shape-rendering="geometricPrecision" transform="matrix(1,0,0,1,-480,-915)" stroke-linecap="butt">
      <rect x="1057.64" y="1189.0952" clip-path="url(#clipPath2)" fill="none" width="90.8" rx="4" ry="4" height="30"/>
      <text x="1072.0898" y="1207.7822" clip-path="url(#clipPath2)" font-family="sans-serif" stroke="none" stroke-width="1" xml:space="preserve">75          78</text>
    </g>
    <g fill="white" text-rendering="geometricPrecision" shape-rendering="geometricPrecision" transform="matrix(1,0,0,1,-480,-915)" stroke="white">
      <rect x="1165" y="1189.0952" clip-path="url(#clipPath2)" width="90.8" rx="4" ry="4" height="30" stroke="none"/>
    </g>
    <g text-rendering="geometricPrecision" stroke-miterlimit="1.45" stroke-width="3" shape-rendering="geometricPrecision" transform="matrix(1,0,0,1,-480,-915)" stroke-linecap="butt">
      <rect x="1165" y="1189.0952" clip-path="url(#clipPath2)" fill="none" width="90.8" rx="4" ry="4" height="30"/>
      <text x="1179.4498" y="1207.7822" clip-path="url(#clipPath2)" font-family="sans-serif" stroke="none" stroke-width="1" xml:space="preserve">85          86</text>
    </g>
    <g fill="white" text-rendering="geometricPrecision" shape-rendering="geometricPrecision" transform="matrix(1,0,0,1,-480,-915)" stroke="white">
      <rect x="1305.36" y="1189.0952" clip-path="url(#clipPath2)" width="30" rx="4" ry="4" height="30" stroke="none"/>
    </g>
    <g text-rendering="geometricPrecision" stroke-miterlimit="1.45" stroke-width="3" shape-rendering="geometricPrecision" transform="matrix(1,0,0,1,-480,-915)" stroke-linecap="butt">
      <rect x="1305.36" y="1189.0952" clip-path="url(#clipPath2)" fill="none" width="30" rx="4" ry="4" height="30"/>
      <text x="1312.9601" y="1207.7822" clip-path="url(#clipPath2)" font-family="sans-serif" stroke="none" stroke-width="1" xml:space="preserve">63</text>
    </g>
    <g fill="white" text-rendering="geometricPrecision" shape-rendering="geometricPrecision" transform="matrix(1,0,0,1,-480,-915)" stroke="white">
      <rect x="1365.36" y="1189.0952" clip-path="url(#clipPath2)" width="30" rx="4" ry="4" height="30" stroke="none"/>
    </g>
    <g text-rendering="geometricPrecision" stroke-miterlimit="1.45" stroke-width="3" shape-rendering="geometricPrecision" transform="matrix(1,0,0,1,-480,-915)" stroke-linecap="butt">
      <rect x="1365.36" y="1189.0952" clip-path="url(#clipPath2)" fill="none" width="30" rx="4" ry="4" height="30"/>
      <text x="1372.9601" y="1207.7822" clip-path="url(#clipPath2)" font-family="sans-serif" stroke="none" stroke-width="1" xml:space="preserve">63</text>
    </g>
    <g fill="white" text-rendering="geometricPrecision" shape-rendering="geometricPrecision" transform="matrix(1,0,0,1,-480,-915)" stroke="white">
      <rect x="857.4221" y="1081.0704" clip-path="url(#clipPath2)" width="30" rx="4" ry="4" height="30" stroke="none"/>
    </g>
    <g text-rendering="geometricPrecision" stroke-miterlimit="1.45" stroke-width="3" shape-rendering="geometricPrecision" transform="matrix(1,0,0,1,-480,-915)" stroke-linecap="butt">
      <rect x="857.4221" y="1081.0704" clip-path="url(#clipPath2)" fill="none" width="30" rx="4" ry="4" height="30"/>
      <text x="865.0222" y="1099.7573" clip-path="url(#clipPath2)" font-family="sans-serif" stroke="none" stroke-width="1" xml:space="preserve">52</text>
    </g>
    <g fill="white" text-rendering="geometricPrecision" shape-rendering="geometricPrecision" transform="matrix(1,0,0,1,-480,-915)" stroke="white">
      <rect x="651.096" y="1189.0952" clip-path="url(#clipPath2)" width="30" rx="4" ry="4" height="30" stroke="none"/>
    </g>
    <g text-rendering="geometricPrecision" stroke-miterlimit="1.45" stroke-width="3" shape-rendering="geometricPrecision" transform="matrix(1,0,0,1,-480,-915)" stroke-linecap="butt">
      <rect x="651.096" y="1189.0952" clip-path="url(#clipPath2)" fill="none" width="30" rx="4" ry="4" height="30"/>
      <text x="658.696" y="1207.7822" clip-path="url(#clipPath2)" font-family="sans-serif" stroke="none" stroke-width="1" xml:space="preserve">21</text>
      <path fill="none" d="M904.1252 945.7552 L734.68 945.7552 L734.68 990.6188" stroke-width="1" clip-path="url(#clipPath2)"/>
      <path d="M734.68 998.6188 L739.68 986.6188 L734.68 989.6188 L729.68 986.6188 Z" stroke-width="1" clip-path="url(#clipPath2)" stroke="none"/>
      <path fill="none" d="M934.1262 945.7552 L1231.92 945.7552 L1231.92 990.6188" stroke-width="1" clip-path="url(#clipPath2)"/>
      <path d="M1231.92 998.6188 L1236.92 986.6188 L1231.92 989.6188 L1226.92 986.6188 Z" stroke-width="1" clip-path="url(#clipPath2)" stroke="none"/>
      <path fill="none" d="M719.6884 1013.6328 L614.04 1013.6328 L614.04 1084.4183" stroke-width="1" clip-path="url(#clipPath2)"/>
      <path d="M614.04 1092.4183 L619.04 1080.4183 L614.04 1083.4183 L609.04 1080.4183 Z" stroke-width="1" clip-path="url(#clipPath2)" stroke="none"/>
      <path fill="none" d="M574.3976 1107.3879 L532.28 1107.3879 L532.28 1181.1263" stroke-width="1" clip-path="url(#clipPath2)"/>
      <path d="M532.28 1189.1263 L537.28 1177.1263 L532.28 1180.1263 L527.28 1177.1263 Z" stroke-width="1" clip-path="url(#clipPath2)" stroke="none"/>
      <path fill="none" d="M614.04 1122.3568 L614.04 1181.1284" stroke-width="1" clip-path="url(#clipPath2)"/>
      <path d="M614.04 1189.1284 L619.04 1177.1284 L614.04 1180.1284 L609.04 1177.1284 Z" stroke-width="1" clip-path="url(#clipPath2)" stroke="none"/>
      <path fill="none" d="M1216.8909 1013.6328 L1153.6 1013.6328 L1153.6 1084.4183" stroke-width="1" clip-path="url(#clipPath2)"/>
      <path d="M1153.6 1092.4183 L1158.6 1080.4183 L1153.6 1083.4183 L1148.6 1080.4183 Z" stroke-width="1" clip-path="url(#clipPath2)" stroke="none"/>
      <path fill="none" d="M1246.9375 1013.6328 L1348.64 1013.6328 L1348.64 1084.4183" stroke-width="1" clip-path="url(#clipPath2)"/>
      <path d="M1348.64 1092.4183 L1353.64 1080.4183 L1348.64 1083.4183 L1343.64 1080.4183 Z" stroke-width="1" clip-path="url(#clipPath2)" stroke="none"/>
      <path fill="none" d="M1138.6394 1107.3879 L1103.04 1107.3879 L1103.04 1181.1263" stroke-width="1" clip-path="url(#clipPath2)"/>
      <path d="M1103.04 1189.1263 L1108.04 1177.1263 L1103.04 1180.1263 L1098.04 1177.1263 Z" stroke-width="1" clip-path="url(#clipPath2)" stroke="none"/>
      <path fill="none" d="M1168.6042 1107.3879 L1210.4 1107.3879 L1210.4 1181.1263" stroke-width="1" clip-path="url(#clipPath2)"/>
      <path d="M1210.4 1189.1263 L1215.4 1177.1263 L1210.4 1180.1263 L1205.4 1177.1263 Z" stroke-width="1" clip-path="url(#clipPath2)" stroke="none"/>
      <path fill="none" d="M1333.6411 1107.3879 L1319.496 1107.3879 L1320.1548 1181.1267" stroke-width="1" clip-path="url(#clipPath2)"/>
      <path d="M1320.2263 1189.1263 L1325.1188 1177.0822 L1320.1459 1180.1267 L1315.1193 1177.1715 Z" stroke-width="1" clip-path="url(#clipPath2)" stroke="none"/>
      <path fill="none" d="M1363.6636 1107.3879 L1380.36 1107.3879 L1380.36 1181.1263" stroke-width="1" clip-path="url(#clipPath2)"/>
      <path d="M1380.36 1189.1263 L1385.36 1177.1263 L1380.36 1180.1263 L1375.36 1177.1263 Z" stroke-width="1" clip-path="url(#clipPath2)" stroke="none"/>
      <path fill="none" d="M749.7119 1014.0012 L872.4221 1017.008 L872.4221 1073.0532" stroke-width="1" clip-path="url(#clipPath2)"/>
      <path d="M872.4221 1081.0532 L877.4221 1069.0532 L872.4221 1072.0532 L867.4221 1069.0532 Z" stroke-width="1" clip-path="url(#clipPath2)" stroke="none"/>
      <path fill="none" d="M857.4421 1096.0704 L792.32 1096.0704 L792.32 1181.0889" stroke-width="1" clip-path="url(#clipPath2)"/>
      <path d="M792.32 1189.0889 L797.32 1177.0889 L792.32 1180.0889 L787.32 1177.0889 Z" stroke-width="1" clip-path="url(#clipPath2)" stroke="none"/>
      <path fill="none" d="M887.4628 1096.0704 L957.28 1096.0704 L957.28 1181.0889" stroke-width="1" clip-path="url(#clipPath2)"/>
      <path d="M957.28 1189.0889 L962.28 1177.0889 L957.28 1180.0889 L952.28 1177.0889 Z" stroke-width="1" clip-path="url(#clipPath2)" stroke="none"/>
      <path fill="none" d="M653.6666 1107.3879 L666.096 1107.3879 L666.096 1181.1263" stroke-width="1" clip-path="url(#clipPath2)"/>
      <path d="M666.096 1189.1263 L671.096 1177.1263 L666.096 1180.1263 L661.096 1177.1263 Z" stroke-width="1" clip-path="url(#clipPath2)" stroke="none"/>
    </g>
  </g>
</svg>
