<?xml version="1.0" encoding="UTF-8"?><svg xmlns="http://www.w3.org/2000/svg" xmlns:xlink="http://www.w3.org/1999/xlink" fill-opacity="1" color-rendering="auto" color-interpolation="auto" text-rendering="auto" stroke="black" stroke-linecap="square" width="852" stroke-miterlimit="10" shape-rendering="auto" stroke-opacity="1" fill="black" stroke-dasharray="none" font-weight="normal" stroke-width="1" height="315" font-family="'Dialog'" font-style="normal" stroke-linejoin="miter" font-size="12px" stroke-dashoffset="0" image-rendering="auto">
  <!--Generated by ySVG 2.5-->
  <defs id="genericDefs"/>
  <g>
    <defs id="defs1">
      <clipPath clipPathUnits="userSpaceOnUse" id="clipPath1">
        <path d="M0 0 L852 0 L852 315 L0 315 L0 0 Z"/>
      </clipPath>
      <clipPath clipPathUnits="userSpaceOnUse" id="clipPath2">
        <path d="M-205 34 L647 34 L647 349 L-205 349 L-205 34 Z"/>
      </clipPath>
    </defs>
    <g fill="white" text-rendering="geometricPrecision" shape-rendering="geometricPrecision" transform="translate(205,-34)" stroke="white">
      <rect x="-205" width="852" height="315" y="34" clip-path="url(#clipPath2)" stroke="none"/>
    </g>
    <g fill="white" text-rendering="geometricPrecision" shape-rendering="geometricPrecision" transform="matrix(1,0,0,1,205,-34)" stroke="white">
      <rect x="129.56" y="49.3776" clip-path="url(#clipPath2)" width="161.3997" rx="4" ry="4" height="30" stroke="none"/>
    </g>
    <g text-rendering="geometricPrecision" stroke-miterlimit="1.45" stroke-width="3" shape-rendering="geometricPrecision" transform="matrix(1,0,0,1,205,-34)" stroke-linecap="butt">
      <rect x="129.56" y="49.3776" clip-path="url(#clipPath2)" fill="none" width="161.3997" rx="4" ry="4" height="30"/>
      <text x="152.4643" y="68.0646" clip-path="url(#clipPath2)" font-family="sans-serif" stroke="none" stroke-width="1" xml:space="preserve">25           58           80</text>
    </g>
    <g fill="white" text-rendering="geometricPrecision" shape-rendering="geometricPrecision" transform="matrix(1,0,0,1,205,-34)" stroke="white">
      <rect x="168.7405" y="163.4464" clip-path="url(#clipPath2)" width="30" rx="4" ry="4" height="30" stroke="none"/>
    </g>
    <g text-rendering="geometricPrecision" stroke-miterlimit="1.45" stroke-width="3" shape-rendering="geometricPrecision" transform="matrix(1,0,0,1,205,-34)" stroke-linecap="butt">
      <rect x="168.7405" y="163.4464" clip-path="url(#clipPath2)" fill="none" width="30" rx="4" ry="4" height="30"/>
      <text x="176.8765" y="183.1024" clip-path="url(#clipPath2)" font-family="sans-serif" stroke="none" stroke-width="1" xml:space="preserve">52</text>
    </g>
    <g fill="white" text-rendering="geometricPrecision" shape-rendering="geometricPrecision" transform="matrix(1,0,0,1,205,-34)" stroke="white">
      <rect x="-152.4723" y="185.1293" clip-path="url(#clipPath2)" width="88.9824" rx="4" ry="4" height="30" stroke="none"/>
    </g>
    <g text-rendering="geometricPrecision" stroke-miterlimit="1.45" stroke-width="3" shape-rendering="geometricPrecision" transform="matrix(1,0,0,1,205,-34)" stroke-linecap="butt">
      <rect x="-152.4723" y="185.1293" clip-path="url(#clipPath2)" fill="none" width="88.9824" rx="4" ry="4" height="30"/>
      <text x="-133.8773" y="204.7853" clip-path="url(#clipPath2)" font-family="sans-serif" stroke="none" stroke-width="1" xml:space="preserve">4          20</text>
    </g>
    <g fill="white" text-rendering="geometricPrecision" shape-rendering="geometricPrecision" transform="matrix(1,0,0,1,205,-34)" stroke="white">
      <rect x="-189.9094" y="303.8186" clip-path="url(#clipPath2)" width="30" rx="4" ry="4" height="30" stroke="none"/>
    </g>
    <g text-rendering="geometricPrecision" stroke-miterlimit="1.45" stroke-width="3" shape-rendering="geometricPrecision" transform="matrix(1,0,0,1,205,-34)" stroke-linecap="butt">
      <rect x="-189.9094" y="303.8186" clip-path="url(#clipPath2)" fill="none" width="30" rx="4" ry="4" height="30"/>
      <text x="-178.3415" y="323.4746" clip-path="url(#clipPath2)" font-family="sans-serif" stroke="none" stroke-width="1" xml:space="preserve">2</text>
    </g>
    <g fill="white" text-rendering="geometricPrecision" shape-rendering="geometricPrecision" transform="matrix(1,0,0,1,205,-34)" stroke="white">
      <rect x="195.2598" y="303.8186" clip-path="url(#clipPath2)" width="30" rx="4" ry="4" height="30" stroke="none"/>
    </g>
    <g text-rendering="geometricPrecision" stroke-miterlimit="1.45" stroke-width="3" shape-rendering="geometricPrecision" transform="matrix(1,0,0,1,205,-34)" stroke-linecap="butt">
      <rect x="195.2598" y="303.8186" clip-path="url(#clipPath2)" fill="none" width="30" rx="4" ry="4" height="30"/>
      <text x="203.3958" y="323.4746" clip-path="url(#clipPath2)" font-family="sans-serif" stroke="none" stroke-width="1" xml:space="preserve">57</text>
    </g>
    <g fill="white" text-rendering="geometricPrecision" shape-rendering="geometricPrecision" transform="matrix(1,0,0,1,205,-34)" stroke="white">
      <rect x="348.8864" y="303.8186" clip-path="url(#clipPath2)" width="30" rx="4" ry="4" height="30" stroke="none"/>
    </g>
    <g text-rendering="geometricPrecision" stroke-miterlimit="1.45" stroke-width="3" shape-rendering="geometricPrecision" transform="matrix(1,0,0,1,205,-34)" stroke-linecap="butt">
      <rect x="348.8864" y="303.8186" clip-path="url(#clipPath2)" fill="none" width="30" rx="4" ry="4" height="30"/>
      <text x="357.0224" y="323.4746" clip-path="url(#clipPath2)" font-family="sans-serif" stroke="none" stroke-width="1" xml:space="preserve">78</text>
    </g>
    <g fill="white" text-rendering="geometricPrecision" shape-rendering="geometricPrecision" transform="matrix(1,0,0,1,205,-34)" stroke="white">
      <rect x="284.751" y="168.5664" clip-path="url(#clipPath2)" width="30" rx="4" ry="4" height="30" stroke="none"/>
    </g>
    <g text-rendering="geometricPrecision" stroke-miterlimit="1.45" stroke-width="3" shape-rendering="geometricPrecision" transform="matrix(1,0,0,1,205,-34)" stroke-linecap="butt">
      <rect x="284.751" y="168.5664" clip-path="url(#clipPath2)" fill="none" width="30" rx="4" ry="4" height="30"/>
      <text x="292.887" y="188.2224" clip-path="url(#clipPath2)" font-family="sans-serif" stroke="none" stroke-width="1" xml:space="preserve">75</text>
    </g>
    <g fill="white" text-rendering="geometricPrecision" shape-rendering="geometricPrecision" transform="matrix(1,0,0,1,205,-34)" stroke="white">
      <rect x="-152.4723" y="303.8186" clip-path="url(#clipPath2)" width="88.9824" rx="4" ry="4" height="30" stroke="none"/>
    </g>
    <g text-rendering="geometricPrecision" stroke-miterlimit="1.45" stroke-width="3" shape-rendering="geometricPrecision" transform="matrix(1,0,0,1,205,-34)" stroke-linecap="butt">
      <rect x="-152.4723" y="303.8186" clip-path="url(#clipPath2)" fill="none" width="88.9824" rx="4" ry="4" height="30"/>
      <text x="-137.3093" y="323.4746" clip-path="url(#clipPath2)" font-family="sans-serif" stroke="none" stroke-width="1" xml:space="preserve">15          18</text>
    </g>
    <g fill="white" text-rendering="geometricPrecision" shape-rendering="geometricPrecision" transform="matrix(1,0,0,1,205,-34)" stroke="white">
      <rect x="-56.0528" y="303.8186" clip-path="url(#clipPath2)" width="88.9824" rx="4" ry="4" height="30" stroke="none"/>
    </g>
    <g text-rendering="geometricPrecision" stroke-miterlimit="1.45" stroke-width="3" shape-rendering="geometricPrecision" transform="matrix(1,0,0,1,205,-34)" stroke-linecap="butt">
      <rect x="-56.0528" y="303.8186" clip-path="url(#clipPath2)" fill="none" width="88.9824" rx="4" ry="4" height="30"/>
      <text x="-40.8898" y="323.4746" clip-path="url(#clipPath2)" font-family="sans-serif" stroke="none" stroke-width="1" xml:space="preserve">21          24</text>
    </g>
    <g fill="white" text-rendering="geometricPrecision" shape-rendering="geometricPrecision" transform="matrix(1,0,0,1,205,-34)" stroke="white">
      <rect x="98.5344" y="303.8186" clip-path="url(#clipPath2)" width="88.9824" rx="4" ry="4" height="30" stroke="none"/>
    </g>
    <g text-rendering="geometricPrecision" stroke-miterlimit="1.45" stroke-width="3" shape-rendering="geometricPrecision" transform="matrix(1,0,0,1,205,-34)" stroke-linecap="butt">
      <rect x="98.5344" y="303.8186" clip-path="url(#clipPath2)" fill="none" width="88.9824" rx="4" ry="4" height="30"/>
      <text x="113.6974" y="323.4746" clip-path="url(#clipPath2)" font-family="sans-serif" stroke="none" stroke-width="1" xml:space="preserve">27          46</text>
    </g>
    <g fill="white" text-rendering="geometricPrecision" shape-rendering="geometricPrecision" transform="matrix(1,0,0,1,205,-34)" stroke="white">
      <rect x="255.2598" y="303.8186" clip-path="url(#clipPath2)" width="88.9824" rx="4" ry="4" height="30" stroke="none"/>
    </g>
    <g text-rendering="geometricPrecision" stroke-miterlimit="1.45" stroke-width="3" shape-rendering="geometricPrecision" transform="matrix(1,0,0,1,205,-34)" stroke-linecap="butt">
      <rect x="255.2598" y="303.8186" clip-path="url(#clipPath2)" fill="none" width="88.9824" rx="4" ry="4" height="30"/>
      <text x="270.4228" y="323.4746" clip-path="url(#clipPath2)" font-family="sans-serif" stroke="none" stroke-width="1" xml:space="preserve">61          63</text>
    </g>
    <g fill="white" text-rendering="geometricPrecision" shape-rendering="geometricPrecision" transform="matrix(1,0,0,1,205,-34)" stroke="white">
      <rect x="446.3235" y="185.1293" clip-path="url(#clipPath2)" width="88.9824" rx="4" ry="4" height="30" stroke="none"/>
    </g>
    <g text-rendering="geometricPrecision" stroke-miterlimit="1.45" stroke-width="3" shape-rendering="geometricPrecision" transform="matrix(1,0,0,1,205,-34)" stroke-linecap="butt">
      <rect x="446.3235" y="185.1293" clip-path="url(#clipPath2)" fill="none" width="88.9824" rx="4" ry="4" height="30"/>
      <text x="461.4865" y="204.7853" clip-path="url(#clipPath2)" font-family="sans-serif" stroke="none" stroke-width="1" xml:space="preserve">89          96</text>
    </g>
    <g fill="white" text-rendering="geometricPrecision" shape-rendering="geometricPrecision" transform="matrix(1,0,0,1,205,-34)" stroke="white">
      <rect x="505.3059" y="303.8186" clip-path="url(#clipPath2)" width="30" rx="4" ry="4" height="30" stroke="none"/>
    </g>
    <g text-rendering="geometricPrecision" stroke-miterlimit="1.45" stroke-width="3" shape-rendering="geometricPrecision" transform="matrix(1,0,0,1,205,-34)" stroke-linecap="butt">
      <rect x="505.3059" y="303.8186" clip-path="url(#clipPath2)" fill="none" width="30" rx="4" ry="4" height="30"/>
      <text x="513.4419" y="323.4746" clip-path="url(#clipPath2)" font-family="sans-serif" stroke="none" stroke-width="1" xml:space="preserve">91</text>
    </g>
    <g fill="white" text-rendering="geometricPrecision" shape-rendering="geometricPrecision" transform="matrix(1,0,0,1,205,-34)" stroke="white">
      <rect x="408.8864" y="303.8186" clip-path="url(#clipPath2)" width="88.9824" rx="4" ry="4" height="30" stroke="none"/>
    </g>
    <g text-rendering="geometricPrecision" stroke-miterlimit="1.45" stroke-width="3" shape-rendering="geometricPrecision" transform="matrix(1,0,0,1,205,-34)" stroke-linecap="butt">
      <rect x="408.8864" y="303.8186" clip-path="url(#clipPath2)" fill="none" width="88.9824" rx="4" ry="4" height="30"/>
      <text x="424.0494" y="323.4746" clip-path="url(#clipPath2)" font-family="sans-serif" stroke="none" stroke-width="1" xml:space="preserve">85          86</text>
    </g>
    <g fill="white" text-rendering="geometricPrecision" shape-rendering="geometricPrecision" transform="matrix(1,0,0,1,205,-34)" stroke="white">
      <rect x="542.743" y="303.8186" clip-path="url(#clipPath2)" width="88.9824" rx="4" ry="4" height="30" stroke="none"/>
    </g>
    <g text-rendering="geometricPrecision" stroke-miterlimit="1.45" stroke-width="3" shape-rendering="geometricPrecision" transform="matrix(1,0,0,1,205,-34)" stroke-linecap="butt">
      <rect x="542.743" y="303.8186" clip-path="url(#clipPath2)" fill="none" width="88.9824" rx="4" ry="4" height="30"/>
      <text x="554.474" y="323.4746" clip-path="url(#clipPath2)" font-family="sans-serif" stroke="none" stroke-width="1" xml:space="preserve">97          100</text>
      <path fill="none" d="M183.7405 79.3915 L183.7405 155.4044" stroke-width="1" clip-path="url(#clipPath2)"/>
      <path d="M183.7405 163.4044 L188.7405 151.4044 L183.7405 154.4044 L178.7405 151.4044 Z" stroke-width="1" clip-path="url(#clipPath2)" stroke="none"/>
      <path fill="none" d="M129.573 64.3776 L-107.9811 64.3776 L-107.9811 177.1157" stroke-width="1" clip-path="url(#clipPath2)"/>
      <path d="M-107.9811 185.1157 L-102.9811 173.1157 L-107.9811 176.1157 L-112.9811 173.1157 Z" stroke-width="1" clip-path="url(#clipPath2)" stroke="none"/>
      <path fill="none" d="M-116.4289 215.1103 L-162.5134 296.8357" stroke-width="1" clip-path="url(#clipPath2)"/>
      <path d="M-166.4429 303.8042 L-156.1934 295.8074 L-162.0222 295.9647 L-164.9039 290.8956 Z" stroke-width="1" clip-path="url(#clipPath2)" stroke="none"/>
      <path fill="none" d="M186.5698 193.4226 L205.9465 295.9872" stroke-width="1" clip-path="url(#clipPath2)"/>
      <path d="M207.4316 303.8482 L210.1171 291.1286 L205.7609 295.0046 L200.2909 292.985 Z" stroke-width="1" clip-path="url(#clipPath2)" stroke="none"/>
      <path fill="none" d="M249.6069 79.3855 L289.0708 161.3768" stroke-width="1" clip-path="url(#clipPath2)"/>
      <path d="M292.5404 168.5853 L291.8413 155.6041 L288.6371 160.4758 L282.8307 159.9411 Z" stroke-width="1" clip-path="url(#clipPath2)" stroke="none"/>
      <path fill="none" d="M306.8755 198.5907 L353.3463 296.5909" stroke-width="1" clip-path="url(#clipPath2)"/>
      <path d="M356.774 303.8194 L356.1502 290.8344 L352.9178 295.6874 L347.1146 295.119 Z" stroke-width="1" clip-path="url(#clipPath2)" stroke="none"/>
      <path fill="none" d="M-107.9811 215.1103 L-107.9811 295.8042" stroke-width="1" clip-path="url(#clipPath2)"/>
      <path d="M-107.9811 303.8042 L-102.9811 291.8042 L-107.9811 294.8042 L-112.9811 291.8042 Z" stroke-width="1" clip-path="url(#clipPath2)" stroke="none"/>
      <path fill="none" d="M-95.811 215.1103 L-28.8031 297.5948" stroke-width="1" clip-path="url(#clipPath2)"/>
      <path d="M-23.7588 303.8042 L-27.4444 291.3376 L-29.4336 296.8187 L-35.206 297.6429 Z" stroke-width="1" clip-path="url(#clipPath2)" stroke="none"/>
      <path fill="none" d="M179.3967 193.4226 L149.5963 296.1649" stroke-width="1" clip-path="url(#clipPath2)"/>
      <path d="M147.3678 303.8482 L155.5126 293.716 L149.8749 295.2044 L145.9085 290.9303 Z" stroke-width="1" clip-path="url(#clipPath2)" stroke="none"/>
      <path fill="none" d="M299.751 198.5907 L299.751 295.8194" stroke-width="1" clip-path="url(#clipPath2)"/>
      <path d="M299.751 303.8194 L304.751 291.8194 L299.751 294.8194 L294.751 291.8194 Z" stroke-width="1" clip-path="url(#clipPath2)" stroke="none"/>
      <path fill="none" d="M290.981 64.3776 L490.8147 64.3776 L490.8147 177.1157" stroke-width="1" clip-path="url(#clipPath2)"/>
      <path d="M490.8147 185.1157 L495.8147 173.1157 L490.8147 176.1157 L485.8147 173.1157 Z" stroke-width="1" clip-path="url(#clipPath2)" stroke="none"/>
      <path fill="none" d="M494.5371 215.1103 L514.6461 296.0403" stroke-width="1" clip-path="url(#clipPath2)"/>
      <path d="M516.5753 303.8042 L518.534 290.9526 L514.405 295.0698 L508.8291 293.364 Z" stroke-width="1" clip-path="url(#clipPath2)" stroke="none"/>
      <path fill="none" d="M453.3776 215.1406 L453.3776 295.8085" stroke-width="1" clip-path="url(#clipPath2)"/>
      <path d="M453.3776 303.8085 L458.3776 291.8085 L453.3776 294.8085 L448.3776 291.8085 Z" stroke-width="1" clip-path="url(#clipPath2)" stroke="none"/>
      <path fill="none" d="M535.3283 200.1293 L577.4772 296.5078" stroke-width="1" clip-path="url(#clipPath2)"/>
      <path d="M580.6826 303.8375 L580.4556 290.8395 L577.0765 295.5916 L571.2933 294.8463 Z" stroke-width="1" clip-path="url(#clipPath2)" stroke="none"/>
    </g>
  </g>
</svg>
