<?xml version="1.0" encoding="UTF-8"?><svg xmlns="http://www.w3.org/2000/svg" xmlns:xlink="http://www.w3.org/1999/xlink" fill-opacity="1" color-rendering="auto" color-interpolation="auto" text-rendering="auto" stroke="black" stroke-linecap="square" width="1069" stroke-miterlimit="10" shape-rendering="auto" stroke-opacity="1" fill="black" stroke-dasharray="none" font-weight="normal" stroke-width="1" height="319" font-family="'Dialog'" font-style="normal" stroke-linejoin="miter" font-size="12px" stroke-dashoffset="0" image-rendering="auto">
  <!--Generated by ySVG 2.5-->
  <defs id="genericDefs"/>
  <g>
    <defs id="defs1">
      <clipPath clipPathUnits="userSpaceOnUse" id="clipPath1">
        <path d="M0 0 L1069 0 L1069 319 L0 319 L0 0 Z"/>
      </clipPath>
      <clipPath clipPathUnits="userSpaceOnUse" id="clipPath2">
        <path d="M758 442 L1827 442 L1827 761 L758 761 L758 442 Z"/>
      </clipPath>
    </defs>
    <g fill="white" text-rendering="geometricPrecision" shape-rendering="geometricPrecision" transform="translate(-758,-442)" stroke="white">
      <rect x="758" width="1069" height="319" y="442" clip-path="url(#clipPath2)" stroke="none"/>
    </g>
    <g fill="white" text-rendering="geometricPrecision" shape-rendering="geometricPrecision" transform="matrix(1,0,0,1,-758,-442)" stroke="white">
      <rect x="1163.12" y="457.2552" clip-path="url(#clipPath2)" width="30" rx="4" ry="4" height="30" stroke="none"/>
    </g>
    <g text-rendering="geometricPrecision" stroke-miterlimit="1.45" stroke-width="3" shape-rendering="geometricPrecision" transform="matrix(1,0,0,1,-758,-442)" stroke-linecap="butt">
      <rect x="1163.12" y="457.2552" clip-path="url(#clipPath2)" fill="none" width="30" rx="4" ry="4" height="30"/>
      <text x="1170.7201" y="475.9422" clip-path="url(#clipPath2)" font-family="sans-serif" stroke="none" stroke-width="1" xml:space="preserve">56</text>
    </g>
    <g fill="white" text-rendering="geometricPrecision" shape-rendering="geometricPrecision" transform="matrix(1,0,0,1,-758,-442)" stroke="white">
      <rect x="978.68" y="525.1328" clip-path="url(#clipPath2)" width="30" rx="4" ry="4" height="30" stroke="none"/>
    </g>
    <g text-rendering="geometricPrecision" stroke-miterlimit="1.45" stroke-width="3" shape-rendering="geometricPrecision" transform="matrix(1,0,0,1,-758,-442)" stroke-linecap="butt">
      <rect x="978.68" y="525.1328" clip-path="url(#clipPath2)" fill="none" width="30" rx="4" ry="4" height="30"/>
      <text x="986.2801" y="543.8198" clip-path="url(#clipPath2)" font-family="sans-serif" stroke="none" stroke-width="1" xml:space="preserve">35</text>
    </g>
    <g fill="white" text-rendering="geometricPrecision" shape-rendering="geometricPrecision" transform="matrix(1,0,0,1,-758,-442)" stroke="white">
      <rect x="1475.92" y="525.1328" clip-path="url(#clipPath2)" width="30" rx="4" ry="4" height="30" stroke="none"/>
    </g>
    <g text-rendering="geometricPrecision" stroke-miterlimit="1.45" stroke-width="3" shape-rendering="geometricPrecision" transform="matrix(1,0,0,1,-758,-442)" stroke-linecap="butt">
      <rect x="1475.92" y="525.1328" clip-path="url(#clipPath2)" fill="none" width="30" rx="4" ry="4" height="30"/>
      <text x="1483.52" y="543.8198" clip-path="url(#clipPath2)" font-family="sans-serif" stroke="none" stroke-width="1" xml:space="preserve">74</text>
    </g>
    <g fill="white" text-rendering="geometricPrecision" shape-rendering="geometricPrecision" transform="matrix(1,0,0,1,-758,-442)" stroke="white">
      <rect x="858.04" y="618.888" clip-path="url(#clipPath2)" width="30" rx="4" ry="4" height="30" stroke="none"/>
    </g>
    <g text-rendering="geometricPrecision" stroke-miterlimit="1.45" stroke-width="3" shape-rendering="geometricPrecision" transform="matrix(1,0,0,1,-758,-442)" stroke-linecap="butt">
      <rect x="858.04" y="618.888" clip-path="url(#clipPath2)" fill="none" width="30" rx="4" ry="4" height="30"/>
      <text x="865.6401" y="637.575" clip-path="url(#clipPath2)" font-family="sans-serif" stroke="none" stroke-width="1" xml:space="preserve">18</text>
    </g>
    <g fill="white" text-rendering="geometricPrecision" shape-rendering="geometricPrecision" transform="matrix(1,0,0,1,-758,-442)" stroke="white">
      <rect x="773.464" y="715.5952" clip-path="url(#clipPath2)" width="73.52" rx="4" ry="4" height="30" stroke="none"/>
    </g>
    <g text-rendering="geometricPrecision" stroke-miterlimit="1.45" stroke-width="3" shape-rendering="geometricPrecision" transform="matrix(1,0,0,1,-758,-442)" stroke-linecap="butt">
      <rect x="773.464" y="715.5952" clip-path="url(#clipPath2)" fill="none" width="73.52" rx="4" ry="4" height="30"/>
      <text x="783.0145" y="734.2822" clip-path="url(#clipPath2)" font-family="sans-serif" stroke="none" stroke-width="1" xml:space="preserve">8          11</text>
    </g>
    <g fill="white" text-rendering="geometricPrecision" shape-rendering="geometricPrecision" transform="matrix(1,0,0,1,-758,-442)" stroke="white">
      <rect x="858.04" y="715.5952" clip-path="url(#clipPath2)" width="122.672" rx="4" ry="4" height="30" stroke="none"/>
    </g>
    <g text-rendering="geometricPrecision" stroke-miterlimit="1.45" stroke-width="3" shape-rendering="geometricPrecision" transform="matrix(1,0,0,1,-758,-442)" stroke-linecap="butt">
      <rect x="858.04" y="715.5952" clip-path="url(#clipPath2)" fill="none" width="122.672" rx="4" ry="4" height="30"/>
      <text x="865.3923" y="734.2822" clip-path="url(#clipPath2)" font-family="sans-serif" stroke="none" stroke-width="1" xml:space="preserve">20          30          33</text>
    </g>
    <g fill="white" text-rendering="geometricPrecision" shape-rendering="geometricPrecision" transform="matrix(1,0,0,1,-758,-442)" stroke="white">
      <rect x="1010.712" y="715.5952" clip-path="url(#clipPath2)" width="76.976" rx="4" ry="4" height="30" stroke="none"/>
    </g>
    <g text-rendering="geometricPrecision" stroke-miterlimit="1.45" stroke-width="3" shape-rendering="geometricPrecision" transform="matrix(1,0,0,1,-758,-442)" stroke-linecap="butt">
      <rect x="1010.712" y="715.5952" clip-path="url(#clipPath2)" fill="none" width="76.976" rx="4" ry="4" height="30"/>
      <text x="1018.4968" y="734.2822" clip-path="url(#clipPath2)" font-family="sans-serif" stroke="none" stroke-width="1" xml:space="preserve">38          41</text>
    </g>
    <g fill="white" text-rendering="geometricPrecision" shape-rendering="geometricPrecision" transform="matrix(1,0,0,1,-758,-442)" stroke="white">
      <rect x="1092.9341" y="715.5952" clip-path="url(#clipPath2)" width="76.976" rx="4" ry="4" height="30" stroke="none"/>
    </g>
    <g text-rendering="geometricPrecision" stroke-miterlimit="1.45" stroke-width="3" shape-rendering="geometricPrecision" transform="matrix(1,0,0,1,-758,-442)" stroke-linecap="butt">
      <rect x="1092.9341" y="715.5952" clip-path="url(#clipPath2)" fill="none" width="76.976" rx="4" ry="4" height="30"/>
      <text x="1100.7189" y="734.2822" clip-path="url(#clipPath2)" font-family="sans-serif" stroke="none" stroke-width="1" xml:space="preserve">47          50</text>
    </g>
    <g fill="white" text-rendering="geometricPrecision" shape-rendering="geometricPrecision" transform="matrix(1,0,0,1,-758,-442)" stroke="white">
      <rect x="1397.6" y="618.888" clip-path="url(#clipPath2)" width="30" rx="4" ry="4" height="30" stroke="none"/>
    </g>
    <g text-rendering="geometricPrecision" stroke-miterlimit="1.45" stroke-width="3" shape-rendering="geometricPrecision" transform="matrix(1,0,0,1,-758,-442)" stroke-linecap="butt">
      <rect x="1397.6" y="618.888" clip-path="url(#clipPath2)" fill="none" width="30" rx="4" ry="4" height="30"/>
      <text x="1405.2001" y="637.575" clip-path="url(#clipPath2)" font-family="sans-serif" stroke="none" stroke-width="1" xml:space="preserve">68</text>
    </g>
    <g fill="white" text-rendering="geometricPrecision" shape-rendering="geometricPrecision" transform="matrix(1,0,0,1,-758,-442)" stroke="white">
      <rect x="1622.7341" y="618.888" clip-path="url(#clipPath2)" width="76.976" rx="4" ry="4" height="30" stroke="none"/>
    </g>
    <g text-rendering="geometricPrecision" stroke-miterlimit="1.45" stroke-width="3" shape-rendering="geometricPrecision" transform="matrix(1,0,0,1,-758,-442)" stroke-linecap="butt">
      <rect x="1622.7341" y="618.888" clip-path="url(#clipPath2)" fill="none" width="76.976" rx="4" ry="4" height="30"/>
      <text x="1630.5188" y="637.575" clip-path="url(#clipPath2)" font-family="sans-serif" stroke="none" stroke-width="1" xml:space="preserve">77          95</text>
    </g>
    <g fill="white" text-rendering="geometricPrecision" shape-rendering="geometricPrecision" transform="matrix(1,0,0,1,-758,-442)" stroke="white">
      <rect x="1270.048" y="715.5952" clip-path="url(#clipPath2)" width="137.392" rx="4" ry="4" height="30" stroke="none"/>
    </g>
    <g text-rendering="geometricPrecision" stroke-miterlimit="1.45" stroke-width="3" shape-rendering="geometricPrecision" transform="matrix(1,0,0,1,-758,-442)" stroke-linecap="butt">
      <rect x="1270.048" y="715.5952" clip-path="url(#clipPath2)" fill="none" width="137.392" rx="4" ry="4" height="30"/>
      <text x="1282.9374" y="734.2822" clip-path="url(#clipPath2)" font-family="sans-serif" stroke="none" stroke-width="1" xml:space="preserve">57          62           64</text>
    </g>
    <g fill="white" text-rendering="geometricPrecision" shape-rendering="geometricPrecision" transform="matrix(1,0,0,1,-758,-442)" stroke="white">
      <rect x="1424" y="715.5952" clip-path="url(#clipPath2)" width="30" rx="4" ry="4" height="30" stroke="none"/>
    </g>
    <g text-rendering="geometricPrecision" stroke-miterlimit="1.45" stroke-width="3" shape-rendering="geometricPrecision" transform="matrix(1,0,0,1,-758,-442)" stroke-linecap="butt">
      <rect x="1424" y="715.5952" clip-path="url(#clipPath2)" fill="none" width="30" rx="4" ry="4" height="30"/>
      <text x="1431.6001" y="734.2822" clip-path="url(#clipPath2)" font-family="sans-serif" stroke="none" stroke-width="1" xml:space="preserve">69</text>
    </g>
    <g fill="white" text-rendering="geometricPrecision" shape-rendering="geometricPrecision" transform="matrix(1,0,0,1,-758,-442)" stroke="white">
      <rect x="1094.6621" y="607.5704" clip-path="url(#clipPath2)" width="73.52" rx="4" ry="4" height="30" stroke="none"/>
    </g>
    <g text-rendering="geometricPrecision" stroke-miterlimit="1.45" stroke-width="3" shape-rendering="geometricPrecision" transform="matrix(1,0,0,1,-758,-442)" stroke-linecap="butt">
      <rect x="1094.6621" y="607.5704" clip-path="url(#clipPath2)" fill="none" width="73.52" rx="4" ry="4" height="30"/>
      <text x="1100.7805" y="626.2574" clip-path="url(#clipPath2)" font-family="sans-serif" stroke="none" stroke-width="1" xml:space="preserve">42          54</text>
    </g>
    <g fill="white" text-rendering="geometricPrecision" shape-rendering="geometricPrecision" transform="matrix(1,0,0,1,-758,-442)" stroke="white">
      <rect x="1181.024" y="715.5952" clip-path="url(#clipPath2)" width="30" rx="4" ry="4" height="30" stroke="none"/>
    </g>
    <g text-rendering="geometricPrecision" stroke-miterlimit="1.45" stroke-width="3" shape-rendering="geometricPrecision" transform="matrix(1,0,0,1,-758,-442)" stroke-linecap="butt">
      <rect x="1181.024" y="715.5952" clip-path="url(#clipPath2)" fill="none" width="30" rx="4" ry="4" height="30"/>
      <text x="1188.624" y="734.2822" clip-path="url(#clipPath2)" font-family="sans-serif" stroke="none" stroke-width="1" xml:space="preserve">55</text>
    </g>
    <g fill="white" text-rendering="geometricPrecision" shape-rendering="geometricPrecision" transform="matrix(1,0,0,1,-758,-442)" stroke="white">
      <rect x="1512.352" y="715.5952" clip-path="url(#clipPath2)" width="76.976" rx="4" ry="4" height="30" stroke="none"/>
    </g>
    <g text-rendering="geometricPrecision" stroke-miterlimit="1.45" stroke-width="3" shape-rendering="geometricPrecision" transform="matrix(1,0,0,1,-758,-442)" stroke-linecap="butt">
      <rect x="1512.352" y="715.5952" clip-path="url(#clipPath2)" fill="none" width="76.976" rx="4" ry="4" height="30"/>
      <text x="1520.1367" y="734.2822" clip-path="url(#clipPath2)" font-family="sans-serif" stroke="none" stroke-width="1" xml:space="preserve">75          76</text>
    </g>
    <g fill="white" text-rendering="geometricPrecision" shape-rendering="geometricPrecision" transform="matrix(1,0,0,1,-758,-442)" stroke="white">
      <rect x="1594.5741" y="715.5952" clip-path="url(#clipPath2)" width="133.296" rx="4" ry="4" height="30" stroke="none"/>
    </g>
    <g text-rendering="geometricPrecision" stroke-miterlimit="1.45" stroke-width="3" shape-rendering="geometricPrecision" transform="matrix(1,0,0,1,-758,-442)" stroke-linecap="butt">
      <rect x="1594.5741" y="715.5952" clip-path="url(#clipPath2)" fill="none" width="133.296" rx="4" ry="4" height="30"/>
      <text x="1607.0486" y="734.2822" clip-path="url(#clipPath2)" font-family="sans-serif" stroke="none" stroke-width="1" xml:space="preserve">87          80          88</text>
    </g>
    <g fill="white" text-rendering="geometricPrecision" shape-rendering="geometricPrecision" transform="matrix(1,0,0,1,-758,-442)" stroke="white">
      <rect x="1737.96" y="715.5952" clip-path="url(#clipPath2)" width="73.52" rx="4" ry="4" height="30" stroke="none"/>
    </g>
    <g text-rendering="geometricPrecision" stroke-miterlimit="1.45" stroke-width="3" shape-rendering="geometricPrecision" transform="matrix(1,0,0,1,-758,-442)" stroke-linecap="butt">
      <rect x="1737.96" y="715.5952" clip-path="url(#clipPath2)" fill="none" width="73.52" rx="4" ry="4" height="30"/>
      <text x="1744.0785" y="734.2822" clip-path="url(#clipPath2)" font-family="sans-serif" stroke="none" stroke-width="1" xml:space="preserve">96          97</text>
      <path fill="none" d="M1163.1252 472.2552 L993.68 472.2552 L993.68 517.1188" stroke-width="1" clip-path="url(#clipPath2)"/>
      <path d="M993.68 525.1188 L998.68 513.1188 L993.68 516.1188 L988.68 513.1188 Z" stroke-width="1" clip-path="url(#clipPath2)" stroke="none"/>
      <path fill="none" d="M1193.1261 472.2552 L1490.92 472.2552 L1490.92 517.1188" stroke-width="1" clip-path="url(#clipPath2)"/>
      <path d="M1490.92 525.1188 L1495.92 513.1188 L1490.92 516.1188 L1485.92 513.1188 Z" stroke-width="1" clip-path="url(#clipPath2)" stroke="none"/>
      <path fill="none" d="M978.6884 540.1328 L873.04 540.1328 L873.04 610.9183" stroke-width="1" clip-path="url(#clipPath2)"/>
      <path d="M873.04 618.9183 L878.04 606.9183 L873.04 609.9183 L868.04 606.9183 Z" stroke-width="1" clip-path="url(#clipPath2)" stroke="none"/>
      <path fill="none" d="M858.0414 633.888 L810.224 633.888 L810.224 707.6263" stroke-width="1" clip-path="url(#clipPath2)"/>
      <path d="M810.224 715.6263 L815.224 703.6263 L810.224 706.6263 L805.224 703.6263 Z" stroke-width="1" clip-path="url(#clipPath2)" stroke="none"/>
      <path fill="none" d="M888.0178 633.888 L919.376 633.888 L919.376 707.6263" stroke-width="1" clip-path="url(#clipPath2)"/>
      <path d="M919.376 715.6263 L924.376 703.6263 L919.376 706.6263 L914.376 703.6263 Z" stroke-width="1" clip-path="url(#clipPath2)" stroke="none"/>
      <path fill="none" d="M1475.8909 540.1328 L1412.6 540.1328 L1412.6 610.9183" stroke-width="1" clip-path="url(#clipPath2)"/>
      <path d="M1412.6 618.9183 L1417.6 606.9183 L1412.6 609.9183 L1407.6 606.9183 Z" stroke-width="1" clip-path="url(#clipPath2)" stroke="none"/>
      <path fill="none" d="M1505.9296 540.3584 L1661.222 542.6928 L1661.222 610.8818" stroke-width="1" clip-path="url(#clipPath2)"/>
      <path d="M1661.222 618.8818 L1666.222 606.8818 L1661.222 609.8818 L1656.222 606.8818 Z" stroke-width="1" clip-path="url(#clipPath2)" stroke="none"/>
      <path fill="none" d="M1397.634 633.888 L1338.744 633.888 L1338.744 707.6263" stroke-width="1" clip-path="url(#clipPath2)"/>
      <path d="M1338.744 715.6263 L1343.744 703.6263 L1338.744 706.6263 L1333.744 703.6263 Z" stroke-width="1" clip-path="url(#clipPath2)" stroke="none"/>
      <path fill="none" d="M1427.5789 633.888 L1439 633.888 L1439 707.6263" stroke-width="1" clip-path="url(#clipPath2)"/>
      <path d="M1439 715.6263 L1444 703.6263 L1439 706.6263 L1434 703.6263 Z" stroke-width="1" clip-path="url(#clipPath2)" stroke="none"/>
      <path fill="none" d="M1008.7119 540.5012 L1131.4221 543.508 L1131.4221 599.5532" stroke-width="1" clip-path="url(#clipPath2)"/>
      <path d="M1131.4221 607.5532 L1136.4221 595.5532 L1131.4221 598.5532 L1126.4221 595.5532 Z" stroke-width="1" clip-path="url(#clipPath2)" stroke="none"/>
      <path fill="none" d="M1094.6956 622.5704 L1051.3199 622.5704 L1049.6515 707.5904" stroke-width="1" clip-path="url(#clipPath2)"/>
      <path d="M1049.4945 715.5889 L1054.729 703.6893 L1049.6711 706.5906 L1044.731 703.493 Z" stroke-width="1" clip-path="url(#clipPath2)" stroke="none"/>
      <path fill="none" d="M1131.4221 637.5959 L1131.4221 676.8424 L1131.4221 707.6085" stroke-width="1" clip-path="url(#clipPath2)"/>
      <path d="M1131.4221 715.6085 L1136.4221 703.6085 L1131.4221 706.6085 L1126.4221 703.6085 Z" stroke-width="1" clip-path="url(#clipPath2)" stroke="none"/>
      <path fill="none" d="M1168.1708 622.5704 L1196.024 622.5704 L1196.024 707.5888" stroke-width="1" clip-path="url(#clipPath2)"/>
      <path d="M1196.024 715.5888 L1201.024 703.5888 L1196.024 706.5888 L1191.024 703.5888 Z" stroke-width="1" clip-path="url(#clipPath2)" stroke="none"/>
      <path fill="none" d="M1622.7123 633.888 L1550.84 633.888 L1550.84 707.6263" stroke-width="1" clip-path="url(#clipPath2)"/>
      <path d="M1550.84 715.6263 L1555.84 703.6263 L1550.84 706.6263 L1545.84 703.6263 Z" stroke-width="1" clip-path="url(#clipPath2)" stroke="none"/>
      <path fill="none" d="M1661.222 648.8568 L1661.222 707.6285" stroke-width="1" clip-path="url(#clipPath2)"/>
      <path d="M1661.222 715.6285 L1666.222 703.6285 L1661.222 706.6285 L1656.222 703.6285 Z" stroke-width="1" clip-path="url(#clipPath2)" stroke="none"/>
      <path fill="none" d="M1699.7106 633.888 L1774.72 633.888 L1774.72 707.6263" stroke-width="1" clip-path="url(#clipPath2)"/>
      <path d="M1774.72 715.6263 L1779.72 703.6263 L1774.72 706.6263 L1769.72 703.6263 Z" stroke-width="1" clip-path="url(#clipPath2)" stroke="none"/>
    </g>
  </g>
</svg>
