<?xml version="1.0" encoding="UTF-8"?><svg xmlns="http://www.w3.org/2000/svg" xmlns:xlink="http://www.w3.org/1999/xlink" fill-opacity="1" color-rendering="auto" color-interpolation="auto" text-rendering="auto" stroke="black" stroke-linecap="square" width="974" stroke-miterlimit="10" shape-rendering="auto" stroke-opacity="1" fill="black" stroke-dasharray="none" font-weight="normal" stroke-width="1" height="302" font-family="'Dialog'" font-style="normal" stroke-linejoin="miter" font-size="12px" stroke-dashoffset="0" image-rendering="auto">
  <!--Generated by ySVG 2.5-->
  <defs id="genericDefs"/>
  <g>
    <defs id="defs1">
      <clipPath clipPathUnits="userSpaceOnUse" id="clipPath1">
        <path d="M0 0 L974 0 L974 302 L0 302 L0 0 Z"/>
      </clipPath>
      <clipPath clipPathUnits="userSpaceOnUse" id="clipPath2">
        <path d="M191 426 L1165 426 L1165 728 L191 728 L191 426 Z"/>
      </clipPath>
    </defs>
    <g fill="white" text-rendering="geometricPrecision" shape-rendering="geometricPrecision" transform="translate(-191,-426)" stroke="white">
      <rect x="191" width="974" height="302" y="426" clip-path="url(#clipPath2)" stroke="none"/>
    </g>
    <g fill="white" text-rendering="geometricPrecision" shape-rendering="geometricPrecision" transform="matrix(1,0,0,1,-191,-426)" stroke="white">
      <rect x="467.588" y="441.2552" clip-path="url(#clipPath2)" width="93" rx="4" ry="4" height="30" stroke="none"/>
    </g>
    <g text-rendering="geometricPrecision" stroke-miterlimit="1.45" stroke-width="3" shape-rendering="geometricPrecision" transform="matrix(1,0,0,1,-191,-426)" stroke-linecap="butt">
      <rect x="467.588" y="441.2552" clip-path="url(#clipPath2)" fill="none" width="93" rx="4" ry="4" height="30"/>
      <text x="483.0985" y="459.9422" clip-path="url(#clipPath2)" font-family="sans-serif" stroke="none" stroke-width="1" xml:space="preserve">36          64</text>
    </g>
    <g fill="white" text-rendering="geometricPrecision" shape-rendering="geometricPrecision" transform="matrix(1,0,0,1,-191,-426)" stroke="white">
      <rect x="223.456" y="547.548" clip-path="url(#clipPath2)" width="80.176" rx="4" ry="4" height="30" stroke="none"/>
    </g>
    <g text-rendering="geometricPrecision" stroke-miterlimit="1.45" stroke-width="3" shape-rendering="geometricPrecision" transform="matrix(1,0,0,1,-191,-426)" stroke-linecap="butt">
      <rect x="223.456" y="547.548" clip-path="url(#clipPath2)" fill="none" width="80.176" rx="4" ry="4" height="30"/>
      <text x="232.7836" y="566.235" clip-path="url(#clipPath2)" font-family="sans-serif" stroke="none" stroke-width="1" xml:space="preserve">11          20</text>
    </g>
    <g fill="white" text-rendering="geometricPrecision" shape-rendering="geometricPrecision" transform="matrix(1,0,0,1,-191,-426)" stroke="white">
      <rect x="444.304" y="547.548" clip-path="url(#clipPath2)" width="139.568" rx="4" ry="4" height="30" stroke="none"/>
    </g>
    <g text-rendering="geometricPrecision" stroke-miterlimit="1.45" stroke-width="3" shape-rendering="geometricPrecision" transform="matrix(1,0,0,1,-191,-426)" stroke-linecap="butt">
      <rect x="444.304" y="547.548" clip-path="url(#clipPath2)" fill="none" width="139.568" rx="4" ry="4" height="30"/>
      <text x="458.2425" y="566.235" clip-path="url(#clipPath2)" font-family="sans-serif" stroke="none" stroke-width="1" xml:space="preserve">42           50          56</text>
    </g>
    <g fill="white" text-rendering="geometricPrecision" shape-rendering="geometricPrecision" transform="matrix(1,0,0,1,-191,-426)" stroke="white">
      <rect x="842.88" y="540.8037" clip-path="url(#clipPath2)" width="139.568" rx="4" ry="4" height="30" stroke="none"/>
    </g>
    <g text-rendering="geometricPrecision" stroke-miterlimit="1.45" stroke-width="3" shape-rendering="geometricPrecision" transform="matrix(1,0,0,1,-191,-426)" stroke-linecap="butt">
      <rect x="842.88" y="540.8037" clip-path="url(#clipPath2)" fill="none" width="139.568" rx="4" ry="4" height="30"/>
      <text x="858.3785" y="559.4907" clip-path="url(#clipPath2)" font-family="sans-serif" stroke="none" stroke-width="1" xml:space="preserve">74          77          95</text>
    </g>
    <g fill="white" text-rendering="geometricPrecision" shape-rendering="geometricPrecision" transform="matrix(1,0,0,1,-191,-426)" stroke="white">
      <rect x="206.096" y="682.276" clip-path="url(#clipPath2)" width="30" rx="4" ry="4" height="30" stroke="none"/>
    </g>
    <g text-rendering="geometricPrecision" stroke-miterlimit="1.45" stroke-width="3" shape-rendering="geometricPrecision" transform="matrix(1,0,0,1,-191,-426)" stroke-linecap="butt">
      <rect x="206.096" y="682.276" clip-path="url(#clipPath2)" fill="none" width="30" rx="4" ry="4" height="30"/>
      <text x="217.1281" y="700.963" clip-path="url(#clipPath2)" font-family="sans-serif" stroke="none" stroke-width="1" xml:space="preserve">8</text>
    </g>
    <g fill="white" text-rendering="geometricPrecision" shape-rendering="geometricPrecision" transform="matrix(1,0,0,1,-191,-426)" stroke="white">
      <rect x="248.544" y="682.276" clip-path="url(#clipPath2)" width="30" rx="4" ry="4" height="30" stroke="none"/>
    </g>
    <g text-rendering="geometricPrecision" stroke-miterlimit="1.45" stroke-width="3" shape-rendering="geometricPrecision" transform="matrix(1,0,0,1,-191,-426)" stroke-linecap="butt">
      <rect x="248.544" y="682.276" clip-path="url(#clipPath2)" fill="none" width="30" rx="4" ry="4" height="30"/>
      <text x="256.1441" y="700.963" clip-path="url(#clipPath2)" font-family="sans-serif" stroke="none" stroke-width="1" xml:space="preserve">18</text>
    </g>
    <g fill="white" text-rendering="geometricPrecision" shape-rendering="geometricPrecision" transform="matrix(1,0,0,1,-191,-426)" stroke="white">
      <rect x="387.288" y="682.276" clip-path="url(#clipPath2)" width="74.032" rx="4" ry="4" height="30" stroke="none"/>
    </g>
    <g text-rendering="geometricPrecision" stroke-miterlimit="1.45" stroke-width="3" shape-rendering="geometricPrecision" transform="matrix(1,0,0,1,-191,-426)" stroke-linecap="butt">
      <rect x="387.288" y="682.276" clip-path="url(#clipPath2)" fill="none" width="74.032" rx="4" ry="4" height="30"/>
      <text x="393.6534" y="700.963" clip-path="url(#clipPath2)" font-family="sans-serif" stroke="none" stroke-width="1" xml:space="preserve">38          41</text>
    </g>
    <g fill="white" text-rendering="geometricPrecision" shape-rendering="geometricPrecision" transform="matrix(1,0,0,1,-191,-426)" stroke="white">
      <rect x="592.304" y="682.276" clip-path="url(#clipPath2)" width="80.176" rx="4" ry="4" height="30" stroke="none"/>
    </g>
    <g text-rendering="geometricPrecision" stroke-miterlimit="1.45" stroke-width="3" shape-rendering="geometricPrecision" transform="matrix(1,0,0,1,-191,-426)" stroke-linecap="butt">
      <rect x="592.304" y="682.276" clip-path="url(#clipPath2)" fill="none" width="80.176" rx="4" ry="4" height="30"/>
      <text x="601.6316" y="700.963" clip-path="url(#clipPath2)" font-family="sans-serif" stroke="none" stroke-width="1" xml:space="preserve">57          62</text>
    </g>
    <g fill="white" text-rendering="geometricPrecision" shape-rendering="geometricPrecision" transform="matrix(1,0,0,1,-191,-426)" stroke="white">
      <rect x="702.48" y="675.8077" clip-path="url(#clipPath2)" width="75.568" rx="4" ry="4" height="30" stroke="none"/>
    </g>
    <g text-rendering="geometricPrecision" stroke-miterlimit="1.45" stroke-width="3" shape-rendering="geometricPrecision" transform="matrix(1,0,0,1,-191,-426)" stroke-linecap="butt">
      <rect x="702.48" y="675.8077" clip-path="url(#clipPath2)" fill="none" width="75.568" rx="4" ry="4" height="30"/>
      <text x="709.5859" y="694.4947" clip-path="url(#clipPath2)" font-family="sans-serif" stroke="none" stroke-width="1" xml:space="preserve">68          69</text>
    </g>
    <g fill="white" text-rendering="geometricPrecision" shape-rendering="geometricPrecision" transform="matrix(1,0,0,1,-191,-426)" stroke="white">
      <rect x="1051.672" y="675.8077" clip-path="url(#clipPath2)" width="98.096" rx="4" ry="4" height="30" stroke="none"/>
    </g>
    <g text-rendering="geometricPrecision" stroke-miterlimit="1.45" stroke-width="3" shape-rendering="geometricPrecision" transform="matrix(1,0,0,1,-191,-426)" stroke-linecap="butt">
      <rect x="1051.672" y="675.8077" clip-path="url(#clipPath2)" fill="none" width="98.096" rx="4" ry="4" height="30"/>
      <text x="1069.6395" y="694.4947" clip-path="url(#clipPath2)" font-family="sans-serif" stroke="none" stroke-width="1" xml:space="preserve">96          97</text>
    </g>
    <g fill="white" text-rendering="geometricPrecision" shape-rendering="geometricPrecision" transform="matrix(1,0,0,1,-191,-426)" stroke="white">
      <rect x="283.256" y="682.276" clip-path="url(#clipPath2)" width="74.032" rx="4" ry="4" height="30" stroke="none"/>
    </g>
    <g text-rendering="geometricPrecision" stroke-miterlimit="1.45" stroke-width="3" shape-rendering="geometricPrecision" transform="matrix(1,0,0,1,-191,-426)" stroke-linecap="butt">
      <rect x="283.256" y="682.276" clip-path="url(#clipPath2)" fill="none" width="74.032" rx="4" ry="4" height="30"/>
      <text x="289.6213" y="700.963" clip-path="url(#clipPath2)" font-family="sans-serif" stroke="none" stroke-width="1" xml:space="preserve">30          33</text>
    </g>
    <g fill="white" text-rendering="geometricPrecision" shape-rendering="geometricPrecision" transform="matrix(1,0,0,1,-191,-426)" stroke="white">
      <rect x="474.8278" y="682.276" clip-path="url(#clipPath2)" width="30" rx="4" ry="4" height="30" stroke="none"/>
    </g>
    <g text-rendering="geometricPrecision" stroke-miterlimit="1.45" stroke-width="3" shape-rendering="geometricPrecision" transform="matrix(1,0,0,1,-191,-426)" stroke-linecap="butt">
      <rect x="474.8278" y="682.276" clip-path="url(#clipPath2)" fill="none" width="30" rx="4" ry="4" height="30"/>
      <text x="482.4279" y="700.963" clip-path="url(#clipPath2)" font-family="sans-serif" stroke="none" stroke-width="1" xml:space="preserve">47</text>
    </g>
    <g fill="white" text-rendering="geometricPrecision" shape-rendering="geometricPrecision" transform="matrix(1,0,0,1,-191,-426)" stroke="white">
      <rect x="508.4779" y="682" clip-path="url(#clipPath2)" width="80.176" rx="4" ry="4" height="30" stroke="none"/>
    </g>
    <g text-rendering="geometricPrecision" stroke-miterlimit="1.45" stroke-width="3" shape-rendering="geometricPrecision" transform="matrix(1,0,0,1,-191,-426)" stroke-linecap="butt">
      <rect x="508.4779" y="682" clip-path="url(#clipPath2)" fill="none" width="80.176" rx="4" ry="4" height="30"/>
      <text x="516.2455" y="700.687" clip-path="url(#clipPath2)" font-family="sans-serif" stroke="none" stroke-width="1" xml:space="preserve">54           55</text>
    </g>
    <g fill="white" text-rendering="geometricPrecision" shape-rendering="geometricPrecision" transform="matrix(1,0,0,1,-191,-426)" stroke="white">
      <rect x="786.504" y="675.8077" clip-path="url(#clipPath2)" width="86.832" rx="4" ry="4" height="30" stroke="none"/>
    </g>
    <g text-rendering="geometricPrecision" stroke-miterlimit="1.45" stroke-width="3" shape-rendering="geometricPrecision" transform="matrix(1,0,0,1,-191,-426)" stroke-linecap="butt">
      <rect x="786.504" y="675.8077" clip-path="url(#clipPath2)" fill="none" width="86.832" rx="4" ry="4" height="30"/>
      <text x="799.0407" y="694.4947" clip-path="url(#clipPath2)" font-family="sans-serif" stroke="none" stroke-width="1" xml:space="preserve">75          76</text>
    </g>
    <g fill="white" text-rendering="geometricPrecision" shape-rendering="geometricPrecision" transform="matrix(1,0,0,1,-191,-426)" stroke="white">
      <rect x="887.736" y="675.8077" clip-path="url(#clipPath2)" width="133.936" rx="4" ry="4" height="30" stroke="none"/>
    </g>
    <g text-rendering="geometricPrecision" stroke-miterlimit="1.45" stroke-width="3" shape-rendering="geometricPrecision" transform="matrix(1,0,0,1,-191,-426)" stroke-linecap="butt">
      <rect x="887.736" y="675.8077" clip-path="url(#clipPath2)" fill="none" width="133.936" rx="4" ry="4" height="30"/>
      <text x="898.9591" y="694.4947" clip-path="url(#clipPath2)" font-family="sans-serif" stroke="none" stroke-width="1" xml:space="preserve">78          80           88</text>
      <path fill="none" d="M467.5698 456.2552 L263.544 456.2552 L263.544 539.5227" stroke-width="1" clip-path="url(#clipPath2)"/>
      <path d="M263.544 547.5227 L268.544 535.5227 L263.544 538.5227 L258.544 535.5227 Z" stroke-width="1" clip-path="url(#clipPath2)" stroke="none"/>
      <path fill="none" d="M514.088 471.2805 L514.088 539.5298" stroke-width="1" clip-path="url(#clipPath2)"/>
      <path d="M514.088 547.5298 L519.088 535.5298 L514.088 538.5298 L509.088 535.5298 Z" stroke-width="1" clip-path="url(#clipPath2)" stroke="none"/>
      <path fill="none" d="M560.5529 456.2552 L912.664 456.2552 L912.664 532.7839" stroke-width="1" clip-path="url(#clipPath2)"/>
      <path d="M912.664 540.7839 L917.664 528.7839 L912.664 531.7839 L907.664 528.7839 Z" stroke-width="1" clip-path="url(#clipPath2)" stroke="none"/>
      <path fill="none" d="M223.4588 562.548 L221.096 562.548 L221.096 674.2441" stroke-width="1" clip-path="url(#clipPath2)"/>
      <path d="M221.096 682.2441 L226.096 670.2441 L221.096 673.2441 L216.096 670.2441 Z" stroke-width="1" clip-path="url(#clipPath2)" stroke="none"/>
      <path fill="none" d="M263.544 577.5799 L263.544 674.2848" stroke-width="1" clip-path="url(#clipPath2)"/>
      <path d="M263.544 682.2848 L268.544 670.2848 L263.544 673.2848 L258.544 670.2848 Z" stroke-width="1" clip-path="url(#clipPath2)" stroke="none"/>
      <path fill="none" d="M444.2888 560.1115 L424.304 560.1115 L424.304 674.3071" stroke-width="1" clip-path="url(#clipPath2)"/>
      <path d="M424.304 682.3071 L429.304 670.3071 L424.304 673.3071 L419.304 670.3071 Z" stroke-width="1" clip-path="url(#clipPath2)" stroke="none"/>
      <path fill="none" d="M583.8802 562.1595 L632.392 562.1595 L632.392 674.2667" stroke-width="1" clip-path="url(#clipPath2)"/>
      <path d="M632.392 682.2667 L637.392 670.2667 L632.392 673.2667 L627.392 670.2667 Z" stroke-width="1" clip-path="url(#clipPath2)" stroke="none"/>
      <path fill="none" d="M842.9211 555.8037 L740.264 555.8037 L740.264 667.8109" stroke-width="1" clip-path="url(#clipPath2)"/>
      <path d="M740.264 675.8109 L745.264 663.8109 L740.264 666.8109 L735.264 663.8109 Z" stroke-width="1" clip-path="url(#clipPath2)" stroke="none"/>
      <path fill="none" d="M982.4045 555.8037 L1100.72 555.8037 L1100.72 667.8109" stroke-width="1" clip-path="url(#clipPath2)"/>
      <path d="M1100.72 675.8109 L1105.72 663.8109 L1100.72 666.8109 L1095.72 663.8109 Z" stroke-width="1" clip-path="url(#clipPath2)" stroke="none"/>
      <path fill="none" d="M303.6248 562.548 L320.272 562.548 L320.272 674.2441" stroke-width="1" clip-path="url(#clipPath2)"/>
      <path d="M320.272 682.2441 L325.272 670.2441 L320.272 673.2441 L315.272 670.2441 Z" stroke-width="1" clip-path="url(#clipPath2)" stroke="none"/>
      <path fill="none" d="M489.8278 577.5598 L489.8278 674.2822" stroke-width="1" clip-path="url(#clipPath2)"/>
      <path d="M489.8278 682.2822 L494.8278 670.2822 L489.8278 673.2822 L484.8278 670.2822 Z" stroke-width="1" clip-path="url(#clipPath2)" stroke="none"/>
      <path fill="none" d="M544.3143 577.5367 L547.7468 673.9846" stroke-width="1" clip-path="url(#clipPath2)"/>
      <path d="M548.0314 681.9796 L552.6014 669.8093 L547.7112 672.9852 L542.6077 670.165 Z" stroke-width="1" clip-path="url(#clipPath2)" stroke="none"/>
      <path fill="none" d="M886.111 570.8399 L886.111 603.2699 L829.92 603.2699 L829.92 667.8049" stroke-width="1" clip-path="url(#clipPath2)"/>
      <path d="M829.92 675.8049 L834.92 663.8049 L829.92 666.8049 L824.92 663.8049 Z" stroke-width="1" clip-path="url(#clipPath2)" stroke="none"/>
      <path fill="none" d="M925.535 570.7879 L925.535 602.7579 L942.9431 602.7579 L954.704 602.7579 L954.704 667.8031" stroke-width="1" clip-path="url(#clipPath2)"/>
      <path d="M954.704 675.8031 L959.704 663.8031 L954.704 666.8031 L949.704 663.8031 Z" stroke-width="1" clip-path="url(#clipPath2)" stroke="none"/>
    </g>
  </g>
</svg>
